<svg xmlns="http://www.w3.org/2000/svg">
<defs>
<font id="TH-Tshyn-P0" horiz-adv-x="266"><font-face font-family="TH-Tshyn-P0" font-weight="400" font-stretch="normal" units-per-em="256" panose-1="2 1 6 0 3 1 1 1 1 1" ascent="220" descent="-36" x-height="1" bbox="-76 -55 255 222" underline-thickness="12" underline-position="-32" unicode-range="U+0001-ffe3" /><missing-glyph horiz-adv-x="256" d="M6 207 l243 0 l0 -242 l-243 0 l0 242 ZM12 -29 l231 0 l0 230 l-231 0 l0 -230 ZM54 94 q5 0 9 5 q4 5 4 12 l0 57 q0 2 -1 3 q-1 1 -3 1 l-2 0 l0 3 l13 0 l0 -3 l-2 0 q-1 0 -2 -1 q-1 -1 -1 -3 l0 -57 q0 -10 -5 -15.5 q-5 -5.5 -11 -5.5 q-7 0 -12 5 q-5 5 -5 15 l0 58 q0 2 -0.5 3 q-0.5 1 -2.5 1 l-2 0 l0 3 l16 0 l0 -3 l-1 0 q-2 0 -3 -1 q-1 -1 -1 -3 l0 -58 q0 -9 3.5 -12.5 q3.5 -3.5 8.5 -3.5 ZM70 91 l0 3 l2 0 q2 0 2.5 1 q0.5 1 0.5 3 l0 42 q0 2 -0.5 2.5 q-0.5 0.5 -1.5 0.5 l-3 0 l0 3 l3 0 q2 0 3.5 0.5 q1.5 0.5 2.5 2.5 l1 0 l0 -11 q4 4 7 6.5 q3 2.5 7 2.5 q6 0 9 -4 q3 -4 3 -13 l0 -32 q0 -2 1 -3 q1 -1 2 -1 l2 0 l0 -3 l-15 0 l0 3 l1 0 q2 0 3 1 q1 1 1 3 l0 33 q0 6 -2 9 q-2 3 -6 3 q-3 0 -6.5 -2.5 q-3.5 -2.5 -6.5 -8.5 l0 -34 q0 -2 1 -3 q1 -1 3 -1 l1 0 l0 -3 l-15 0 ZM139 122 q0 11 -3 16.5 q-3 5.5 -8 5.5 q-6 0 -9.5 -5.5 q-3.5 -5.5 -3.5 -16.5 l24 0 ZM115 119 q0 -13 4 -18.5 q4 -5.5 10 -5.5 q5 0 8 3.5 q3 3.5 5 8.5 l2 -1 q-1 -5 -5 -10 q-4 -5 -11 -5 q-8 0 -13.5 7 q-5.5 7 -5.5 21 q0 13 5.5 21 q5.5 8 13.5 8 q7 0 12 -6.5 q5 -6.5 5 -22.5 l-30 0 ZM145 91 l0 3 l2 0 q2 0 2.5 1 q0.5 1 0.5 3 l0 42 q0 1 -0.5 2 q-0.5 1 -1.5 1 l-3 0 l0 3 l3 0 q2 0 3.5 0.5 q1.5 0.5 3.5 1.5 l0 0 l0 -11 q4 5 7 7.5 q3 2.5 7 2.5 q6 0 9 -4.5 q3 -4.5 3 -13.5 l0 -31 q0 -2 1 -3 q1 -1 2 -1 l2 0 l0 -3 l-15 0 l0 3 l1 0 q2 0 3 1 q1 1 1 3 l0 33 q0 6 -2 9 q-2 3 -6 3 q-3 0 -6.5 -3 q-3.5 -3 -6.5 -8 l0 -34 q0 -2 1 -3 q1 -1 3 -1 l1 0 l0 -3 l-15 0 ZM184 119 l0 5 l40 0 l0 -5 l-40 0 ZM57 40 q0 2 0 2.5 q0 0.5 1 1.5 q0 2 -2 5 q-2 3 -6 3 q-6 0 -9.5 -7.5 q-3.5 -7.5 -3.5 -18.5 q0 -11 3 -18 q3 -7 11 -7 q5 0 8.5 4.5 q3.5 4.5 5.5 10.5 l1 -1 q-1 -7 -5 -12.5 q-4 -5.5 -11 -5.5 q-9 0 -14 7.5 q-5 7.5 -5 21.5 q0 12 5.5 20
<glyph glyph-name="exclam" unicode="!" d="M63 1 q-6 0 -10 4 q-4 4 -4 10 q0 6 4 10 q4 4 10 4 q6 0 10 -4 q4 -4 4 -10 q0 -6 -4 -10 q-4 -4 -10 -4 ZM67 68 l0 -10 l-8 0 l0 10 q0 27 -3.5 54.5 q-3.5 27.5 -3.5 40.5 q0 8 2.5 12.5 q2.5 4.5 8.5 4.5 q7 0 9 -5 q2 -5 2 -12 q0 -13 -3.5 -40.5 q-3.5 -27.5 -3.5 -54.5 Z" /><glyph glyph-name="quotedbl" unicode="&quot;" d="M45 197 q2 4 5 6 q3 2 6 2 q7 0 9 -4 q2 -4 2 -7 q0 -2 -1 -4.5 q-1 -2.5 -3 -4.5 l-41 -41 q-1 -1 -2.5 -0.5 q-1.5 0.5 -1.5 3.5 l27 50 ZM96 205 q5 0 8 -4 q3 -4 3 -7 q0 -2 -1 -4.5 q-1 -2.5 -3 -4.5 l-41 -41 q-1 -1 -2.5 -0.5 q-1.5 0.5 -1.5 3.5 l27 50 q2 4 5 6 q3 2 6 2 Z" /><glyph glyph-name="numbersign" unicode="#" d="M83 46 l-46 0 l-3 -44 l-9 0 l3 44 l-19 0 l0 19 l20 0 l5 52 l-25 0 l0 19 l26 0 l3 41 l9 0 l-3 -41 l46 0 l3 41 l9 0 l-3 -41 l19 0 l0 -19 l-20 0 l-5 -52 l25 0 l0 -19 l-26 0 l-3 -44 l-9 0 l3 44 ZM38 65 l46 0 l5 52 l-46 0 l-5 -52 Z" /><glyph glyph-name="dollar" unicode="$" d="M69 -23 l-9 0 l0 26 q-17 0 -30 10 q-13 10 -13 27 q0 5 3.5 9.5 q3.5 4.5 9.5 4.5 q6 0 8.5 -3 q2.5 -3 2.5 -9 q0 -6 -3 -9 q-3 -3 -3 -9 q0 -6 7.5 -10 q7.5 -4 17.5 -4 l0 76 q-28 21 -33 31.5 q-5 10.5 -5 18.5 q0 15 11.5 26.5 q11.5 11.5 26.5 13.5 l0 18 l9 0 l0 -18 q15 0 25.5 -9.5 q10.5 -9.5 10.5 -20.5 q0 -9 -3.5 -13 q-3.5 -4 -9.5 -4 q-5 0 -7.5 2 q-2.5 2 -2.5 7 q0 4 3 6.5 q3 2.5 3 9.5 q0 4 -4.5 9.5 q-4.5 5.5 -14.5 5.5 l0 -65 q17 -14 27.5 -27 q10.5 -13 10.5 -28 q0 -23 -12.5 -33.5 q-12.5 -10.5 -25.5 -12.5 l0 -26 ZM69 11 q8 0 15.5 6.5 q7.5 6.5 7.5 24.5 q0 10 -5.5 19.5 q-5.5 9.5 -17.5 18.5 l0 -69 ZM37 141 q0 -8 5.5 -15.5 q5.5 -7.5 17.5 -16.5 l0 60 q-9 -2 -16 -8.5 q-7 -6.5 -7 -19.5 Z" /><glyph glyph-name="percent" unicode="%" d="M30 170 q-6 0 -10 -8 q-4 -8 -4 -30 q0 -25 4.5 -32.5 q4.5 -7.5 9.5 -7.5 q7 0 10.5 9 q3.5 9 3.5 31 q0 18 -2.5 28 q-2.5 10 -11.5 10 ZM57 131 q0 -18 -6 -31.5 q-6 -13.5 -21 -13.5 q-12 0 -19.5 12 q-7.5 12 -7.5 33 q0 22 8 34 q8 12 19 12 q12 0 19.5 -12.5 q7.5 -12.5 7.5 -33.5 ZM109 48 q0 17 -3 28 q-3 11 -11 11 q-6 0 -10 -9.5 q-4 -9.5 -4 -29.5 q0 -25 4.5 -32 q4.5 -7 9.5 -7 q7 0 10.5 8.5 q3.5 8.5 3.5 30.5 ZM122 47 q0 -20 -7 -32.5 q-7 -12.5 -20 -12.5 q-11 0 -19 12.5 q-8 12.5 -8 32.5 q0 22 8 34.5 q8 12.5 19 12.5 q12 0 19.5 -13 q7.5 -13 7.5 -34 ZM101 174 l-72 -172 l-6 3 l71 172 l7 -3 Z" /><glyph glyph-name="ampersand" unicode="&amp;" d="M77 39 q5 8 7.5 19.5 q2.5 11.5 2.5 25.5 q0 5 -2 7.5 q-2 2.5 -7 2.5 l-5 0 l0 6 l40 0 l0 -6 l-4 0 q-5 0 -8 -3 q-3 -3 -4 -9 q-3 -17 -6.5 -30 q-3.5 -13 -8.5 -20 q7 -9 12.5 -13.5 q5.5 -4.5 10.5 -4.5 q5 0 8.5 4 q3.5 4 6.5 12 l4 -2 q-2 -13 -8.5 -19.5 q-6.5 -6.5 -17.5 -6.5 q-5 0 -11 4 q-6 4 -14 13 q-7 -9 -15.5 -13 q-8.5 -4 -17.5 -4 q-14 0 -25.5 13 q-11.5 13 -11.5 32 q0 15 6.5 27.5 q6.5 12.5 19.5 22.5 q-3 10 -5 21 q-2 11 -2 21 q0 18 9 28 q9 10 20 10 q15 0 21 -9 q6 -9 6 -21 q0 -16 -8 -28.5 q-8 -12.5 -25 -19.5 q7 -19 15 -34.5 q8 -15.5 17 -25.5 ZM18 55 q0 -22 8 -32 q8 -10 22 -10 q6 0 11 2.5 q5 2.5 9 8.5 q-11 13 -20.5 30.5 q-9.5 17.5 -16.5 36.5 q-6 -6 -9.5 -15 q-3.5 -9 -3.5 -21 ZM64 148 q0 12 -2.5 17.5 q-2.5 5.5 -10.5 5.5 q-5 0 -10.5 -5.5 q-5.5 -5.5 -5.5 -20.5 q0 -10 2 -20.5 q2 -10.5 6 -19.5 q11 5 16 16.5 q5 11.5 5 26.5 Z" /><glyph glyph-name="quotesingle" unicode="&#39;" d="M18 193 q0 4 3.5 8 q3.5 4 10.5 4 q8 0 12.5 -6.5 q4.5 -6.5 4.5 -13.5 q0 -14 -8 -26 q-8 -12 -23 -18 l-4 5 q10 6 15 12.5 q5 6.5 5 13.5 q0 5 -8 9 q-8 4 -8 12 Z" /><glyph glyph-name="parenleft" unicode="(" d="M116 201 q-23 -24 -34.5 -51.5 q-11.5 -27.5 -11.5 -57.5 q0 -31 11.5 -58 q11.5 -27 34.5 -51 l-5 -5 q-28 25 -42 53.5 q-14 28.5 -14 60.5 q0 31 14 59.5 q14 28.5 42 54.5 l5 -5 Z" /><glyph glyph-name="parenright" unicode=")" d="M11 201 l5 5 q28 -26 42 -54.5 q14 -28.5 14 -59.5 q0 -32 -14 -60.5 q-14 -28.5 -42 -53.5 l-5 5 q23 24 34.5 51 q11.5 27 11.5 58 q0 30 -11.5 57.5 q-11.5 27.5 -34.5 51.5 Z" /><glyph glyph-name="asterisk" unicode="*" d="M101 105 l-34 -13 l34 -13 q13 -5 15 -8 q2 -3 2 -6 q0 -8 -3 -9 q-3 -1 -6 -1 q-3 0 -6 1.5 q-3 1.5 -7 4.5 l-31 28 l7 -42 q1 -3 1 -5.5 q0 -2.5 0 -3.5 q0 -6 -3 -8.5 q-3 -2.5 -7 -2.5 q-3 0 -6.5 2 q-3.5 2 -3.5 9 q0 2 0.5 4 q0.5 2 0.5 5 l8 42 l-31 -28 q-3 -2 -6.5 -4 q-3.5 -2 -6.5 -2 q-3 0 -6 2 q-3 2 -3 8 q0 4 3 7 q3 3 14 7 l34 13 l-34 13 q-7 3 -12 5.5 q-5 2.5 -5 8.5 q0 5 3 7.5 q3 2.5 6 2.5 q3 0 6.5 -1.5 q3.5 -1.5 6.5 -4.5 l31 -28 l-7 42 q0 3 -0.5 5 q-0.5 2 -0.5 4 q0 4 3 7.5 q3 3.5 7 3.5 q6 0 8 -4 q2 -4 2 -7 q0 -2 0 -4.5 q0 -2.5 -1 -4.5 l-8 -42 l31 28 q4 4 7 5 q3 1 6 1 q4 0 6.5 -3 q2.5 -3 2.5 -7 q0 -4 -2 -6.5 q-2 -2.5 -15 -7.5 Z" /><glyph glyph-name="plus" unicode="+" d="M61 98 l0 57 l9 0 l0 -57 l50 0 l0 -9 l-50 0 l0 -57 l-9 0 l0 57 l-50 0 l0 9 l50 0 Z" /><glyph glyph-name="comma" unicode="," d="M18 22 q0 4 3.5 8 q3.5 4 10.5 4 q8 0 12.5 -6.5 q4.5 -6.5 4.5 -13.5 q0 -14 -8 -26 q-8 -12 -23 -18 l-4 5 q10 6 15 12.5 q5 6.5 5 13.5 q0 5 -8 9 q-8 4 -8 12 Z" /><glyph glyph-name="hyphen" unicode="-" d="M8 89 l0 9 l111 0 l0 -9 l-111 0 Z" /><glyph glyph-name="period" unicode="." d="M32 1 q-6 0 -10.5 4 q-4.5 4 -4.5 11 q0 7 4.5 11 q4.5 4 10.5 4 q6 0 10.5 -4.5 q4.5 -4.5 4.5 -10.5 q0 -7 -4.5 -11 q-4.5 -4 -10.5 -4 Z" /><glyph glyph-name="slash" unicode="/" d="M16 -19 l-7 4 l102 214 l7 -4 l-102 -214 Z" /><glyph glyph-name="zero" unicode="0" d="M64 169 q-14 0 -23.5 -21.5 q-9.5 -21.5 -9.5 -57.5 q0 -38 9.5 -59 q9.5 -21 23.5 -21 q15 0 23.5 21 q8.5 21 8.5 59 q0 36 -8 57.5 q-8 21.5 -24 21.5 ZM64 2 q-22 0 -37 23 q-15 23 -15 65 q0 39 14.5 63 q14.5 24 37.5 24 q22 0 36.5 -23 q14.5 -23 14.5 -64 q0 -41 -14.5 -64.5 q-14.5 -23.5 -36.5 -23.5 Z" /><glyph glyph-name="one" unicode="1" d="M73 178 l0 -152 q0 -8 5 -12 q5 -4 14 -4 l10 0 l0 -6 l-73 0 l0 6 l9 0 q10 0 14.5 4 q4.5 4 4.5 12 l0 121 q0 4 -2.5 6.5 q-2.5 2.5 -7.5 2.5 l-18 0 l0 6 l9 0 q12 0 19.5 4 q7.5 4 11.5 12 l4 0 Z" /><glyph glyph-name="two" unicode="2" d="M93 133 q0 18 -8 27.5 q-8 9.5 -24 9.5 q-12 0 -20.5 -6.5 q-8.5 -6.5 -8.5 -16.5 q0 -6 3.5 -10 q3.5 -4 3.5 -8 q0 -5 -2.5 -7.5 q-2.5 -2.5 -7.5 -2.5 q-6 0 -9.5 3.5 q-3.5 3.5 -3.5 11.5 q0 21 15 32 q15 11 32 11 q24 0 35.5 -12 q11.5 -12 11.5 -30 q0 -12 -5.5 -24 q-5.5 -12 -17.5 -23 q-29 -28 -44.5 -45.5 q-15.5 -17.5 -18.5 -23.5 l59 0 q9 0 15 7 q6 7 8 21 l6 0 l-6 -43 l-93 0 l0 13 q5 9 16.5 23 q11.5 14 30.5 33 q17 17 25 32 q8 15 8 28 Z" /><glyph glyph-name="three" unicode="3" d="M112 50 q0 -19 -14 -33.5 q-14 -14.5 -39 -14.5 q-18 0 -31 10 q-13 10 -13 23 q0 6 4 10.5 q4 4.5 8 4.5 q6 0 8.5 -4.5 q2.5 -4.5 2.5 -7.5 q0 -5 -2 -8.5 q-2 -3.5 -2 -6.5 q0 -6 7.5 -10 q7.5 -4 16.5 -4 q18 0 27 10.5 q9 10.5 9 32.5 q0 18 -9.5 29 q-9.5 11 -35.5 11 l0 7 q20 0 29.5 9.5 q9.5 9.5 9.5 26.5 q0 14 -7.5 24.5 q-7.5 10.5 -23.5 10.5 q-7 0 -15 -3.5 q-8 -3.5 -8 -11.5 q0 -8 2 -10 q2 -2 2 -5 q0 -5 -2 -8 q-2 -3 -7 -3 q-4 0 -7.5 3 q-3.5 3 -3.5 11 q0 15 13 24.5 q13 9.5 30 9.5 q20 0 32 -12.5 q12 -12.5 12 -26.5 q0 -15 -7.5 -25.5 q-7.5 -10.5 -23.5 -15.5 q22 -8 30 -21 q8 -13 8 -26 Z" /><glyph glyph-name="four" unicode="4" d="M92 23 q0 -7 4 -10 q4 -3 11 -3 l9 0 l0 -6 l-66 0 l0 6 l11 0 q8 0 11.5 3 q3.5 3 3.5 10 l0 33 l-67 0 l0 5 l73 116 l10 0 l0 -115 l27 0 l0 -6 l-27 0 l0 -33 ZM75 152 l-57 -90 l58 0 l0 90 l-1 0 Z" /><glyph glyph-name="five" unicode="5" d="M69 114 q19 0 31 -14.5 q12 -14.5 12 -38.5 q0 -27 -12.5 -43 q-12.5 -16 -38.5 -16 q-18 0 -32 10.5 q-14 10.5 -14 25.5 q0 6 3.5 10.5 q3.5 4.5 9.5 4.5 q6 0 8 -4 q2 -4 2 -7 q0 -6 -3 -9.5 q-3 -3.5 -3 -7.5 q0 -8 9.5 -12 q9.5 -4 20.5 -4 q16 0 24.5 13 q8.5 13 8.5 37 q0 20 -7.5 32.5 q-7.5 12.5 -22.5 12.5 q-11 0 -19 -4 q-8 -4 -15 -17 l-9 1 l5 91 l82 0 l-3 -15 l-72 0 l-4 -66 q10 14 19.5 17 q9.5 3 19.5 3 Z" /><glyph glyph-name="six" unicode="6" d="M31 72 q0 -30 10.5 -46.5 q10.5 -16.5 25.5 -16.5 q15 0 23 11 q8 11 8 41 q0 20 -8.5 31 q-8.5 11 -20.5 11 q-11 0 -20.5 -6.5 q-9.5 -6.5 -17.5 -24.5 ZM70 113 q24 0 34.5 -16 q10.5 -16 10.5 -36 q0 -30 -14.5 -44.5 q-14.5 -14.5 -33.5 -14.5 q-27 0 -41 20.5 q-14 20.5 -14 59.5 q0 46 17 70.5 q17 24.5 46 24.5 q14 0 22.5 -8 q8.5 -8 8.5 -14 q0 -6 -2.5 -9 q-2.5 -3 -8.5 -3 q-5 0 -7.5 2.5 q-2.5 2.5 -2.5 7.5 q0 2 0.5 4 q0.5 2 0.5 4 q0 4 -3 6.5 q-3 2.5 -11 2.5 q-17 0 -29 -15.5 q-12 -15.5 -12 -67.5 q6 13 16.5 19.5 q10.5 6.5 22.5 6.5 Z" /><glyph glyph-name="seven" unicode="7" d="M113 168 q-21 -34 -33.5 -66.5 q-12.5 -32.5 -12.5 -56.5 q0 -4 0.5 -11.5 q0.5 -7.5 0.5 -17.5 q0 -8 -2.5 -11 q-2.5 -3 -8.5 -3 q-5 0 -8.5 3.5 q-3.5 3.5 -3.5 12.5 q0 19 8.5 47 q8.5 28 45.5 95 l-50 0 q-11 0 -17.5 -7 q-6.5 -7 -9.5 -21 l-6 1 l7 42 l90 0 l0 -7 Z" /><glyph glyph-name="eight" unicode="8" d="M25 45 q0 -16 10.5 -26 q10.5 -10 26.5 -10 q19 0 27.5 10 q8.5 10 8.5 25 q0 13 -12 25 q-12 12 -36 22 q-12 -8 -18.5 -20 q-6.5 -12 -6.5 -26 ZM113 47 q0 -19 -14 -32 q-14 -13 -37 -13 q-21 0 -36 13 q-15 13 -15 30 q0 17 8.5 29 q8.5 12 24.5 21 q-14 7 -21.5 17.5 q-7.5 10.5 -7.5 23.5 q0 17 13 29 q13 12 36 12 q21 0 34 -12 q13 -12 13 -29 q0 -12 -7.5 -22.5 q-7.5 -10.5 -23.5 -18.5 q17 -10 25 -22 q8 -12 8 -26 ZM97 135 q0 14 -8 24.5 q-8 10.5 -25 10.5 q-19 0 -27 -10 q-8 -10 -8 -21 q0 -11 11.5 -21.5 q11.5 -10.5 32.5 -18.5 q12 6 18 15 q6 9 6 21 Z" /><glyph glyph-name="nine" unicode="9" d="M28 122 q0 -22 8.5 -33.5 q8.5 -11.5 21.5 -11.5 q15 0 26 14 q11 14 11 26 q0 24 -8 38.5 q-8 14.5 -26 14.5 q-17 0 -25 -13.5 q-8 -13.5 -8 -34.5 ZM55 68 q-20 0 -32 12.5 q-12 12.5 -12 40.5 q0 24 13 40 q13 16 37 16 q25 0 39 -20 q14 -20 14 -58 q0 -42 -16.5 -69.5 q-16.5 -27.5 -45.5 -27.5 q-13 0 -22.5 6 q-9.5 6 -9.5 16 q0 4 2.5 8 q2.5 4 8.5 4 q6 0 8 -4.5 q2 -4.5 2 -10.5 q0 -4 1 -6.5 q1 -2.5 2 -3.5 q1 -1 3.5 -1.5 q2.5 -0.5 5.5 -0.5 q18 0 29 20 q11 20 13 67 q-5 -12 -15 -20 q-10 -8 -25 -8 Z" /><glyph glyph-name="colon" unicode=":" d="M76 109 q0 -6 -4 -10 q-4 -4 -10 -4 q-6 0 -10 4 q-4 4 -4 10 q0 6 4 10 q4 4 10 4 q6 0 10 -4 q4 -4 4 -10 ZM76 15 q0 -6 -4 -10 q-4 -4 -10 -4 q-6 0 -10 4 q-4 4 -4 10 q0 6 4 10 q4 4 10 4 q6 0 10 -4 q4 -4 4 -10 Z" /><glyph glyph-name="semicolon" unicode=";" d="M74 96 l-23 0 l0 22 l23 0 l0 -22 ZM74 4 l-13 -27 l-10 0 l10 27 l-10 0 l0 22 l23 0 l0 -22 Z" /><glyph glyph-name="less" unicode="&lt;" d="M16 92 l89 89 l6 -6 l-83 -83 l83 -83 l-6 -6 l-89 89 Z" /><glyph glyph-name="equal" unicode="=" d="M8 113 l0 9 l111 0 l0 -9 l-111 0 ZM8 62 l0 9 l111 0 l0 -9 l-111 0 Z" /><glyph glyph-name="greater" unicode="&gt;" d="M112 92 l-89 -89 l-6 6 l83 83 l-83 83 l6 6 l89 -89 Z" /><glyph glyph-name="question" unicode="?" d="M27 114 q-6 0 -10 4 q-4 4 -4 15 q0 18 15 32.5 q15 14.5 37 14.5 q22 0 36 -13 q14 -13 14 -34 q0 -11 -4 -20.5 q-4 -9.5 -18 -17.5 q-15 -9 -21.5 -14.5 q-6.5 -5.5 -6.5 -16.5 l0 -18 l-8 0 l0 20 q0 11 3.5 17.5 q3.5 6.5 12.5 12.5 q15 10 19.5 18 q4.5 8 4.5 20 q0 19 -8.5 28 q-8.5 9 -25.5 9 q-18 0 -28 -9.5 q-10 -9.5 -10 -18.5 q0 -3 1.5 -4.5 q1.5 -1.5 4.5 -3.5 q4 -2 5.5 -5 q1.5 -3 1.5 -7 q0 -5 -3 -7 q-3 -2 -8 -2 ZM76 15 q0 -6 -4 -10 q-4 -4 -10 -4 q-6 0 -10 4 q-4 4 -4 10 q0 6 4 10 q4 4 10 4 q6 0 10 -4 q4 -4 4 -10 Z" /><glyph glyph-name="at" unicode="@" d="M55 42 q-6 0 -11.5 8 q-5.5 8 -5.5 24 q0 22 12 46.5 q12 24.5 27 24.5 q4 0 6.5 -2 q2.5 -2 3.5 -6 l2 9 l11 0 l-9 -63 q-1 -8 -2 -14 q-1 -6 -1 -9 q0 -4 1.5 -6 q1.5 -2 3.5 -2 q8 0 14 14 q6 14 6 38 q0 40 -13.5 53 q-13.5 13 -28.5 13 q-18 0 -32.5 -18.5 q-14.5 -18.5 -14.5 -63.5 q0 -39 12 -58.5 q12 -19.5 32 -19.5 q15 0 26.5 8 q11.5 8 19.5 24 l7 -2 q-10 -20 -23 -29 q-13 -9 -30 -9 q-26 0 -42 24.5 q-16 24.5 -16 61.5 q0 41 18 65 q18 24 43 24 q21 0 36 -17 q15 -17 15 -55 q0 -30 -10 -46.5 q-10 -16.5 -22 -16.5 q-5 0 -8.5 4 q-3.5 4 -4.5 13 q-4 -9 -9.5 -13 q-5.5 -4 -12.5 -4 ZM59 50 q6 0 11 7 q5 7 8 21 l7 49 q1 6 -1.5 9 q-2.5 3 -6.5 3 q-7 0 -16.5 -20.5 q-9.5 -20.5 -9.5 -51.5 q0 -9 2 -13 q2 -4 6 -4 Z" /><glyph glyph-name="A" unicode="A" d="M81 68 l-45 0 l-9 -38 q-2 -9 0 -14.5 q2 -5.5 9 -5.5 l3 0 l0 -6 l-37 0 l0 6 l3 0 q4 0 7 2.5 q3 2.5 4 8.5 l39 153 l15 5 l38 -158 q2 -6 5 -8.5 q3 -2.5 7 -2.5 l3 0 l0 -6 l-43 0 l0 6 l4 0 q6 0 7.5 3.5 q1.5 3.5 -0.5 10.5 l-10 44 ZM60 157 l-1 0 l-21 -83 l42 0 l-20 83 Z" /><glyph glyph-name="B" unicode="B" d="M4 4 l0 6 l8 0 q5 0 7 2 q2 2 2 6 l0 143 q0 4 -2 6 q-2 2 -7 2 l-6 0 l0 6 l58 0 q24 0 35.5 -9.5 q11.5 -9.5 11.5 -29.5 q0 -14 -6 -23 q-6 -9 -25 -16 q23 -7 31 -20 q8 -13 8 -29 q0 -20 -14 -32 q-14 -12 -38 -12 l-63 0 ZM64 10 q17 0 26.5 10.5 q9.5 10.5 9.5 29.5 q0 22 -10 32.5 q-10 10.5 -30 10.5 l-23 0 l0 -75 q0 -4 2.5 -6 q2.5 -2 6.5 -2 l18 0 ZM94 136 q0 18 -10 25.5 q-10 7.5 -26 7.5 l-12 0 q-4 0 -6.5 -2 q-2.5 -2 -2.5 -6 l0 -62 l26 0 q11 0 21 9 q10 9 10 28 Z" /><glyph glyph-name="C" unicode="C" d="M69 2 q-28 0 -44.5 21 q-16.5 21 -16.5 66 q0 38 17.5 63 q17.5 25 47.5 25 q7 0 14 -2.5 q7 -2.5 12 -2.5 q4 0 6.5 1 q2.5 1 4.5 4 l9 -44 l-6 -2 q-6 19 -16 29 q-10 10 -26 10 q-21 0 -32.5 -23 q-11.5 -23 -11.5 -57 q0 -37 10 -58 q10 -21 33 -21 q16 0 27.5 11.5 q11.5 11.5 15.5 30.5 l6 -3 q-5 -21 -18.5 -34.5 q-13.5 -13.5 -31.5 -13.5 Z" /><glyph glyph-name="D" unicode="D" d="M100 91 q0 43 -13 60.5 q-13 17.5 -36 17.5 q-7 0 -10.5 -2 q-3.5 -2 -3.5 -6 l0 -143 q0 -4 3 -6 q3 -2 8 -2 q22 0 37 16.5 q15 16.5 15 64.5 ZM21 161 q0 4 -2 6 q-2 2 -7 2 l-6 0 l0 6 l45 0 q31 0 49.5 -20 q18.5 -20 18.5 -62 q0 -46 -18 -67.5 q-18 -21.5 -53 -21.5 l-43 0 l0 6 l7 0 q5 0 7 2 q2 2 2 6 l0 143 Z" /><glyph glyph-name="E" unicode="E" d="M8 169 l0 6 l98 0 l11 -34 l-5 -2 q-8 15 -17 22.5 q-9 7.5 -20 7.5 l-28 0 q-4 0 -6.5 -2 q-2.5 -2 -2.5 -6 l0 -62 l29 0 q10 0 14.5 5 q4.5 5 4.5 15 l0 6 l6 0 l0 -59 l-6 0 l0 4 q0 11 -4.5 17 q-4.5 6 -14.5 6 l-29 0 l0 -75 q0 -4 2.5 -6 q2.5 -2 6.5 -2 l26 0 q15 0 25.5 8.5 q10.5 8.5 16.5 26.5 l5 -2 l-11 -39 l-102 0 l0 6 l6 0 q5 0 7 2 q2 2 2 6 l0 143 q0 4 -2 6 q-2 2 -7 2 l-5 0 Z" /><glyph glyph-name="F" unicode="F" d="M54 10 l0 -6 l-48 0 l0 6 l7 0 q5 0 7 2 q2 2 2 6 l0 143 q0 4 -2 6 q-2 2 -7 2 l-6 0 l0 6 l104 0 l12 -36 l-5 -2 q-8 16 -19 24 q-11 8 -24 8 l-28 0 q-4 0 -6.5 -2 q-2.5 -2 -2.5 -6 l0 -64 l33 0 q10 0 14.5 4.5 q4.5 4.5 4.5 14.5 l0 5 l6 0 l0 -58 l-6 0 l0 4 q0 12 -4.5 18 q-4.5 6 -14.5 6 l-33 0 l0 -73 q0 -4 2.5 -6 q2.5 -2 6.5 -2 l7 0 Z" /><glyph glyph-name="G" unicode="G" d="M65 170 q-15 0 -27.5 -20.5 q-12.5 -20.5 -12.5 -62.5 q0 -28 9.5 -53 q9.5 -25 31.5 -25 q11 0 17.5 4.5 q6.5 4.5 7.5 13.5 l0 34 q0 6 -3 9 q-3 3 -9 3 l-6 0 l0 6 l50 0 l0 -6 l-5 0 q-5 0 -8 -3 q-3 -3 -3 -8 l0 -50 q-2 1 -3.5 1.5 q-1.5 0.5 -3.5 0.5 q-2 0 -4 -0.5 q-2 -0.5 -4 -2.5 q-6 -5 -12.5 -7 q-6.5 -2 -14.5 -2 q-30 0 -44 26.5 q-14 26.5 -14 58.5 q0 37 16.5 63.5 q16.5 26.5 41.5 26.5 q6 0 14 -3 q8 -3 10 -3 q3 0 6 1.5 q3 1.5 5 4.5 l8 -45 l-6 -2 q-6 21 -15 30.5 q-9 9.5 -22 9.5 Z" /><glyph glyph-name="H" unicode="H" d="M109 18 q0 -4 2.5 -6 q2.5 -2 6.5 -2 l5 0 l0 -6 l-44 0 l0 6 l5 0 q5 0 7 2 q2 2 2 6 l0 73 l-59 0 l0 -73 q0 -4 2.5 -6 q2.5 -2 6.5 -2 l5 0 l0 -6 l-44 0 l0 6 l5 0 q5 0 7 2 q2 2 2 6 l0 143 q0 4 -2 6 q-2 2 -7 2 l-4 0 l0 6 l42 0 l0 -6 l-4 0 q-4 0 -6.5 -2 q-2.5 -2 -2.5 -6 l0 -64 l59 0 l0 64 q0 4 -2 6 q-2 2 -7 2 l-4 0 l0 6 l42 0 l0 -6 l-4 0 q-4 0 -6.5 -2 q-2.5 -2 -2.5 -6 l0 -143 Z" /><glyph glyph-name="I" unicode="I" d="M24 169 l0 6 l80 0 l0 -6 l-23 0 q-4 0 -6.5 -2 q-2.5 -2 -2.5 -6 l0 -143 q0 -4 2.5 -6 q2.5 -2 6.5 -2 l23 0 l0 -6 l-80 0 l0 6 l23 0 q5 0 7 2 q2 2 2 6 l0 143 q0 4 -2 6 q-2 2 -7 2 l-23 0 Z" /><glyph glyph-name="J" unicode="J" d="M73 161 q0 4 -2 6 q-2 2 -7 2 l-24 0 l0 6 l82 0 l0 -6 l-24 0 q-4 0 -6.5 -2 q-2.5 -2 -2.5 -6 l0 -142 q0 -22 -14 -34.5 q-14 -12.5 -35 -12.5 q-15 0 -23 6 q-8 6 -8 14 q0 6 3.5 9 q3.5 3 7.5 3 q5 0 8 -3.5 q3 -3.5 3 -8.5 q0 -2 -0.5 -3.5 q-0.5 -1.5 -2.5 -3.5 q2 -3 6 -4.5 q4 -1.5 10 -1.5 q13 0 21 8.5 q8 8.5 8 31.5 l0 142 Z" /><glyph glyph-name="K" unicode="K" d="M123 4 l-43 0 l0 6 l3 0 q6 0 7 4 q1 4 -3 11 l-34 73 l-16 -23 l0 -57 q0 -4 2.5 -6 q2.5 -2 6.5 -2 l6 0 l0 -6 l-46 0 l0 6 l6 0 q5 0 7 2 q2 2 2 6 l0 143 q0 4 -2 6 q-2 2 -7 2 l-6 0 l0 6 l46 0 l0 -6 l-6 0 q-4 0 -6.5 -2 q-2.5 -2 -2.5 -6 l0 -73 l47 67 q5 7 3 10.5 q-2 3.5 -9 3.5 l-4 0 l0 6 l43 0 l0 -6 l-2 0 q-5 0 -10 -3 q-5 -3 -10 -9 l-32 -44 l43 -92 q3 -6 6.5 -8.5 q3.5 -2.5 5.5 -2.5 l5 0 l0 -6 Z" /><glyph glyph-name="L" unicode="L" d="M40 18 q0 -4 2.5 -6 q2.5 -2 6.5 -2 l27 0 q14 0 24 8.5 q10 8.5 15 26.5 l5 -2 l-9 -39 l-103 0 l0 6 l7 0 q5 0 7 2 q2 2 2 6 l0 143 q0 4 -2 6 q-2 2 -7 2 l-6 0 l0 6 l47 0 l0 -6 l-7 0 q-4 0 -6.5 -2 q-2.5 -2 -2.5 -6 l0 -143 Z" /><glyph glyph-name="M" unicode="M" d="M112 18 q0 -4 2.5 -6 q2.5 -2 6.5 -2 l4 0 l0 -6 l-43 0 l0 6 l5 0 q5 0 7 2 q2 2 2 6 l0 131 l-2 0 l-34 -145 l-6 0 l0 0 l-31 142 l-2 0 l0 -128 q0 -4 2.5 -6 q2.5 -2 6.5 -2 l3 0 l0 -6 l-30 0 l0 6 l3 0 q5 0 7 2 q2 2 2 6 l0 143 q0 4 -2 6 q-2 2 -7 2 l-4 0 l0 6 l29 0 l29 -134 l2 0 l31 134 l32 0 l0 -6 l-4 0 q-4 0 -6.5 -2 q-2.5 -2 -2.5 -6 l0 -143 Z" /><glyph glyph-name="N" unicode="N" d="M101 44 l2 0 l0 117 q0 4 -2 6 q-2 2 -7 2 l-8 0 l0 6 l40 0 l0 -6 l-8 0 q-4 0 -6.5 -2 q-2.5 -2 -2.5 -6 l0 -157 l-6 0 l0 0 l-76 149 l-2 0 l0 -135 q0 -4 2.5 -6 q2.5 -2 6.5 -2 l8 0 l0 -6 l-40 0 l0 6 l8 0 q5 0 7 2 q2 2 2 6 l0 143 q0 4 -2 6 q-2 2 -7 2 l-6 0 l0 6 l29 0 l68 -131 Z" /><glyph glyph-name="O" unicode="O" d="M28 90 q0 -43 10.5 -62.5 q10.5 -19.5 26.5 -19.5 q17 0 27 18.5 q10 18.5 10 63.5 q0 36 -8.5 58 q-8.5 22 -28.5 22 q-17 0 -27 -20 q-10 -20 -10 -60 ZM121 90 q0 -41 -16 -64.5 q-16 -23.5 -40 -23.5 q-23 0 -39.5 24 q-16.5 24 -16.5 64 q0 39 15.5 63 q15.5 24 40.5 24 q26 0 41 -25.5 q15 -25.5 15 -61.5 Z" /><glyph glyph-name="P" unicode="P" d="M38 84 l0 -66 q0 -4 2.5 -6 q2.5 -2 6.5 -2 l7 0 l0 -6 l-48 0 l0 6 l7 0 q5 0 7 2 q2 2 2 6 l0 143 q0 4 -2 6 q-2 2 -7 2 l-6 0 l0 6 l59 0 q25 0 38.5 -12.5 q13.5 -12.5 13.5 -31.5 q0 -23 -14.5 -35 q-14.5 -12 -34.5 -12 l-31 0 ZM63 90 q15 0 26.5 9 q11.5 9 11.5 31 q0 20 -9.5 29.5 q-9.5 9.5 -30.5 9.5 l-14 0 q-4 0 -6.5 -2 q-2.5 -2 -2.5 -6 l0 -71 l25 0 Z" /><glyph glyph-name="Q" unicode="Q" d="M74 11 q-3 15 -7 24.5 q-4 9.5 -12 9.5 q-4 0 -9.5 -4 q-5.5 -4 -5.5 -13 q0 -7 7 -12.5 q7 -5.5 17 -5.5 q4 0 6.5 0 q2.5 0 3.5 1 ZM57 55 q12 0 18.5 -8.5 q6.5 -8.5 11.5 -25.5 q7 5 10.5 22.5 q3.5 17.5 3.5 46.5 q0 39 -8.5 59.5 q-8.5 20.5 -28.5 20.5 q-17 0 -27 -20 q-10 -20 -10 -60 q0 -20 1.5 -33.5 q1.5 -13.5 4.5 -19.5 q4 9 9 13.5 q5 4.5 15 4.5 ZM64 3 q-22 0 -39 20 q-17 20 -17 67 q0 40 15 63.5 q15 23.5 41 23.5 q24 0 40 -22.5 q16 -22.5 16 -64.5 q0 -35 -8.5 -53 q-8.5 -18 -20.5 -27 q2 -7 5 -10 q3 -3 6 -3 q4 0 7 2 q3 2 4 7 l4 -2 q-3 -12 -8 -17.5 q-5 -5.5 -12 -5.5 q-5 0 -9.5 3 q-4.5 3 -11.5 20 q-1 -1 -4 -1 q-3 0 -8 0 Z" /><glyph glyph-name="R" unicode="R" d="M113 135 q0 -20 -11 -31 q-11 -11 -25 -13 l30 -74 q2 -4 4.5 -5.5 q2.5 -1.5 5.5 -1.5 l6 0 l0 -6 l-28 0 l-33 86 l-23 0 l0 -72 q0 -4 2.5 -6 q2.5 -2 6.5 -2 l6 0 l0 -6 l-46 0 l0 6 l6 0 q5 0 7 2 q2 2 2 6 l0 143 q0 4 -2 6 q-2 2 -7 2 l-6 0 l0 6 l57 0 q23 0 35.5 -10 q12.5 -10 12.5 -30 ZM39 96 l22 0 q15 0 25 9 q10 9 10 28 q0 17 -9 26.5 q-9 9.5 -28 9.5 l-11 0 q-4 0 -6.5 -2 q-2.5 -2 -2.5 -6 l0 -65 Z" /><glyph glyph-name="S" unicode="S" d="M60 86 q-27 12 -37 21 q-10 9 -10 28 q0 15 12.5 28.5 q12.5 13.5 35.5 13.5 q10 0 19 -3.5 q9 -3.5 13 -3.5 q3 0 5.5 1.5 q2.5 1.5 4.5 5.5 l4 -41 l-5 -2 q-9 21 -18.5 28.5 q-9.5 7.5 -24.5 7.5 q-19 0 -26 -10.5 q-7 -10.5 -7 -22.5 q0 -11 6.5 -17.5 q6.5 -6.5 35.5 -19.5 q24 -10 34.5 -22.5 q10.5 -12.5 10.5 -29.5 q0 -18 -12.5 -32 q-12.5 -14 -36.5 -14 q-10 0 -18.5 3.5 q-8.5 3.5 -13.5 3.5 q-3 0 -6 -2 q-3 -2 -7 -5 l-8 49 l6 2 q7 -25 19.5 -34.5 q12.5 -9.5 28.5 -9.5 q17 0 25.5 10 q8.5 10 8.5 29 q0 10 -9.5 19.5 q-9.5 9.5 -29.5 18.5 Z" /><glyph glyph-name="T" unicode="T" d="M89 4 l-52 0 l0 6 l9 0 q5 0 7 2 q2 2 2 6 l0 140 q0 8 -1 9 q-1 1 -8 1 q-14 0 -19.5 -5 q-5.5 -5 -13.5 -27 l-6 1 l9 38 l95 0 l8 -38 l-5 -1 q-8 21 -12.5 26.5 q-4.5 5.5 -18.5 5.5 q-10 0 -11 -1 q-1 -1 -1 -10 l0 -139 q0 -4 2.5 -6 q2.5 -2 6.5 -2 l9 0 l0 -6 Z" /><glyph glyph-name="U" unicode="U" d="M65 10 q15 0 25.5 10 q10.5 10 10.5 25 l0 116 q0 4 -2 6 q-2 2 -7 2 l-6 0 l0 6 l36 0 l0 -6 l-6 0 q-4 0 -6.5 -2 q-2.5 -2 -2.5 -6 l0 -116 q0 -20 -13.5 -31.5 q-13.5 -11.5 -30.5 -11.5 q-18 0 -31.5 10 q-13.5 10 -13.5 32 l0 117 q0 4 -2 6 q-2 2 -7 2 l-5 0 l0 6 l44 0 l0 -6 l-5 0 q-4 0 -6.5 -2 q-2.5 -2 -2.5 -6 l0 -117 q0 -20 8.5 -27 q8.5 -7 22.5 -7 Z" /><glyph glyph-name="V" unicode="V" d="M85 169 l0 6 l36 0 l0 -6 l-4 0 q-4 0 -7.5 -3 q-3.5 -3 -5.5 -11 l-41 -151 l-6 0 l-37 151 q-1 7 -3.5 10.5 q-2.5 3.5 -7.5 3.5 l-5 0 l0 6 l43 0 l0 -6 l-4 0 q-5 0 -6.5 -3 q-1.5 -3 -0.5 -8 l28 -117 l2 0 l30 114 q2 7 0 10.5 q-2 3.5 -8 3.5 l-3 0 Z" /><glyph glyph-name="W" unicode="W" d="M126 175 l0 -6 l-4 0 q-2 0 -4.5 -2 q-2.5 -2 -3.5 -7 l-27 -156 l-6 0 l-16 106 l-2 0 l-21 -106 l-6 0 l-24 157 q0 4 -1.5 6 q-1.5 2 -4.5 2 l-4 0 l0 6 l35 0 l0 -6 l-3 0 q-4 0 -6 -2 q-2 -2 -2 -6 l16 -110 l2 0 l17 83 l-3 27 q0 4 -2.5 6 q-2.5 2 -4.5 2 l-3 0 l0 6 l34 0 l0 -6 l-3 0 q-4 0 -5.5 -2 q-1.5 -2 -1.5 -6 l15 -107 l2 0 l18 105 q1 5 -1.5 7.5 q-2.5 2.5 -6.5 2.5 l-3 0 l0 6 l30 0 Z" /><glyph glyph-name="X" unicode="X" d="M70 96 l35 -75 q3 -6 6.5 -8.5 q3.5 -2.5 7.5 -2.5 l3 0 l0 -6 l-43 0 l0 6 l4 0 q5 0 6.5 2.5 q1.5 2.5 -0.5 6.5 l-27 59 l-23 -48 q-2 -5 -3.5 -8.5 q-1.5 -3.5 -1.5 -4.5 q0 -4 2.5 -5.5 q2.5 -1.5 6.5 -1.5 l2 0 l0 -6 l-38 0 l0 6 l4 0 q5 0 9 3 q4 3 6 7 l32 68 l-34 74 q-1 3 -3.5 5 q-2.5 2 -6.5 2 l-4 0 l0 6 l41 0 l0 -6 l-3 0 q-6 0 -7 -3 q-1 -3 1 -9 l24 -53 l24 51 q3 7 2 10.5 q-1 3.5 -7 3.5 l-6 0 l0 6 l39 0 l0 -6 l-6 0 q-2 0 -5 -2 q-3 -2 -6 -6 l-31 -65 Z" /><glyph glyph-name="Y" unicode="Y" d="M95 157 q1 6 -1.5 9 q-2.5 3 -9.5 3 l-2 0 l0 6 l39 0 l0 -6 l-3 0 q-5 0 -9 -3.5 q-4 -3.5 -7 -10.5 l-31 -79 l0 -58 q0 -4 2.5 -6 q2.5 -2 6.5 -2 l9 0 l0 -6 l-52 0 l0 6 l9 0 q5 0 7 2 q2 2 2 6 l0 52 l-34 88 q-2 5 -5 8 q-3 3 -8 3 l-2 0 l0 6 l44 0 l0 -6 l-6 0 q-6 0 -7 -3 q-1 -3 1 -9 l27 -74 l2 0 l28 74 Z" /><glyph glyph-name="Z" unicode="Z" d="M72 10 q13 0 22.5 8.5 q9.5 8.5 15.5 25.5 l6 -1 l-11 -39 l-96 0 l88 165 l-35 0 q-13 0 -23.5 -7.5 q-10.5 -7.5 -18.5 -22.5 l-6 2 l12 34 l91 0 l-88 -165 l43 0 Z" /><glyph glyph-name="bracketleft" unicode="[" d="M110 203 l0 -9 l-50 0 l0 -204 l50 0 l0 -9 l-60 0 l0 222 l60 0 Z" /><glyph glyph-name="backslash" unicode="\" d="M19 186 l12 0 l85 -213 l-12 0 l-85 213 Z" /><glyph glyph-name="bracketright" unicode="]" d="M77 -19 l-60 0 l0 9 l50 0 l0 204 l-50 0 l0 9 l60 0 l0 -222 Z" /><glyph glyph-name="asciicircum" unicode="^" d="M76 207 l21 -27 l-2 -2 l-31 20 l-32 -20 l-2 2 l22 27 l24 0 Z" /><glyph glyph-name="underscore" unicode="_" d="M0 -35 l0 6 l127 0 l0 -6 l-127 0 Z" /><glyph glyph-name="grave" unicode="`" d="M50 207 l22 -22 l-1 -4 l-50 23 l2 3 l27 0 Z" /><glyph glyph-name="a" unicode="a" d="M49 3 q-18 0 -28 8.5 q-10 8.5 -10 19.5 q0 18 15.5 29.5 q15.5 11.5 61.5 16.5 l0 12 q0 10 -4.5 16.5 q-4.5 6.5 -20.5 6.5 q-17 0 -24 -5.5 q-7 -5.5 -5 -11.5 q2 -4 0 -8 q-2 -4 -8 -4 q-4 0 -6.5 2.5 q-2.5 2.5 -2.5 7.5 q0 9 13 17 q13 8 32 8 q20 0 30 -7.5 q10 -7.5 10 -21.5 l0 -66 q0 -8 1.5 -9.5 q1.5 -1.5 5.5 -1.5 q5 0 7 4.5 q2 4.5 2 12.5 l5 0 q0 -14 -5 -19.5 q-5 -5.5 -13 -5.5 q-7 0 -11 3 q-4 3 -6 10 q-10 -7 -18.5 -10.5 q-8.5 -3.5 -20.5 -3.5 ZM28 34 q0 -9 5.5 -16.5 q5.5 -7.5 17.5 -7.5 q9 0 18 3.5 q9 3.5 19 10.5 l0 47 q-34 -4 -47 -13.5 q-13 -9.5 -13 -23.5 Z" /><glyph glyph-name="b" unicode="b" d="M35 93 q5 11 16 17.5 q11 6.5 21 6.5 q21 0 31.5 -14.5 q10.5 -14.5 10.5 -42.5 q0 -28 -13.5 -42.5 q-13.5 -14.5 -33.5 -14.5 q-10 0 -18.5 3.5 q-8.5 3.5 -14.5 9.5 l-9 -12 l-4 0 l0 157 q0 4 -2 6 q-2 2 -7 2 l-6 0 l0 6 l9 0 q5 0 10 2 q5 2 10 6 l0 -90 ZM35 37 q0 -11 7.5 -19 q7.5 -8 22.5 -8 q18 0 25.5 12.5 q7.5 12.5 7.5 37.5 q0 24 -6.5 36.5 q-6.5 12.5 -20.5 12.5 q-12 0 -21 -7 q-9 -7 -15 -25 l0 -40 Z" /><glyph glyph-name="c" unicode="c" d="M86 89 q0 3 0.5 4 q0.5 1 1.5 4 q1 4 -4 9.5 q-5 5.5 -17 5.5 q-15 0 -25.5 -14.5 q-10.5 -14.5 -10.5 -38.5 q0 -22 9 -35.5 q9 -13.5 30 -13.5 q14 0 23.5 9 q9.5 9 13.5 21 l5 -2 q-4 -15 -15 -25.5 q-11 -10.5 -30 -10.5 q-24 0 -38 15 q-14 15 -14 43 q0 25 15 41.5 q15 16.5 39 16.5 q17 0 26.5 -9 q9.5 -9 9.5 -18 q0 -6 -2.5 -8.5 q-2.5 -2.5 -7.5 -2.5 q-4 0 -6.5 2.5 q-2.5 2.5 -2.5 6.5 Z" /><glyph glyph-name="d" unicode="d" d="M92 94 q-5 8 -13 11.5 q-8 3.5 -16 3.5 q-15 0 -23.5 -14 q-8.5 -14 -8.5 -37 q0 -24 8 -35.5 q8 -11.5 23 -11.5 q11 0 18.5 7 q7.5 7 11.5 21 l0 55 ZM59 3 q-18 0 -31 14.5 q-13 14.5 -13 42.5 q0 26 14 41.5 q14 15.5 33 15.5 q8 0 16.5 -3.5 q8.5 -3.5 13.5 -10.5 l0 54 q0 6 -2 9 q-2 3 -7 3 l-8 0 l0 6 l11 0 q5 0 10 2 q5 2 10 6 l0 -158 q0 -5 2 -7 q2 -2 6 -2 l7 0 l0 -6 l-6 0 q-4 0 -9.5 -1.5 q-5.5 -1.5 -11.5 -4.5 l-2 0 l0 19 q-5 -9 -13.5 -14.5 q-8.5 -5.5 -19.5 -5.5 Z" /><glyph glyph-name="e" unicode="e" d="M96 66 q1 22 -7.5 33.5 q-8.5 11.5 -22.5 11.5 q-15 0 -24.5 -12 q-9.5 -12 -9.5 -33 l64 0 ZM32 60 q0 -27 10.5 -38.5 q10.5 -11.5 27.5 -11.5 q13 0 22 7.5 q9 7.5 13 18.5 l5 -2 q-3 -11 -13.5 -21.5 q-10.5 -10.5 -28.5 -10.5 q-23 0 -37.5 15 q-14.5 15 -14.5 43 q0 25 14.5 41.5 q14.5 16.5 35.5 16.5 q19 0 33 -13 q14 -13 14 -45 l-81 0 Z" /><glyph glyph-name="f" unicode="f" d="M45 133 q0 21 13 31.5 q13 10.5 29 10.5 q17 0 25.5 -6 q8.5 -6 8.5 -14 q0 -4 -2 -7 q-2 -3 -8 -3 q-4 0 -6.5 2 q-2.5 2 -2.5 7 q0 1 0.5 3 q0.5 2 0.5 3 q0 4 -3 6.5 q-3 2.5 -14 2.5 q-12 0 -19.5 -7.5 q-7.5 -7.5 -7.5 -25.5 l0 -20 l42 0 l0 -6 l-42 0 l0 -92 q0 -4 2.5 -6 q2.5 -2 6.5 -2 l24 0 l0 -6 l-73 0 l0 6 l17 0 q5 0 7 2 q2 2 2 6 l0 92 l-31 0 l0 6 l31 0 l0 17 Z" /><glyph glyph-name="g" unicode="g" d="M35 79 q0 -12 7 -20.5 q7 -8.5 19 -8.5 q13 0 19.5 7.5 q6.5 7.5 6.5 21.5 q0 17 -7.5 24.5 q-7.5 7.5 -18.5 7.5 q-11 0 -18.5 -7.5 q-7.5 -7.5 -7.5 -24.5 ZM84 25 q15 -2 22 -8.5 q7 -6.5 7 -17.5 q0 -15 -12.5 -24 q-12.5 -9 -39.5 -9 q-21 0 -34 8.5 q-13 8.5 -13 19.5 q0 7 5 14 q5 7 16 11 q-6 3 -9.5 6.5 q-3.5 3.5 -3.5 8.5 q0 6 4 10.5 q4 4.5 10 7.5 q-6 5 -10.5 12 q-4.5 7 -4.5 15 q0 15 10.5 26.5 q10.5 11.5 29.5 11.5 q8 0 15.5 -2 q7.5 -2 12.5 -7 q7 5 12.5 7.5 q5.5 2.5 9.5 2.5 q5 0 7 -3.5 q2 -3.5 2 -6.5 q0 -4 -1.5 -6.5 q-1.5 -2.5 -5.5 -2.5 q-3 0 -5 1.5 q-2 1.5 -3 4.5 q-1 3 -4.5 2.5 q-3.5 -0.5 -7.5 -3.5 q4 -4 6 -11 q2 -7 2 -14 q0 -12 -9.5 -23.5 q-9.5 -11.5 -30.5 -11.5 q-6 0 -11 1.5 q-5 1.5 -8 3.5 q-4 -2 -6 -5 q-2 -3 -2 -5 q0 -4 2 -6 q2 -2 6 -2 q13 -2 23.5 -3.5 q10.5 -1.5 18.5 -2.5 ZM43 17 q-9 -4 -12.5 -9.5 q-3.5 -5.5 -3.5 -13.5 q0 -8 9 -15 q9 -7 27 -7 q17 0 27 5.5 q10 5.5 10 16.5 q0 7 -2.5 11 q-2.5 4 -7.5 5 q-10 2 -22 3.5 q-12 1.5 -25 3.5 Z" /><glyph glyph-name="h" unicode="h" d="M8 4 l0 6 l5 0 q5 0 7 2 q2 2 2 6 l0 143 q0 4 -2 6 q-2 2 -7 2 l-6 0 l0 6 l11 0 q4 0 8 2 q4 2 8 6 l2 0 l0 -85 q9 11 18.5 15.5 q9.5 4.5 20.5 4.5 q15 0 23 -8.5 q8 -8.5 8 -26.5 l0 -65 q0 -4 2.5 -6 q2.5 -2 6.5 -2 l5 0 l0 -6 l-42 0 l0 6 l5 0 q5 0 7 2 q2 2 2 6 l0 63 q0 17 -5.5 22.5 q-5.5 5.5 -14.5 5.5 q-8 0 -17.5 -5 q-9.5 -5 -18.5 -17 l0 -69 q0 -4 2.5 -6 q2.5 -2 6.5 -2 l5 0 l0 -6 l-42 0 Z" /><glyph glyph-name="i" unicode="i" d="M57 101 q0 4 -2 6.5 q-2 2.5 -7 2.5 l-21 0 l0 6 l10 0 q9 0 17 1.5 q8 1.5 15 5.5 l2 0 l0 -105 q0 -4 2.5 -6 q2.5 -2 6.5 -2 l21 0 l0 -6 l-74 0 l0 6 l21 0 q5 0 7 2 q2 2 2 6 l0 83 ZM65 177 q5 0 9 -3.5 q4 -3.5 4 -8.5 q0 -5 -4 -9 q-4 -4 -9 -4 q-5 0 -9 4 q-4 4 -4 9 q0 5 4 8.5 q4 3.5 9 3.5 Z" /><glyph glyph-name="j" unicode="j" d="M99 14 q0 -23 -14 -35 q-14 -12 -34 -12 q-16 0 -23.5 5 q-7.5 5 -7.5 12 q0 4 2.5 6.5 q2.5 2.5 7.5 2.5 q5 0 6.5 -3 q1.5 -3 2.5 -6 q2 -6 5 -7.5 q3 -1.5 10 -1.5 q16 0 23.5 8.5 q7.5 8.5 7.5 26.5 l0 91 q0 4 -2 6.5 q-2 2.5 -7 2.5 l-20 0 l0 6 l9 0 q9 0 17 1.5 q8 1.5 15 5.5 l2 0 l0 -109 ZM91 177 q6 0 9.5 -3.5 q3.5 -3.5 3.5 -8.5 q0 -5 -3.5 -9 q-3.5 -4 -9.5 -4 q-5 0 -9 4 q-4 4 -4 9 q0 5 4 8.5 q4 3.5 9 3.5 Z" /><glyph glyph-name="k" unicode="k" d="M67 76 l38 -59 q3 -4 5.5 -5.5 q2.5 -1.5 5.5 -1.5 l4 0 l0 -6 l-41 0 l0 6 l3 0 q5 0 7 1.5 q2 1.5 -1 5.5 l-31 49 l-20 -21 l0 -27 q0 -4 2.5 -6 q2.5 -2 6.5 -2 l5 0 l0 -6 l-42 0 l0 6 l5 0 q5 0 7 2 q2 2 2 6 l0 143 q0 4 -2 6 q-2 2 -7 2 l-6 0 l0 6 l9 0 q6 0 10.5 2 q4.5 2 7.5 6 l2 0 l0 -127 l42 45 q2 4 1.5 6.5 q-0.5 2.5 -4.5 2.5 l-6 0 l0 6 l42 0 l0 -6 l-5 0 q-3 0 -7.5 -1.5 q-4.5 -1.5 -8.5 -5.5 l-24 -27 Z" /><glyph glyph-name="l" unicode="l" d="M37 175 q9 0 17 2 q8 2 15 6 l2 0 l0 -165 q0 -4 2.5 -6 q2.5 -2 6.5 -2 l23 0 l0 -6 l-78 0 l0 6 l23 0 q5 0 7 2 q2 2 2 6 l0 143 q0 4 -2 6 q-2 2 -7 2 l-22 0 l0 6 l11 0 Z" /><glyph glyph-name="m" unicode="m" d="M7 116 q5 0 10 1 q5 1 8 3 l2 0 l0 -17 q5 8 11 11.5 q6 3.5 13 3.5 q9 0 14 -3.5 q5 -3.5 6 -11.5 q5 8 11.5 11.5 q6.5 3.5 13.5 3.5 q12 0 16.5 -7 q4.5 -7 4.5 -18 l0 -76 q0 -4 2 -5.5 q2 -1.5 6 -1.5 l2 0 l0 -6 l-34 0 l0 6 l2 0 q4 0 6 1.5 q2 1.5 2 5.5 l0 75 q0 11 -2.5 14.5 q-2.5 3.5 -7.5 3.5 q-7 0 -12.5 -5 q-5.5 -5 -8.5 -14 l0 -74 q0 -4 2 -5.5 q2 -1.5 6 -1.5 l2 0 l0 -6 l-34 0 l0 6 l2 0 q4 0 6 1.5 q2 1.5 2 5.5 l0 75 q0 9 -2 13.5 q-2 4.5 -8 4.5 q-7 0 -12.5 -5 q-5.5 -5 -8.5 -15 l0 -73 q0 -4 2 -5.5 q2 -1.5 6 -1.5 l2 0 l0 -6 l-34 0 l0 6 l2 0 q4 0 6 1.5 q2 1.5 2 5.5 l0 87 q0 3 -1 4.5 q-1 1.5 -4 1.5 l-4 0 l0 6 l3 0 Z" /><glyph glyph-name="n" unicode="n" d="M8 4 l0 6 l5 0 q5 0 7 2 q2 2 2 6 l0 86 q0 3 -1 4.5 q-1 1.5 -4 1.5 l-8 0 l0 6 l7 0 q5 0 9.5 1 q4.5 1 8.5 4 l2 0 l0 -23 q9 10 18 15 q9 5 19 5 q17 0 25 -9 q8 -9 8 -27 l0 -64 q0 -4 2.5 -6 q2.5 -2 6.5 -2 l5 0 l0 -6 l-42 0 l0 6 l5 0 q5 0 7 2 q2 2 2 6 l0 67 q0 12 -5 18.5 q-5 6.5 -15 6.5 q-9 0 -18.5 -6 q-9.5 -6 -17.5 -17 l0 -69 q0 -4 2.5 -6 q2.5 -2 6.5 -2 l5 0 l0 -6 l-42 0 Z" /><glyph glyph-name="o" unicode="o" d="M116 60 q0 -25 -15 -41.5 q-15 -16.5 -37 -16.5 q-23 0 -37.5 17 q-14.5 17 -14.5 41 q0 22 14.5 40 q14.5 18 37.5 18 q24 0 38 -18 q14 -18 14 -40 ZM28 59 q0 -26 10.5 -38.5 q10.5 -12.5 25.5 -12.5 q17 0 26.5 13.5 q9.5 13.5 9.5 37.5 q0 26 -10.5 39.5 q-10.5 13.5 -25.5 13.5 q-14 0 -25 -13.5 q-11 -13.5 -11 -39.5 Z" /><glyph glyph-name="p" unicode="p" d="M46 -27 l7 0 l0 -6 l-46 0 l0 6 l6 0 q5 0 7 2 q2 2 2 7 l0 118 q0 4 -2 6.5 q-2 2.5 -7 2.5 l-6 0 l0 6 l9 0 q5 0 9.5 1 q4.5 1 8.5 4 l2 0 l0 -23 q7 10 15.5 15 q8.5 5 18.5 5 q20 0 33 -13.5 q13 -13.5 13 -42.5 q0 -28 -14 -43 q-14 -15 -33 -15 q-11 0 -18.5 3.5 q-7.5 3.5 -14.5 10.5 l0 -35 q0 -5 3 -7 q3 -2 7 -2 ZM36 30 q5 -10 12.5 -15 q7.5 -5 17.5 -5 q14 0 24 12.5 q10 12.5 10 38.5 q0 24 -7.5 36 q-7.5 12 -22.5 12 q-9 0 -18 -5.5 q-9 -5.5 -16 -17.5 l0 -56 Z" /><glyph glyph-name="q" unicode="q" d="M91 90 q-4 9 -11 14.5 q-7 5.5 -17 5.5 q-14 0 -24 -12 q-10 -12 -10 -41 q0 -25 8.5 -35.5 q8.5 -10.5 21.5 -10.5 q11 0 19.5 5 q8.5 5 12.5 17 l0 57 ZM105 -18 q0 -5 2.5 -7 q2.5 -2 6.5 -2 l6 0 l0 -6 l-46 0 l0 6 l8 0 q5 0 7 2 q2 2 2 7 l0 37 q-6 -8 -14.5 -12 q-8.5 -4 -20.5 -4 q-17 0 -30 14.5 q-13 14.5 -13 42.5 q0 27 15 42 q15 15 32 15 q11 0 18.5 -4 q7.5 -4 13.5 -10 l9 13 l4 0 l0 -134 Z" /><glyph glyph-name="r" unicode="r" d="M51 85 q10 16 21.5 24.5 q11.5 8.5 23.5 8.5 q10 0 15.5 -4.5 q5.5 -4.5 5.5 -10.5 q0 -5 -2.5 -8 q-2.5 -3 -7.5 -3 q-5 0 -7.5 3 q-2.5 3 -1.5 8 q0 3 -1 5 q-1 2 -6 2 q-8 0 -19.5 -10 q-11.5 -10 -20.5 -28 l0 -54 q0 -4 2.5 -6 q2.5 -2 6.5 -2 l22 0 l0 -6 l-74 0 l0 6 l20 0 q5 0 7 2 q2 2 2 6 l0 83 q0 4 -2 6.5 q-2 2.5 -7 2.5 l-19 0 l0 6 l8 0 q7 0 16.5 1.5 q9.5 1.5 14.5 3.5 l3 0 l0 -36 Z" /><glyph glyph-name="s" unicode="s" d="M25 87 q0 15 11.5 23 q11.5 8 27.5 8 q9 0 17 -2.5 q8 -2.5 11 -2.5 q3 0 5 1 q2 1 5 4 l4 -33 l-6 -1 q-4 13 -13.5 20.5 q-9.5 7.5 -21.5 7.5 q-13 0 -20.5 -5 q-7.5 -5 -7.5 -14 q0 -8 3.5 -12.5 q3.5 -4.5 12.5 -6.5 q7 -3 17.5 -6.5 q10.5 -3.5 19.5 -7.5 q8 -4 13.5 -10.5 q5.5 -6.5 5.5 -14.5 q0 -15 -10.5 -23.5 q-10.5 -8.5 -30.5 -8.5 q-13 0 -19.5 2.5 q-6.5 2.5 -10.5 2.5 q-3 0 -6.5 -1.5 q-3.5 -1.5 -7.5 -3.5 l-3 37 l6 1 q3 -16 13 -24 q10 -8 28 -8 q14 0 21.5 5 q7.5 5 7.5 15 q0 7 -4 11.5 q-4 4.5 -8 6.5 q-10 4 -22 8.5 q-12 4.5 -21 8.5 q-9 4 -13 10 q-4 6 -4 13 Z" /><glyph glyph-name="t" unicode="t" d="M60 36 q0 -14 5 -19 q5 -5 15 -5 q10 0 16 6.5 q6 6.5 8 18.5 l5 -2 q-2 -14 -10.5 -23 q-8.5 -9 -22.5 -9 q-15 0 -22.5 9 q-7.5 9 -7.5 28 l0 70 l-30 0 l0 6 l8 0 q12 0 19.5 7.5 q7.5 7.5 9.5 23.5 l1 8 l6 0 l0 -39 l40 0 l0 -6 l-40 0 l0 -74 Z" /><glyph glyph-name="u" unicode="u" d="M58 13 q12 0 20.5 6 q8.5 6 12.5 19 l0 63 q0 4 -2 6.5 q-2 2.5 -7 2.5 l-6 0 l0 6 l6 0 q6 0 11 1 q5 1 10 5 l2 0 l0 -98 q0 -4 2.5 -6 q2.5 -2 6.5 -2 l6 0 l0 -6 l-6 0 q-5 0 -10 -1.5 q-5 -1.5 -11 -4.5 l-2 0 l0 21 q-5 -11 -15 -16.5 q-10 -5.5 -23 -5.5 q-16 0 -24 9 q-8 9 -8 29 l0 60 q0 4 -2 6.5 q-2 2.5 -7 2.5 l-6 0 l0 6 l6 0 q6 0 11 1 q5 1 10 5 l2 0 l0 -83 q0 -14 6 -20 q6 -6 17 -6 Z" /><glyph glyph-name="v" unicode="v" d="M65 3 l-6 0 l-34 98 q-1 4 -4 6.5 q-3 2.5 -7 2.5 l-5 0 l0 6 l43 0 l0 -6 l-4 0 q-6 0 -7.5 -3 q-1.5 -3 0.5 -10 l24 -70 l2 0 l24 69 q3 7 0.5 10.5 q-2.5 3.5 -8.5 3.5 l-2 0 l0 6 l36 0 l0 -6 l-2 0 q-6 0 -9.5 -3.5 q-3.5 -3.5 -6.5 -10.5 l-34 -93 Z" /><glyph glyph-name="w" unicode="w" d="M93 116 l34 0 l0 -6 l-4 0 q-4 0 -7 -3 q-3 -3 -5 -10 l-24 -94 l-6 0 l-18 76 l-19 -76 l-6 0 l-23 92 q-1 7 -4 11 q-3 4 -6 4 l-4 0 l0 6 l36 0 l0 -6 l-4 0 q-4 0 -5 -3.5 q-1 -3.5 0 -9.5 l15 -65 l2 0 l15 60 q-1 9 -4 13.5 q-3 4.5 -7 4.5 l-3 0 l0 6 l34 0 l0 -6 l-3 0 q-4 0 -5 -3.5 q-1 -3.5 0 -9.5 l15 -65 l1 0 l17 70 q1 4 -1 6 q-2 2 -6 2 l-5 0 l0 6 Z" /><glyph glyph-name="x" unicode="x" d="M67 73 l18 27 q3 4 2.5 7 q-0.5 3 -7.5 3 l-6 0 l0 6 l39 0 l0 -6 l-5 0 q-2 0 -5 -0.5 q-3 -0.5 -5 -3.5 l-27 -40 l28 -46 q3 -5 7.5 -7.5 q4.5 -2.5 6.5 -2.5 l4 0 l0 -6 l-44 0 l0 6 l6 0 q6 0 6.5 3 q0.5 3 -1.5 7 l-21 34 l-24 -35 q-1 -5 0.5 -7 q1.5 -2 5.5 -2 l3 0 l0 -6 l-39 0 l0 6 l6 0 q4 0 9 3 q5 3 8 9 l26 39 l-26 42 q-1 2 -4 4.5 q-3 2.5 -8 2.5 l-5 0 l0 6 l43 0 l0 -6 l-3 0 q-5 0 -6 -3 q-1 -3 1 -7 l17 -27 Z" /><glyph glyph-name="y" unicode="y" d="M66 32 l2 0 l22 67 q2 5 -0.5 8 q-2.5 3 -6.5 3 l-6 0 l0 6 l42 0 l0 -6 l-6 0 q-4 0 -8 -3 q-4 -3 -6 -8 l-34 -99 q-5 -15 -12.5 -23.5 q-7.5 -8.5 -19.5 -8.5 q-7 0 -11 2.5 q-4 2.5 -4 7.5 q0 3 2.5 6 q2.5 3 7.5 3 q4 0 8 -3.5 q4 -3.5 6 -3.5 q3 0 5 1 q2 1 3 4 q3 5 6 12.5 q3 7.5 5 15.5 l-34 88 q-1 4 -4.5 6.5 q-3.5 2.5 -7.5 2.5 l-4 0 l0 6 l42 0 l0 -6 l-4 0 q-4 0 -6 -2.5 q-2 -2.5 -1 -7.5 l24 -68 Z" /><glyph glyph-name="z" unicode="z" d="M110 43 l-7 -39 l-86 0 l0 5 l69 101 l-37 0 q-9 0 -15 -6.5 q-6 -6.5 -10 -22.5 l-6 1 l4 34 l82 0 l0 -3 l-70 -103 l38 0 q13 0 20.5 8 q7.5 8 11.5 26 l6 -1 Z" /><glyph glyph-name="braceleft" unicode="{" d="M85 14 q0 -13 5.5 -20.5 q5.5 -7.5 18.5 -7.5 l0 -7 q-17 0 -25 8.5 q-8 8.5 -8 30.5 l0 43 q0 12 -4 19.5 q-4 7.5 -18 8.5 l0 6 q13 2 17.5 8 q4.5 6 4.5 20 l0 43 q0 22 8 30.5 q8 8.5 25 8.5 l0 -7 q-13 0 -18.5 -7 q-5.5 -7 -5.5 -21 l0 -49 q0 -16 -7 -22 q-7 -6 -15 -6 l0 -2 q9 0 15.5 -7 q6.5 -7 6.5 -21 l0 -49 Z" /><glyph glyph-name="bar" unicode="|" d="M60 -35 l0 255 l6 0 l0 -255 l-6 0 Z" /><glyph glyph-name="braceright" unicode="}" d="M74 89 q-13 -1 -17.5 -8.5 q-4.5 -7.5 -4.5 -19.5 l0 -43 q0 -22 -8 -30.5 q-8 -8.5 -25 -8.5 l0 7 q14 0 19 7.5 q5 7.5 5 20.5 l0 49 q0 14 6.5 21 q6.5 7 15.5 7 l0 2 q-8 0 -15 6 q-7 6 -7 22 l0 49 q0 14 -5 21 q-5 7 -19 7 l0 7 q17 0 25 -8.5 q8 -8.5 8 -30.5 l0 -43 q0 -14 5 -20 q5 -6 17 -8 l0 -6 Z" /><glyph glyph-name="asciitilde" unicode="~" d="M55 195 q-5 5 -9 9 q-4 4 -10 4 q-8 0 -13 -7.5 q-5 -7.5 -8 -19.5 l-5 2 q5 19 12.5 26 q7.5 7 16.5 7 q4 0 9 -1 q5 -1 10 -6 q4 -3 9 -9 q5 -6 9 -10 q5 -5 9.5 -8.5 q4.5 -3.5 8.5 -3.5 q8 0 13 7 q5 7 8 19 l5 -2 q-5 -18 -12.5 -25.5 q-7.5 -7.5 -16.5 -7.5 q-4 0 -8.5 1.5 q-4.5 1.5 -9.5 5.5 q-3 3 -8 8.5 q-5 5.5 -10 10.5 Z" /><glyph glyph-name="degree" unicode="°" d="M81.5 134.5 q-8.5 -6.5 -21 -5.5 q-12.5 1 -20 9 q-7.5 8 -7 20 q0.5 12 6.5 18.5 q6 6.5 15 9 q9 2.5 17.5 0.5 q8.5 -2 14.5 -10.5 q6 -8.5 4.5 -21.5 q-1.5 -13 -10 -19.5 ZM48.5 173 q-5.5 -5 -6.5 -12.5 q-1 -7.5 3 -14.5 q4 -7 14.5 -8.5 q10.5 -1.5 17 4.5 q6.5 6 6.5 16.5 q0 10.5 -6.5 16 q-6.5 5.5 -14.5 4.5 q-8 -1 -13.5 -6 Z" /><glyph glyph-name="periodcentered" unicode="·" d="M142 67 q-14 -7 -29 0 q-15 7 -15 25 q0 18 15 26 q15 8 30 -0.5 q15 -8.5 14 -26 q-1 -17.5 -15 -24.5 Z" /><glyph glyph-name="multiply" unicode="×" d="M54 173 l72 -72 l69 72 l9 -8 l-70 -72 l72 -71 l-9 -9 l-71 72 l-72 -72 l-8 8 l72 72 l-72 72 l8 8 Z" /><glyph glyph-name="beta" unicode="&#x3b2;" d="M34 -55 l-20 0 q4 21 4 39 l0 136 q0 21 4 31.5 q4 10.5 15 18.5 q11 8 28 8 q19 0 32.5 -10.5 q13.5 -10.5 13.5 -30.5 q0 -22 -21 -36 q32 -15 32 -48 q0 -17 -8.5 -31 q-8.5 -14 -19.5 -19.5 q-11 -5.5 -27 -5.5 q-17 0 -28 13 l0 -24 q0 -24 -5 -41 ZM39 21 q10 -16 27 -16 q17 0 25 12 q8 12 8 30 q0 14 -5.5 28 q-5.5 14 -13.5 21 q-7 -2 -13 -2 q-13 0 -13 7 q0 6 11 6 q6 0 16 -3 q9 15 9 32 q0 16 -7 24.5 q-7 8.5 -18 8.5 q-9 0 -15 -5 q-6 -5 -8.5 -12 q-2.5 -7 -2.5 -23 l0 -108 Z" /><glyph glyph-name="epsilon" unicode="&#x3b5;" d="M40 61 q-25 8 -25 26 q0 14 13 22.5 q13 8.5 32 8.5 q18 0 28.5 -6 q10.5 -6 10.5 -14 q0 -4 -3.5 -7 q-3.5 -3 -7.5 -3 q-7 0 -11 9 q-7 14 -19 14 q-10 0 -16.5 -6.5 q-6.5 -6.5 -6.5 -18.5 q0 -23 24 -23 q2 0 6 1 q5 1 8 1 q8 0 8 -5 q0 -5 -8 -5 q-3 0 -8 1 q-4 1 -6 1 q-25 0 -25 -26 q0 -12 6.5 -19.5 q6.5 -7.5 18.5 -7.5 q15 0 19 15 q3 8 6 11.5 q3 3.5 8 3.5 q4 0 7.5 -3 q3.5 -3 3.5 -8 q0 -12 -12.5 -19 q-12.5 -7 -30.5 -7 q-20 0 -35.5 9.5 q-15.5 9.5 -15.5 24.5 q0 20 31 30 Z" /><glyph glyph-name="uni03BC" unicode="&#x3bc;" d="M91 21 q-23 -24 -39 -24 q-11 0 -20 8 l0 -7 q0 -11 3 -23 q4 -13 4 -17 q0 -6 -3.5 -9.5 q-3.5 -3.5 -8.5 -3.5 q-6 0 -9 4.5 q-3 4.5 -3 10.5 q0 4 3 16 q4 13 4 25 l0 114 l20 0 l0 -75 q0 -11 2 -16 q2 -5 7 -8.5 q5 -3.5 11 -3.5 q11 0 29 15 l0 88 l21 0 l0 -87 q0 -11 2 -15.5 q2 -4.5 8 -4.5 q8 0 11 17 l4 0 q-2 -28 -24 -28 q-9 0 -15.5 6 q-6.5 6 -6.5 18 Z" /><glyph glyph-name="pi" unicode="&#x3c0;" d="M124 115 l0 -19 l-29 0 l-2 -38 q-1 -10 -1 -17 q0 -17 4 -21 q4 -4 10 -4 q12 0 14 15 l5 0 q-5 -34 -28 -34 q-11 0 -18 6.5 q-7 6.5 -7 19.5 q0 9 3 37 l3 36 l-26 0 q-3 -45 -6.5 -66 q-3.5 -21 -8 -27 q-4.5 -6 -12.5 -6 q-5 0 -9 3 q-4 3 -4 9 q0 5 7 14 q9 13 14 27.5 q5 14.5 8 45.5 l-9 0 q-10 0 -15.5 -4.5 q-5.5 -4.5 -10.5 -12.5 l-4 0 q3 13 9 21.5 q6 8.5 12 11.5 q6 3 21 3 l80 0 Z" /><glyph glyph-name="rho" unicode="&#x3c1;" d="M33 -55 l-22 0 q5 15 5 44 l0 70 q0 30 17 44.5 q17 14.5 37 14.5 q22 0 35.5 -15 q13.5 -15 13.5 -40 q0 -27 -16.5 -46.5 q-16.5 -19.5 -38.5 -19.5 q-14 0 -28 9 l0 -17 q0 -26 -3 -44 ZM36 35 q0 -15 8 -23 q8 -8 21 -8 q14 0 24 12.5 q10 12.5 10 33.5 q0 26 -13.5 41 q-13.5 15 -29.5 15 q-11 0 -15.5 -7 q-4.5 -7 -4.5 -22 l0 -42 Z" /><glyph glyph-name="sigma" unicode="&#x3c3;" d="M133 115 l0 -19 l-49 0 q16 -9 26 -23 q10 -14 10 -29 q0 -21 -16 -34 q-16 -13 -36 -13 q-24 0 -41.5 18.5 q-17.5 18.5 -17.5 44.5 q0 17 9 31 q9 14 21.5 19 q12.5 5 32.5 5 l61 0 ZM76 96 l-5 0 q-18 0 -29.5 -9 q-11.5 -9 -11.5 -29 q0 -21 12 -37.5 q12 -16.5 28 -16.5 q12 0 20.5 12.5 q8.5 12.5 8.5 29.5 q0 27 -23 50 Z" /><glyph glyph-name="uni200D" unicode="&#x200d;" d="M5 -34 l-9 0 l0 173 l-17 -17 l-6 6 l21 22 l-21 21 l6 6 l21 -22 l21 22 l6 -6 l-21 -21 l21 -22 l-6 -6 l-16 17 l0 -173 Z" /><glyph glyph-name="uni2010" unicode="&#x2010;" d="M165 101 l0 -17 l-69 0 l0 17 l69 0 Z" /><glyph glyph-name="endash" unicode="&#x2013;" d="M81 99 l96 0 l0 -12 l-96 0 l0 12 Z" /><glyph glyph-name="emdash" unicode="&#x2014;" d="M8 98 l241 0 l0 -10 l-241 0 l0 10 Z" /><glyph glyph-name="uni2015" unicode="&#x2015;" d="M33 99 l189 0 l0 -12 l-189 0 l0 12 Z" /><glyph glyph-name="quoteleft" unicode="&#x2018;" d="M191 152 q12 1 16.5 -5 q4.5 -6 3.5 -13 q-1 -7 -7.5 -12 q-6.5 -5 -15 -2.5 q-8.5 2.5 -12 10.5 q-3.5 8 0 19 q3.5 11 11 20.5 q7.5 9.5 19.5 18.5 q12 9 14.5 8 q2.5 -1 -7 -9.5 q-9.5 -8.5 -14.5 -15.5 q-5 -7 -9 -19 Z" /><glyph glyph-name="quoteright" unicode="&#x2019;" d="M66 160 q-11 0 -15 5.5 q-4 5.5 -3.5 13 q0.5 7.5 6 12 q5.5 4.5 14.5 2 q9 -2.5 12 -10.5 q3 -8 -0.5 -18 q-3.5 -10 -10.5 -19 q-7 -9 -18.5 -18.5 q-11.5 -9.5 -13 -8.5 q-1.5 1 7 10 q8.5 9 12.5 15.5 q4 6.5 9 16.5 Z" /><glyph glyph-name="quotedblleft" unicode="&#x201c;" d="M137 152 q12 1 16.5 -5 q4.5 -6 3.5 -13 q-1 -7 -7.5 -12 q-6.5 -5 -15 -2.5 q-8.5 2.5 -12 10.5 q-3.5 8 0 19 q3.5 11 11 20.5 q7.5 9.5 19.5 18.5 q12 9 14.5 8 q2.5 -1 -7 -9.5 q-9.5 -8.5 -14.5 -15.5 q-5 -7 -9 -19 ZM191 152 q12 1 16.5 -5 q4.5 -6 3.5 -13 q-1 -7 -7.5 -12 q-6.5 -5 -15 -2.5 q-8.5 2.5 -12 10.5 q-3.5 8 0 19 q3.5 11 11 20.5 q7.5 9.5 19.5 18.5 q12 9 14.5 8 q2.5 -1 -7 -9.5 q-9.5 -8.5 -14.5 -15.5 q-5 -7 -9 -19 Z" /><glyph glyph-name="quotedblright" unicode="&#x201d;" d="M66 160 q-11 0 -15 5.5 q-4 5.5 -3.5 13 q0.5 7.5 6 12 q5.5 4.5 14.5 2 q9 -2.5 12 -10.5 q3 -8 -0.5 -18 q-3.5 -10 -10.5 -19 q-7 -9 -18.5 -18.5 q-11.5 -9.5 -13.5 -8.5 q-2 1 7 10 q9 9 13 15.5 q4 6.5 9 16.5 ZM118 160 q-11 0 -15 5.5 q-4 5.5 -3.5 13 q0.5 7.5 6 12 q5.5 4.5 14.5 2 q9 -2.5 12 -10.5 q3 -8 -0.5 -18 q-3.5 -10 -10.5 -19 q-7 -9 -18.5 -18.5 q-11.5 -9.5 -13.5 -8.5 q-2 1 7 10 q9 9 13 15.5 q4 6.5 9 16.5 Z" /><glyph glyph-name="bullet" unicode="&#x2022;" d="M41 124 q9 9 22 9 q13 0 22.5 -9 q9.5 -9 9.5 -22 q0 -13 -9.5 -22 q-9.5 -9 -22.5 -9 q-13 0 -22 9 q-9 9 -9 22 q0 13 9 22 Z" /><glyph glyph-name="ellipsis" unicode="&#x2026;" d="M136.5 75.5 q-9.5 -4.5 -19 0.5 q-9.5 5 -9.5 16 q0 11 10 17 q10 6 20 -0.5 q10 -6.5 9 -17.5 q-1 -11 -10.5 -15.5 ZM218.5 75.5 q-9.5 -4.5 -19 0.5 q-9.5 5 -9.5 16 q0 11 10 17 q10 6 20 -0.5 q10 -6.5 9 -17.5 q-1 -11 -10.5 -15.5 ZM54.5 75.5 q-9.5 -4.5 -19 0.5 q-9.5 5 -9.5 16 q0 11 10 17 q10 6 20 -0.5 q10 -6.5 9 -17.5 q-1 -11 -10.5 -15.5 Z" /><glyph glyph-name="uni2027" unicode="&#x2027;" d="M128 109 q10 0 18 -8 q7 -7 7 -18 q0 -10 -7 -18 q-8 -8 -18 -8 q-12 0 -19 8 q-7 8 -7 18 q0 12 8 20 q7 6 18 6 Z" /><glyph glyph-name="fraction" unicode="&#x2044;" d="M85 173 l-116 -179 l-11 0 l116 179 l11 0 Z" /><glyph glyph-name="uni20D7" unicode="&#x20d7;" d="M146 153 q-22 -5 -35 -24 l-15 0 q5 12 9 18 l-93 0 l0 18 l93 0 q-4 6 -9 18 l15 0 q13 -18 35 -24 l0 -6 Z" /><glyph glyph-name="uni2161" unicode="&#x2161;" d="M121 184 q-22 0 -22 -11 l0 -161 q-1 -11 22 -11 l0 -5 l-67 0 l0 5 q26 -1 25 11 l0 160 q1 12 -25 12 l0 5 l67 0 l0 -5 ZM203 184 q-26 0 -25 -11 l0 -161 q-1 -12 25 -11 l0 -5 l-67 0 l0 5 q23 -1 22 11 l0 161 q2 12 -22 11 l0 5 l67 0 l0 -5 Z" /><glyph glyph-name="uni2162" unicode="&#x2162;" d="M80 184 q-27 0 -26 -10 l0 -162 q-1 -12 26 -11 l0 -5 l-71 0 l0 5 q24 -1 25 10 l0 163 q1 10 -25 10 l0 5 l71 0 l0 -5 ZM246 184 q-26 1 -26 -10 l0 -163 q0 -11 26 -10 l0 -5 l-72 0 l0 5 q26 -1 26 10 l0 163 q0 10 -26 10 l0 5 l72 0 l0 -5 ZM164 184 q-29 0 -27 -10 l0 -164 q0 -9 27 -9 l0 -5 l-74 0 l0 5 q27 -1 27 8 l0 164 q0 11 -27 11 l0 5 l74 0 l0 -5 Z" /><glyph glyph-name="arrowright" unicode="&#x2192;" d="M166 86 l-145 0 l0 12 l145 0 l-17 23 l0 3 l86 -32 l-86 -32 l0 3 l17 23 Z" /><glyph glyph-name="uni21A9" unicode="&#x21a9;" d="M140 123 q14 0 23 -9 q9 -9 9 -23 q0 -13 -9 -22.5 q-9 -9.5 -23 -9.5 l-92 0 q14 -15 20 -33 l-9 0 q-18 25 -49 37 l0 6 q31 11 49 37 l9 0 q-6 -18 -20 -34 l92 0 q8 0 14 5.5 q6 5.5 6 13.5 q0 8 -6 14 q-6 6 -14 6 l0 12 Z" /><glyph glyph-name="partialdiff" unicode="&#x2202;" d="M116 90 q1 14 1 23 q0 22 -11.5 34.5 q-11.5 12.5 -31.5 12.5 q-13 0 -22 -5 q-9 -5 -16 -15 l-5 0 q9 20 20 29 q11 9 27 9 q11 0 22 -6 q11 -6 17.5 -20 q6.5 -14 6.5 -37 q0 -44 -19 -79 q-22 -39 -55 -39 q-20 0 -31 11 q-11 11 -11 30 q0 15 5.5 29 q5.5 14 14.5 23.5 q9 9.5 20 15.5 q14 8 29 8 q10 0 18 -4 q8 -4 14 -10 q3 -3 7 -10 ZM114 79 q-5 13 -15 20.5 q-10 7.5 -21 7.5 q-12 0 -22.5 -8 q-10.5 -8 -18.5 -27.5 q-8 -19.5 -8 -38.5 q0 -14 6.5 -22 q6.5 -8 17.5 -8 q15 0 31 17 q21 20 30 59 Z" /><glyph glyph-name="gradient" unicode="&#x2207;" d="M156 176 l-77 -176 l-77 176 l154 0 ZM139 164 l-110 0 l55 -126 l55 126 Z" /><glyph glyph-name="summation" unicode="&#x2211;" d="M67 11 l94 0 q23 0 41 29 l3 0 l-9 -45 l-155 0 l66 86 l-68 104 l156 0 l10 -46 l-3 0 q-19 36 -46 36 l-89 0 l58 -89 l-58 -75 Z" /><glyph glyph-name="minus" unicode="&#x2212;" d="M139 80 l-134 0 l0 10 l134 0 l0 -10 Z" /><glyph glyph-name="notequal" unicode="&#x2260;" d="M182 182 l9 -4 l-36 -53 l72 0 l0 -10 l-78 0 l-30 -45 l108 0 l0 -10 l-115 0 l-37 -55 l-9 4 l34 51 l-72 0 l0 10 l79 0 l30 45 l-109 0 l0 10 l115 0 l39 57 Z" /><glyph glyph-name="lessequal" unicode="&#x2264;" d="M31 72 l196 -66 l-3 -9 l-196 66 l3 9 ZM223 188 l4 -9 l-176 -60 l176 -60 l-3 -9 l-196 67 l0 5 l195 66 Z" /><glyph glyph-name="uni2266" unicode="&#x2266;" d="M206 26 l-157 0 l0 10 l157 0 l0 -10 ZM206 62 l-157 0 l0 10 l157 0 l0 -10 ZM205 91 l-159 40 l0 4 l157 37 l0 -11 l-125 -28 l127 -30 l0 -12 Z" /><glyph glyph-name="uni2267" unicode="&#x2267;" d="M208 23 l-161 0 l0 10 l161 0 l0 -10 ZM208 56 l-161 0 l0 10 l161 0 l0 -10 ZM50 172 l158 -44 l0 -5 l-161 -36 l0 11 l133 28 l-130 35 l0 11 Z" /><glyph glyph-name="dotmath" unicode="&#x22c5;" d="M50 66 q0 -8 -5.5 -13 q-5.5 -5 -12.5 -5 q-7 0 -12.5 5 q-5.5 5 -5.5 13 q0 7 5.5 12.5 q5.5 5.5 12.5 5.5 q7 0 12.5 -5.5 q5.5 -5.5 5.5 -12.5 Z" /><glyph glyph-name="uni22EF" unicode="&#x22ef;" d="M226 85 l-25 0 l0 26 l25 0 l0 -26 ZM141 85 l-26 0 l0 26 l26 0 l0 -26 ZM56 85 l-26 0 l0 26 l26 0 l0 -26 Z" /><glyph glyph-name="SF100000" unicode="&#x2500;" d="M0 83 l0 19 l255 0 l0 -19 l-255 0 Z" /><glyph glyph-name="circle" unicode="&#x25cb;" d="M128 -3 q-42 0 -69 26.5 q-27 26.5 -27 68.5 q0 42 27 69 q27 27 69 27 q42 0 68.5 -27 q26.5 -27 26.5 -69 q0 -42 -26.5 -68.5 q-26.5 -26.5 -68.5 -26.5 ZM68.5 31 q23.5 -23 59.5 -23 q36 0 59 23 q23 23 23 61 q0 38 -23 61.5 q-23 23.5 -59 23.5 q-36 0 -59.5 -23.5 q-23.5 -23.5 -23.5 -61.5 q0 -38 23.5 -61 Z" /><glyph glyph-name="H18533" unicode="&#x25cf;" d="M128 -2 q-42 0 -69 26.5 q-27 26.5 -27 68.5 q0 42 27 69 q27 27 69 27 q42 0 68.5 -27 q26.5 -27 26.5 -69 q0 -42 -26.5 -68.5 q-26.5 -26.5 -68.5 -26.5 Z" /><glyph glyph-name="uni2605" unicode="&#x2605;" d="M174 68 l28 -84 l-75 54 l-73 -53 l27 83 l-67 50 l85 0 l29 84 l28 -84 l85 0 l-67 -50 Z" /><glyph glyph-name="uni2606" unicode="&#x2606;" d="M174 68 l28 -84 l-75 54 l-73 -53 l27 83 l-67 50 l85 0 l29 84 l28 -84 l85 0 l-67 -50 ZM185 7 l-22 64 l53 39 l-67 0 l-21 63 l-23 -63 l-66 0 l52 -39 l-22 -65 l58 43 l58 -42 Z" /><glyph glyph-name="female" unicode="&#x2640;" d="M132 97 l0 -27 l74 0 l0 -10 l-74 0 l0 -67 l-10 0 l0 67 l-73 0 l0 10 l73 0 l0 27 q-19 2 -32.5 16.5 q-13.5 14.5 -11.5 36.5 q2 22 17.5 34 q15.5 12 34 11.5 q18.5 -0.5 33 -13.5 q14.5 -13 15.5 -34 q1 -21 -12 -35 q-13 -14 -34 -16 ZM103 175.5 q-12 -9.5 -13.5 -27.5 q-1.5 -18 10 -29.5 q11.5 -11.5 28 -11.5 q16.5 0 27 11 q10.5 11 10.5 27 q0 16 -9.5 27.5 q-9.5 11.5 -25 12 q-15.5 0.5 -27.5 -9 Z" /><glyph glyph-name="male" unicode="&#x2642;" d="M122 89 l0 54 q-13 -7 -35 -22 l-5 2 q32 31 44 77 l3 0 q12 -46 44 -77 l-5 -2 q-23 15 -36 22 l0 -54 q20 -2 33.5 -16.5 q13.5 -14.5 11.5 -36.5 q-2 -22 -17.5 -34 q-15.5 -12 -34.5 -11.5 q-19 0.5 -32.5 13.5 q-13.5 13 -14.5 34.5 q-1 21.5 11.5 35 q12.5 13.5 32.5 15.5 ZM152 11.5 q12 9.5 13 27 q1 17.5 -10 29 q-11 11.5 -28 11.5 q-17 0 -27.5 -11.5 q-10.5 -11.5 -10.5 -27 q0 -15.5 10 -26.5 q10 -11 25.5 -11.5 q15.5 -0.5 27.5 9 Z" /><glyph glyph-name="musicalnote" unicode="&#x266a;" d="M61 170 l5 0 q21 0 28 -1 q10 -3 17 -10 q6 -5 9 -14.5 q3 -9.5 3 -22.5 l0 -13 l-12 0 l0 5 q0 9 -3.5 15 q-3.5 6 -10.5 9 q-9 4 -20 4 l-4 0 l0 -104 q0 -16 -4 -24 q-4 -8 -13.5 -13 q-9.5 -5 -21.5 -5 q-13 0 -21 7.5 q-8 7.5 -8 19.5 q0 13 9.5 22 q9.5 9 24.5 9 q10 0 22 -5 l0 121 Z" /><glyph glyph-name="uni266D" unicode="&#x266d;" d="M133 93 q-17 0 -30 -8 l0 -84 q13 8 24 19 q26 26 26 49 q0 11 -7 18 q-6 6 -13 6 ZM172 67 q0 -18 -18 -38 q-9 -10 -28 -22 q-19 -12 -32 -21 l0 211 l9 0 l0 -104 q15 9 33 9 q17 0 26 -9 q10 -10 10 -26 Z" /><glyph glyph-name="uni26FA" unicode="&#x26fa;" d="M124 197 l111 -95 l-12 -101 l-76 5 l0 68 l-60 3 l0 -67 l-72 5 l109 182 ZM136 176 l78 -155 l9 76 l-87 79 Z" /><glyph glyph-name="uni2705" unicode="&#x2705;" d="M55 7 l-8 -5 l-5 -2 l-6 1 l-4 1 l-7 4 l-7 5 l-7 6 l-6 9 l-5 45 l0 17 l1 13 l3 7 l10 12 l6 5 l3 2 l7 2 l3 1 l6 0 l7 -2 l8 -11 l0 -11 l0 1 l4 -27 l0 -1 l57 60 l17 17 l23 21 l6 2 l8 1 l9 -5 l1 -10 l0 -21 l-4 -8 l-72 -82 l-39 -41 l-9 -6 ZM98 60 l71 80 l3 5 l0 7 l0 12 l-1 6 l-3 2 l-6 0 l-4 -2 l-20 -19 l-77 -80 l-7 1 l-1 2 l-2 5 l-4 27 l-1 8 l-4 6 l-5 2 l-4 -1 l-8 -2 l-1 0 l-5 -5 l-8 -10 l-3 -5 l0 -11 l0 -17 l4 -42 l4 -6 l6 -6 l6 -4 l6 -4 l3 -1 l4 0 l4 1 l6 4 l7 6 l8 8 l32 33 Z" /><glyph glyph-name="uni274C" unicode="&#x274c;" d="M66 76 l-53 53 l28 28 l53 -52 l52 52 l28 -28 l-52 -53 l52 -52 l-28 -28 l-52 52 l-53 -52 l-28 28 l53 52 Z" /><glyph glyph-name="uni2F17" unicode="&#x2f17;" d="M207 121 l-70 0 l0 82 q8 1 9 8 l-27 3 l0 -93 l-107 0 l2 -7 l105 0 l0 -133 l3 0 q5 0 10 2 q5 2 5 5 l0 126 l102 0 q5 0 6 4 q-9 8 -24 20 l-14 -17 Z" /><glyph glyph-name="uni2F25" unicode="&#x2f25;" d="M174 140 q-11 -58 -37 -90 q-32 11 -68 19 q17 38 31 71 l74 0 ZM208 147 l-105 0 q15 36 23 57 q9 0 11 6 l-26 5 q-7 -22 -26 -68 l-75 0 l2 -7 l70 0 q-25 -59 -42 -88 q6 -3 13 -3 q6 0 9 6 l4 10 q35 -12 62 -25 q-20 -21 -52 -35 q-27 -12 -65 -21 l1 -4 q50 8 83 22 q28 12 48 31 q48 -25 72 -51 q3 -1 6 -1 q7 0 7 7 q0 11 -19 26 q-20 16 -56 30 q27 33 40 96 l46 0 q6 0 7 4 q-9 8 -24 20 l-14 -17 Z" /><glyph glyph-name="uni2F45" unicode="&#x2f45;" d="M209 166 l-73 0 l0 39 q9 1 9 7 l-26 3 l0 -49 l-108 0 l2 -7 l82 0 q-3 -67 -21 -106 q-20 -42 -61 -70 l2 -3 q44 22 67 56 q18 28 26 68 l78 0 q-2 -43 -6 -69 q-5 -25 -10 -30 q-4 -3 -11 -3 q-6 0 -45 3 l0 -4 q22 -4 28 -7 q9 -4 9 -13 q19 0 30 10 q10 9 15 43 q5 28 7 67 q8 1 11 5 l-20 16 l-10 -11 l-74 0 q3 19 5 48 l124 0 q6 0 7 3 q-9 9 -24 20 l-13 -16 Z" /><glyph glyph-name="uni2F7F" unicode="&#x2f7f;" d="M82 83 l90 0 l0 -36 q-41 -5 -90 -10 l0 46 ZM172 185 l0 -43 l-90 0 l0 43 l90 0 ZM82 134 l90 0 l0 -43 l-90 0 l0 43 ZM240 54 l-51 -6 l0 137 l46 0 q6 0 7 4 q-10 9 -25 20 l-13 -16 l-190 0 l2 -8 l49 0 l0 -149 q-33 -3 -53 -4 l9 -22 q4 1 6 5 q94 13 145 22 l0 -57 l3 0 q5 0 9.5 2 q4.5 2 4.5 4 l0 54 q18 3 52 9 l-1 5 Z" /><glyph glyph-name="uni2FA5" unicode="&#x2fa5;" d="M59 99 l0 41 l60 0 l0 -41 l-60 0 ZM119 190 l0 -42 l-60 0 l0 42 l60 0 ZM197 190 l0 -42 l-60 0 l0 42 l60 0 ZM137 99 l0 41 l60 0 l0 -41 l-60 0 ZM208 -3 l-71 0 l0 46 l82 0 q6 0 7 4 q-9 8 -24 20 l-12 -16 l-53 0 l0 40 l60 0 l0 -13 l2 0 q4 0 9.5 2 q5.5 2 5.5 3 l0 103 q8 2 11 6 l-21 15 l-10 -10 l-133 0 l-18 8 l0 -131 l2 0 q5 0 9.5 2 q4.5 2 4.5 4 l0 11 l60 0 l0 -40 l-85 0 l2 -8 l83 0 l0 -46 l-108 0 l2 -7 l226 0 q6 0 7 3 q-9 9 -24 20 l-14 -16 Z" /><glyph glyph-name="uni3001" unicode="&#x3001;" d="M67 12.5 q-9 21.5 -39 39.5 l1 3 q23 -5 35.5 -12.5 q12.5 -7.5 18 -13.5 q5.5 -6 7 -16 q1.5 -10 -6 -16 q-7.5 -6 -16.5 15.5 Z" /><glyph glyph-name="uni3002" unicode="&#x3002;" d="M74.5 52 q10.5 -4 14 -14 q3.5 -10 1 -19.5 q-2.5 -9.5 -10 -14.5 q-7.5 -5 -17.5 -5 q-10 0 -18 8 q-8 8 -8.5 17.5 q-0.5 9.5 4 17 q4.5 7.5 14.5 11 q10 3.5 20.5 -0.5 ZM54 9.5 q10 -5.5 19.5 0.5 q9.5 6 9 17.5 q-0.5 11.5 -10.5 16.5 q-10 5 -19 -1 q-9 -6 -9 -17 q0 -11 10 -16.5 Z" /><glyph glyph-name="uni3008" unicode="&#x3008;" d="M218 198 l9 -5 l-51 -100 l47 -100 l-9 -5 l-49 105 l53 105 Z" /><glyph glyph-name="uni3009" unicode="&#x3009;" d="M37 -11 l-9 4 l47 100 l-47 99 l9 5 l49 -103 l-49 -105 Z" /><glyph glyph-name="uni300A" unicode="&#x300a;" d="M222 197 l9 -4 l-48 -100 l48 -100 l-9 -5 l-50 104 l50 105 ZM192 198 l9 -5 l-51 -100 l47 -100 l-9 -5 l-49 105 l53 105 Z" /><glyph glyph-name="uni300B" unicode="&#x300b;" d="M33 -12 l-9 4 l47 100 l-47 99 l9 5 l49 -103 l-49 -105 ZM69 -12 l-9 4 l47 100 l-47 99 l9 5 l49 -103 l-49 -105 Z" /><glyph glyph-name="uni300C" unicode="&#x300c;" d="M158 202 l61 0 l0 -10 l-51 0 l0 -208 l-10 0 l0 218 Z" /><glyph glyph-name="uni300D" unicode="&#x300d;" d="M97 202 l0 -219 l-61 0 l0 10 l51 0 l0 209 l10 0 Z" /><glyph glyph-name="uni300E" unicode="&#x300e;" d="M155 202 l64 0 l0 -31 l-34 0 l0 -188 l-30 0 l0 219 ZM165 -7 l10 0 l0 188 l34 0 l0 11 l-44 0 l0 -199 Z" /><glyph glyph-name="uni300F" unicode="&#x300f;" d="M99 -17 l-63 0 l0 31 l33 0 l0 188 l30 0 l0 -219 ZM89 192 l-10 0 l0 -188 l-33 0 l0 -11 l43 0 l0 199 Z" /><glyph glyph-name="uni3010" unicode="&#x3010;" d="M166 94.5 q-2 -51.5 52 -110.5 l-92 0 l0 217 l93 0 q-51 -55 -53 -106.5 Z" /><glyph glyph-name="uni3011" unicode="&#x3011;" d="M86 91.5 q2 50.5 -50 109.5 l90 0 l0 -217 l-91 0 q49 57 51 107.5 Z" /><glyph glyph-name="uniFF08" unicode="&#xff08;" d="M205.5 8 q15.5 -12 13.5 -14 q-2 -2 -19 9.5 q-17 11.5 -32.5 30.5 q-15.5 19 -18 50 q-2.5 31 12.5 55.5 q15 24.5 35.5 39 q20.5 14.5 21 12 q0.5 -2.5 -13.5 -14 q-14 -11.5 -27.5 -32.5 q-13.5 -21 -13.5 -54 q0 -33 13 -51.5 q13 -18.5 28.5 -30.5 Z" /><glyph glyph-name="uniFF09" unicode="&#xff09;" d="M93.5 35 q-16.5 -21 -36 -32.5 q-19.5 -11.5 -20 -9 q-0.5 2.5 14 13 q14.5 10.5 30 34 q15.5 23.5 13.5 54.5 q-2 31 -15.5 51.5 q-13.5 20.5 -28 32.5 q-14.5 12 -14 14.5 q0.5 2.5 19 -10 q18.5 -12.5 36.5 -37 q18 -24.5 17.5 -57.5 q-0.5 -33 -17 -54 Z" /><glyph glyph-name="uniFF0C" unicode="&#xff0c;" d="M48.5 6 q5.5 7 9.5 20 q-9 0 -13 3 q-4 3 -5.5 8 q-1.5 5 -0.5 9.5 q1 4.5 7 9 q6 4.5 15 2.5 q9 -2 12 -10 q3 -8 -1 -20.5 q-4 -12.5 -14.5 -24 q-10.5 -11.5 -18.5 -12.5 q-8 -1 -2 3.5 q6 4.5 11.5 11.5 Z" /><glyph glyph-name="uni3042" unicode="&#x3042;" d="M148 122 q-3 8 -9 13 l4 4 q11 -4 18 -17 q30 -4 47 -18 q18 -16 18 -41 q0 -34 -35 -54 q-24 -13 -59 -17 l-2 7 q42 10 61 27 q18 16 18 40 q0 20 -16 34 q-12 10 -31 13 q-2 -13 -16 -33 q-16 -22 -33 -37 q1 -6 3 -12 q3 -8 3 -10 q0 -11 -7 -11 q-6 0 -11 22 q-30 -23 -49 -23 q-20 0 -20 23 q0 26 21 49 q18 18 43 30 l2 33 q-11 -1 -17 -1 q-16 0 -25 6 q-7 4 -11 13 l6 5 q7 -12 27 -12 q9 0 21 1 q3 21 3 27 q0 5 -3 8 q-3 2 -11 6 l2 6 q30 -4 30 -15 q0 -3 -1 -7 l-3 -6 q-2 -8 -3 -17 q15 2 35 9 q4 1 9 4 q4 4 13 4 q10 0 10 -7 q0 -5 -5 -7 q-24 -9 -64 -15 q-2 -15 -3 -31 q17 6 40 7 ZM148 114 q-20 -1 -41 -9 q-1 -24 3 -51 q14 14 29 38 q8 12 9 22 ZM98 44 q-3 24 -2 56 q-21 -10 -36 -29 q-14 -19 -14 -37 q0 -12 12 -12 q6 0 17 7 q13 6 23 15 Z" /><glyph glyph-name="uni3044" unicode="&#x3044;" d="M119 85 l-10 -27 q-5 -11 -6 -13 q-5 -14 -5 -20 l3 -13 q0 -6 -7 -6 q-4 0 -12 4 q-6 4 -12 10 q-15 15 -22 45 q-6 21 -6 67 q0 14 -2 23 q-4 11 -14 17 l5 6 q29 -13 29 -29 l-2 -4 q-1 -3 -1 -5 q-2 -20 -2 -38 q0 -36 18 -63 q3 -5 7 -5 q3 0 6 5 q8 12 27 49 l6 -3 ZM169 154 q19 -10 30 -21 q9 -9 18 -22 q13 -21 13 -40 q0 -15 -9 -15 q-6 0 -8 12 q-10 53 -49 79 l5 7 Z" /><glyph glyph-name="uni3046" unicode="&#x3046;" d="M97 171 q17 6 25 8 q-19 7 -31 24 l6 5 q13 -13 27 -16 q11 -3 25 -4 q21 -2 21 -12 q0 -7 -9 -7 l-3 1 q-10 1 -16 1 q-15 0 -43 -6 l-2 6 ZM65 131 q1 -11 8 -11 q2 0 13 4 q44 18 61 18 q21 0 34 -16 q13 -17 13 -39 q0 -42 -35 -69 q-25 -19 -68 -27 l-3 7 q39 10 61 29 q28 26 28 60 q0 21 -9 33 q-8 12 -20 12 q-11 0 -30 -8 q-17 -7 -39 -21 q-4 -3 -7 -3 q-6 0 -10 7 q-4 7 -4 18 q0 4 0 7 l7 -1 Z" /><glyph glyph-name="uni3048" unicode="&#x3048;" d="M98 171 q12 4 18 6 q-19 7 -30 23 l6 5 q12 -12 27 -16 q11 -3 26 -3 q22 0 22 -10 q0 -7 -8 -7 l-21 1 q-10 0 -38 -7 l-2 8 ZM63 138 q2 -11 9 -11 q9 0 45 8 q31 7 37 12 q3 2 4 2 q4 0 13 -8 q6 -6 6 -10 q0 -2 -7 -4 q-8 -4 -57 -50 l-15 -13 l1 -1 q21 13 34 13 q21 0 25 -33 q1 -15 5 -20 q3 -5 9 -7 q5 -1 14 -1 q14 0 21 2 q3 1 5 1 q6 0 11 -3 q4 -3 4 -7 q0 -5 -6 -7 q-6 -2 -25 -2 l-13 0 q-19 2 -27 10 q-9 9 -11 27 q-2 20 -5 25 q-4 7 -11 7 q-14 0 -39 -21 q-23 -20 -41 -44 q-3 -3 -5 -3 q-7 0 -7 12 q0 8 6 13 q23 19 52 49 l60 61 l0 0 q-37 -9 -77 -22 q-9 -3 -10 -3 q-12 0 -13 28 l8 0 Z" /><glyph glyph-name="uni304A" unicode="&#x304a;" d="M83 171 q0 8 -4 13 q-3 3 -11 5 l1 6 q31 -1 31 -13 l-1 -8 q-3 -14 -3 -30 q13 4 25 12 q5 3 9 3 q9 0 11 -2 q3 -3 3 -5 q0 -4 -6 -7 q-13 -7 -43 -13 q0 -6 0 -46 q35 14 64 14 q26 0 41 -11 q16 -13 16 -34 q0 -23 -20 -36 q-15 -11 -36 -11 q-19 0 -39 6 l1 8 q15 -4 29 -4 q22 0 35 10 q13 10 13 28 q0 18 -16 28 q-10 5 -27 5 q-25 0 -61 -15 l1 -41 q0 -16 -5 -23 q-5 -9 -12 -9 q-7 0 -14 8 q-11 10 -24 19 q-7 4 -7 10 q0 6 5 13 q13 15 43 30 q1 15 1 49 q-11 -2 -26 -2 q-17 0 -26 18 l5 4 q8 -11 25 -11 q11 0 22 3 l0 29 ZM82 70 q-27 -14 -35 -25 q-3 -5 -3 -6 q0 -4 4 -6 l22 -12 q3 -2 6 -2 q5 0 5 6 q1 9 1 45 ZM173 178 q25 -7 40 -19 q18 -13 18 -27 q0 -10 -9 -10 q-6 0 -9 7 q-7 16 -18 26 q-10 9 -25 17 l3 6 Z" /><glyph glyph-name="uni304B" unicode="&#x304b;" d="M88 138 q10 28 10 40 q0 7 -4 10 q-3 3 -11 5 l1 7 q14 0 24 -6 q9 -4 9 -9 q0 -4 -5 -16 q-10 -26 -11 -29 q12 2 24 2 q15 0 22 -12 q7 -11 7 -31 q0 -63 -22 -90 q-9 -12 -18 -12 q-4 0 -6 7 q-2 9 -25 29 l4 6 q20 -14 26 -17 q3 -1 6 -1 q4 0 8 9 q14 31 14 73 q0 20 -7 26 q-4 3 -12 3 q-12 0 -25 -3 q-25 -66 -40 -103 q-6 -14 -10 -18 q-4 -5 -8 -5 q-2 0 -5 3 q-2 3 -2 7 q0 4 3 9 l6 10 q16 28 43 94 q-9 -3 -36 -13 q-6 -3 -10 -3 q-4 0 -8 8 q-4 7 -4 19 l6 2 q3 -11 10 -11 q8 0 46 10 ZM181 88 q20 0 34 2 q4 0 4 5 q0 11 -11 27 q-10 14 -30 26 l4 6 q14 -6 23 -12 q8 -6 15 -15 q19 -24 19 -47 q0 -14 -7 -14 q-5 0 -8 5 q-4 6 -18 8 q-11 1 -25 2 l0 7 Z" /><glyph glyph-name="uni304C" unicode="&#x304c;" d="M87 137 q10 30 10 41 q0 6 -4 10 q-3 3 -11 5 l2 7 q14 0 24 -6 q8 -4 8 -9 q0 -4 -5 -16 q-7 -18 -11 -30 q12 3 24 3 q15 0 22 -12 q7 -11 7 -31 q0 -63 -22 -90 q-9 -12 -17 -12 q-5 0 -6 7 q-2 8 -25 29 l3 6 q20 -14 27 -17 q2 -1 5 -1 q4 0 9 9 q13 31 13 73 q0 20 -7 26 q-3 3 -12 3 q-11 0 -25 -3 q-21 -58 -40 -103 q-10 -23 -18 -23 q-2 0 -4 3 q-3 3 -3 7 q0 4 4 9 q0 1 3 5 l2 5 q16 28 43 94 q-3 -1 -36 -13 q-7 -3 -9 -3 q-5 0 -9 8 q-3 7 -3 19 l6 1 q2 -10 9 -10 q7 0 46 9 ZM180 87 q20 1 34 3 q4 0 4 5 q0 11 -11 27 q-10 14 -29 26 l3 6 q24 -10 38 -27 q19 -24 19 -47 q0 -14 -7 -14 q-4 0 -8 5 q-4 6 -18 8 q-12 1 -24 2 l-1 6 ZM191 199 q16 -6 26 -15 q8 -7 8 -14 q0 -9 -8 -9 q-5 0 -8 8 q-7 14 -22 25 l4 5 ZM214 216 q17 -4 27 -13 q8 -8 8 -15 q0 -9 -7 -9 q-5 0 -9 8 q-6 13 -22 24 l3 5 Z" /><glyph glyph-name="uni304D" unicode="&#x304d;" d="M69 40 q0 -15 20 -23 q17 -6 42 -6 q15 0 31 3 q5 0 7 0 q7 0 9 -1 q4 -3 4 -9 q0 -5 -11 -7 q-9 -2 -34 -2 q-41 0 -62 14 q-18 11 -18 29 q0 19 22 28 q16 7 38 7 q28 0 54 -5 l-23 40 q-31 -9 -52 -9 q-31 0 -49 21 l5 6 q15 -16 42 -16 q21 0 48 8 q-4 9 -15 32 q-23 -5 -39 -5 q-22 0 -34 12 l4 6 q12 -8 27 -8 q16 0 37 5 l-9 21 q-7 15 -19 15 l-6 -1 l-1 8 q15 2 23 2 q10 0 13 -10 q4 -14 10 -31 q26 10 33 15 q4 4 11 4 q9 0 9 -6 q0 -4 -14 -10 q-5 -3 -34 -13 q9 -21 15 -32 q32 11 40 19 q5 4 10 4 q12 0 12 -6 q0 -10 -56 -28 q9 -15 21 -34 q8 -10 8 -17 q0 -13 -6 -13 q-3 0 -8 4 q-8 5 -28 9 q-17 3 -33 3 q-20 0 -34 -8 q-10 -6 -10 -15 Z" /><glyph glyph-name="uni304E" unicode="&#x304e;" d="M63 37 q0 -14 20 -22 q17 -7 43 -7 q15 0 31 3 q5 1 7 1 q7 0 9 -2 q4 -2 4 -8 q0 -6 -11 -8 q-10 -2 -34 -2 q-41 0 -63 14 q-17 11 -17 29 q0 19 22 29 q16 6 37 6 q31 0 54 -5 l-23 40 q-32 -8 -52 -8 q-30 0 -49 20 l5 6 q16 -15 42 -15 q21 0 49 8 q-3 6 -16 31 q-21 -5 -38 -5 q-22 0 -34 13 l4 5 q12 -8 26 -8 q18 0 38 6 l-10 21 q-7 14 -19 14 l-5 -1 l-1 8 q14 3 23 3 q10 0 12 -10 q6 -21 11 -31 q23 8 32 15 q5 3 11 3 q10 0 10 -6 q0 -4 -14 -10 q-11 -5 -35 -13 q9 -20 16 -32 q31 11 40 19 q4 4 10 4 q12 0 12 -6 q0 -10 -57 -27 q13 -22 22 -35 q7 -10 7 -17 q0 -12 -5 -12 q-4 0 -9 3 q-7 6 -28 9 q-16 4 -33 4 q-20 0 -33 -8 q-11 -7 -11 -16 ZM190 203 q17 -6 26 -15 q8 -8 8 -15 q0 -9 -7 -9 q-6 0 -9 8 q-6 15 -22 26 l4 5 ZM214 220 q16 -5 26 -14 q9 -7 9 -14 q0 -9 -8 -9 q-5 0 -8 8 q-6 13 -23 24 l4 5 Z" /><glyph glyph-name="uni304F" unicode="&#x304f;" d="M141 205 q28 -10 28 -21 q0 -3 -8 -10 l-5 -3 q-11 -7 -15 -11 q-67 -51 -67 -58 q0 -5 10 -11 q48 -31 75 -59 q19 -21 19 -31 q0 -12 -9 -12 q-4 0 -11 10 q-18 29 -42 52 q-12 11 -44 34 q-10 7 -10 15 q0 10 12 21 q2 1 12 10 l45 41 q11 11 13 13 q2 3 2 6 q0 3 -8 9 l3 5 Z" /><glyph glyph-name="uni3051" unicode="&#x3051;" d="M176 137 q-3 42 -6 51 q-3 7 -14 9 l1 7 q1 0 4 0 q21 0 25 -9 q2 -3 2 -19 l2 -35 q12 3 17 6 q5 3 10 3 q6 0 10 -2 q3 -2 3 -6 q0 -8 -41 -15 q0 -2 1 -7 l0 -8 q0 -4 0 -9 q0 -55 -16 -77 q-16 -24 -49 -40 l-4 6 q33 23 45 49 q8 16 9 38 q1 14 1 46 q-25 -4 -39 -4 q-12 0 -20 3 q-9 4 -17 14 l5 5 q13 -10 33 -10 q15 0 38 4 ZM85 77 q-12 -29 -14 -37 q-3 -11 -3 -18 q0 -4 0 -5 q2 -12 -5 -12 q-6 0 -11 11 q-10 27 -10 59 q0 15 3 35 l7 43 q3 12 3 19 q0 7 -2 10 q-2 5 -7 10 l5 6 q21 -14 21 -32 q0 -2 -6 -20 q-13 -44 -13 -68 q0 -26 5 -39 l20 42 l7 -4 Z" /><glyph glyph-name="uni3053" unicode="&#x3053;" d="M95 142 q17 10 35 19 q-9 -2 -16 -2 q-30 0 -45 18 l5 5 q14 -10 34 -10 q17 0 43 4 q12 2 17 2 q7 0 11 -3 q4 -3 4 -8 q0 -6 -9 -6 q-14 0 -25 -4 q-20 -7 -49 -21 l-5 6 ZM60 68 q2 -24 19 -33 q16 -9 48 -9 q36 0 59 8 q4 1 8 1 q8 0 12 -4 q2 -3 2 -6 q0 -6 -8 -8 q-24 -6 -67 -6 q-43 0 -63 14 q-19 13 -19 44 l9 -1 Z" /><glyph glyph-name="uni3055" unicode="&#x3055;" d="M100 87 q42 0 71 -10 q-17 25 -34 56 q-29 -7 -51 -7 q-28 0 -42 18 l4 5 q16 -12 36 -12 q19 0 48 8 q-5 10 -9 19 q-3 10 -7 18 q-4 8 -12 8 q-3 0 -9 -2 l-2 8 q12 5 25 5 q7 0 10 -4 q1 -2 2 -8 q5 -21 14 -41 q31 12 41 21 q4 3 10 3 q14 0 14 -7 q0 -8 -60 -28 q17 -35 32 -51 q5 -7 7 -11 q2 -4 2 -9 q0 -12 -7 -12 q-4 0 -11 6 q-4 5 -18 10 q-21 9 -52 12 l-2 5 ZM64 50 q0 -17 21 -28 q20 -9 52 -9 q15 0 26 3 q4 0 5 0 q5 0 9 -2 q5 -3 5 -9 q0 -5 -8 -7 q-8 -1 -24 -1 q-50 0 -76 16 q-20 13 -20 34 q0 20 15 32 l4 -4 q-8 -8 -9 -25 Z" /><glyph glyph-name="uni3057" unicode="&#x3057;" d="M219 85 q-12 -39 -32 -60 q-28 -27 -66 -27 q-30 0 -43 15 q-11 14 -11 45 q0 35 3 83 q1 14 1 28 q0 12 -3 16 q-3 5 -10 8 l2 6 q13 -1 23 -9 q8 -6 8 -11 q0 -2 -2 -10 q-1 -6 -2 -17 q-7 -56 -7 -93 q0 -29 10 -39 q9 -8 32 -8 q29 0 53 22 q23 20 37 54 l7 -3 Z" /><glyph glyph-name="uni3059" unicode="&#x3059;" d="M133 159 q1 3 1 16 q0 12 -1 16 q-1 3 -4 7 q-3 2 -12 3 l0 7 q9 1 14 1 q20 0 20 -11 l-1 -9 q-2 -15 -3 -29 q63 6 70 6 q20 0 20 -11 q0 -7 -7 -7 l-3 1 q-4 0 -5 0 q-29 2 -44 2 q-21 0 -31 -1 l-1 -21 q0 -13 -1 -23 q9 -16 9 -39 q0 -58 -73 -82 l-4 7 q36 16 51 37 q10 15 12 36 q-6 -19 -27 -19 q-14 0 -22 11 q-8 10 -8 25 q0 17 12 28 q9 9 23 9 q7 0 15 -4 l0 35 q-36 -4 -84 -15 q-8 -1 -9 -1 q-6 0 -12 8 q-5 8 -7 19 l6 3 q8 -13 18 -13 q5 0 14 1 l45 4 q18 2 29 3 ZM135 84 q0 14 -7 21 q-4 5 -11 5 q-11 0 -17 -8 q-5 -8 -5 -20 q0 -12 7 -19 q5 -7 13 -7 q9 0 15 9 q5 8 5 19 Z" /><glyph glyph-name="uni305B" unicode="&#x305b;" d="M88 112 q-1 -48 0 -58 q0 -12 2 -21 q3 -9 16 -13 q12 -4 32 -4 q32 0 51 5 l6 2 q6 0 12 -3 q4 -3 4 -7 q0 -6 -8 -8 q-19 -4 -55 -4 q-32 0 -48 7 q-14 6 -19 17 q-5 11 -6 32 q-1 16 -1 52 q-23 -4 -36 -9 q-5 -2 -10 -2 q-4 0 -10 8 q-6 6 -9 16 l5 4 q7 -10 18 -10 q13 0 42 4 q1 34 -2 41 q-3 7 -15 10 l1 7 q21 -2 26 -5 q8 -4 8 -9 q0 -3 -1 -7 q0 -1 -1 -7 q-1 -8 -1 -27 q51 7 77 10 q1 22 1 39 q0 12 -4 15 q-4 5 -10 6 l3 7 q14 -1 23 -6 q7 -4 7 -10 l-3 -9 q-1 -4 -4 -41 q22 3 37 5 q5 1 9 1 q7 0 12 -4 q6 -4 6 -10 q0 -5 -8 -5 l-5 0 q-20 2 -38 2 q-10 0 -13 0 q-2 -30 -5 -52 q-1 -10 -6 -16 q-4 -5 -8 -5 q-4 0 -9 6 q-6 9 -26 21 l3 6 q15 -8 22 -11 q4 -1 7 -1 q2 0 3 5 q3 11 6 46 q-41 -3 -78 -10 Z" /><glyph glyph-name="uni305E" unicode="&#x305e;" d="M81 101 q55 12 97 19 l8 2 q5 1 9 2 q6 1 9 1 q18 0 18 -12 q0 -7 -8 -7 q-2 0 -7 1 l-6 0 q-14 0 -24 -1 q-19 -2 -31 -10 q-12 -6 -21 -20 q-10 -14 -10 -30 q0 -20 14 -29 q12 -8 28 -8 l18 0 q5 0 8 -3 q4 -2 4 -7 q0 -5 -4 -6 q-3 -2 -12 -2 q-38 0 -56 20 q-12 13 -12 34 q0 32 37 58 l0 1 q-58 -15 -89 -26 q-5 -1 -7 -1 q-11 0 -19 20 l6 4 q5 -7 11 -7 q5 0 23 5 q40 32 89 81 l-1 1 q-47 -11 -66 -17 q-5 -2 -8 -2 q-6 0 -11 9 q-5 7 -7 17 l7 2 q5 -11 13 -11 q5 0 13 1 q16 2 46 8 q9 1 14 5 q3 1 5 1 q3 0 11 -8 q6 -6 6 -9 q0 -5 -6 -7 q-5 -1 -19 -12 q-30 -27 -70 -57 ZM188 195 q17 -5 26 -14 q8 -7 8 -15 q0 -9 -7 -9 q-6 0 -9 8 q-6 14 -22 25 l4 5 ZM212 213 q16 -5 26 -14 q9 -7 9 -15 q0 -9 -8 -9 q-5 0 -8 9 q-6 13 -23 24 l4 5 Z" /><glyph glyph-name="uni305F" unicode="&#x305f;" d="M89 146 q10 28 10 39 q0 8 -13 14 l3 6 q30 -5 30 -15 q0 -4 -3 -8 q-2 -3 -6 -14 q-1 -4 -7 -20 q17 4 25 10 q6 3 10 3 q7 0 11 -3 q2 -2 2 -6 q0 -4 -13 -8 q-12 -4 -39 -9 q-24 -65 -46 -120 q-4 -12 -9 -12 q-3 0 -6 3 q-3 3 -3 8 q0 3 7 16 q21 44 43 103 q-16 -3 -29 -3 q-9 0 -17 6 q-8 5 -13 14 l6 4 q10 -12 25 -12 q15 0 32 4 ZM147 95 q15 9 25 13 q-18 0 -42 -7 l-2 7 q33 14 62 14 q25 0 25 -9 q0 -6 -10 -6 q-10 0 -19 -2 q-15 -5 -34 -15 l-5 5 ZM126 43 q3 -13 15 -20 q13 -6 33 -6 q15 0 28 2 q11 2 12 2 q6 0 9 -2 q4 -4 4 -9 q0 -5 -9 -7 q-8 -1 -31 -1 q-38 0 -54 12 q-13 9 -14 30 l7 -1 Z" /><glyph glyph-name="uni3060" unicode="&#x3060;" d="M126 41 q3 -14 15 -20 q13 -7 33 -7 q15 0 28 2 q11 2 12 2 q6 0 9 -2 q4 -3 4 -8 q0 -5 -9 -7 q-8 -2 -31 -2 q-38 0 -54 12 q-13 10 -14 31 l7 -1 ZM147 92 q15 9 25 14 q-18 -1 -42 -8 l-2 7 q33 14 62 14 q25 0 25 -9 q0 -6 -10 -6 q-10 0 -19 -2 q-15 -4 -34 -15 l-5 5 ZM183 189 q16 -6 26 -14 q8 -8 8 -15 q0 -9 -8 -9 q-5 0 -8 8 q-6 14 -22 25 l4 5 ZM206 207 q17 -5 27 -14 q8 -8 8 -15 q0 -9 -7 -9 q-5 0 -9 9 q-6 12 -23 24 l4 5 ZM89 143 q10 28 10 40 q0 7 -13 13 l3 6 q30 -5 30 -15 q0 -3 -3 -7 q-2 -3 -6 -14 q-1 -3 -7 -20 q17 3 25 9 q6 4 10 4 q7 0 11 -3 q2 -3 2 -6 q0 -5 -13 -9 q-12 -3 -39 -9 q-26 -71 -46 -120 q-4 -12 -9 -12 q-3 0 -6 3 q-3 3 -3 8 q0 4 7 17 q21 44 43 102 q-16 -2 -29 -2 q-9 0 -17 5 q-8 5 -13 14 l6 5 q10 -12 25 -12 q15 0 32 3 Z" /><glyph glyph-name="uni3061" unicode="&#x3061;" d="M86 148 q4 13 6 25 q1 9 1 12 q0 5 -3 7 q-3 3 -11 5 l2 7 q15 -1 24 -5 q7 -4 7 -8 q0 -2 -2 -9 q-3 -6 -10 -31 q29 6 39 12 q6 4 11 4 q13 0 13 -8 q0 -4 -10 -8 q-15 -6 -57 -13 l-19 -68 q22 15 43 22 q20 7 42 7 q25 0 39 -10 q15 -11 15 -30 q0 -13 -10 -25 q-8 -11 -23 -20 q-29 -16 -86 -18 l0 7 q44 4 74 20 q27 14 27 39 q0 15 -12 22 q-9 6 -27 6 q-21 0 -44 -12 q-24 -12 -38 -32 q-2 -3 -5 -3 q-4 0 -8 5 q-3 4 -3 9 q0 6 1 9 l3 9 q8 22 19 61 q-11 -1 -21 -1 q-13 0 -20 3 q-9 4 -15 15 l5 5 q9 -12 29 -12 q10 0 24 2 Z" /><glyph glyph-name="uni3063" unicode="&#x3063;" d="M48 99 q7 -9 12 -9 q5 0 14 4 q50 21 77 21 q24 0 39 -11 q16 -13 16 -36 q0 -30 -27 -47 q-27 -17 -80 -21 l0 7 q48 8 70 24 q21 15 21 38 q0 18 -12 28 q-11 8 -27 8 q-29 0 -74 -27 q-4 -2 -6 -4 q-3 -3 -8 -3 q-10 0 -21 23 l6 5 Z" /><glyph glyph-name="uni3064" unicode="&#x3064;" d="M30 139 q6 -9 11 -9 q9 0 21 6 q62 26 97 26 q30 0 47 -14 q21 -16 21 -43 q0 -39 -36 -62 q-35 -21 -97 -25 l-1 8 q116 15 116 79 q0 24 -16 37 q-13 10 -34 10 q-18 0 -42 -8 q-22 -9 -54 -26 q-6 -3 -8 -5 q-4 -3 -7 -3 q-6 0 -14 8 q-6 6 -10 16 l6 5 Z" /><glyph glyph-name="uni3066" unicode="&#x3066;" d="M30 165 q7 -12 16 -12 q2 0 86 17 q66 13 69 13 q8 0 15 -5 q5 -3 5 -7 q0 -7 -9 -7 l-12 1 q-9 0 -16 -1 q-25 -3 -42 -17 q-32 -29 -32 -71 q0 -27 17 -42 q12 -12 35 -12 l21 1 q9 0 13 -3 q4 -2 4 -8 q0 -7 -29 -7 q-38 0 -57 20 q-18 18 -18 49 q0 56 54 89 l0 1 q-61 -15 -95 -26 q-9 -3 -12 -3 q-5 0 -11 8 q-7 7 -9 18 l7 4 Z" /><glyph glyph-name="uni3067" unicode="&#x3067;" d="M30 164 q6 -12 16 -12 q2 0 86 17 q64 12 69 12 q8 0 15 -4 q5 -4 5 -8 q0 -6 -9 -6 l-12 0 q-9 0 -16 0 q-25 -3 -42 -17 q-32 -29 -32 -72 q0 -26 17 -41 q12 -12 34 -12 l22 1 q9 0 13 -3 q4 -2 4 -8 q0 -8 -29 -8 q-38 0 -57 21 q-18 18 -18 49 q0 56 54 89 l0 0 q-61 -14 -95 -25 q-9 -3 -12 -3 q-5 0 -11 8 q-7 8 -9 18 l7 4 ZM180 127 q16 -6 25 -14 q9 -8 9 -15 q0 -9 -8 -9 q-5 0 -8 8 q-7 14 -22 25 l4 5 ZM203 145 q16 -5 27 -14 q8 -8 8 -15 q0 -9 -7 -9 q-6 0 -9 9 q-6 12 -23 24 l4 5 Z" /><glyph glyph-name="uni3068" unicode="&#x3068;" d="M105 104 q-11 23 -16 66 q-2 12 -4 14 q-4 4 -14 4 l0 8 q6 1 16 1 q19 0 19 -12 l-1 -18 q0 -30 11 -57 l52 30 q6 3 6 5 q0 4 -9 11 l5 5 q26 -13 26 -24 q0 -4 -5 -7 l-12 -5 q-60 -25 -88 -45 q-25 -19 -25 -37 q0 -13 15 -20 q14 -5 46 -5 q26 0 53 5 q5 1 7 2 l4 0 q7 0 11 -2 q4 -3 4 -8 q0 -7 -10 -8 q-28 -4 -59 -4 q-49 0 -67 11 q-15 9 -15 29 q0 31 50 61 Z" /><glyph glyph-name="uni306A" unicode="&#x306a;" d="M97 6 q-9 8 -9 18 q0 15 17 23 q12 6 26 6 q9 0 24 -1 q-3 30 -3 33 q0 17 7 31 l7 -2 q-3 -8 -3 -20 q0 -7 1 -15 l5 -31 q24 -8 38 -15 q19 -11 19 -19 q0 -9 -8 -9 q-2 0 -9 7 q-11 9 -38 22 q0 -3 0 -10 q0 -30 -39 -30 q-21 0 -35 12 ZM156 39 q-16 3 -26 3 q-13 0 -21 -4 q-11 -5 -11 -14 q0 -9 10 -13 q9 -4 21 -4 q18 0 24 9 q4 7 3 23 ZM86 151 q9 24 9 33 q0 8 -13 9 l1 7 q9 1 19 -1 q11 -3 11 -10 q0 -4 -6 -17 l-7 -17 q13 3 19 8 q6 4 10 4 q11 0 11 -8 q0 -4 -6 -6 q-12 -6 -39 -12 q-21 -48 -48 -98 q-3 -7 -8 -7 q-8 0 -8 11 q0 3 6 13 q27 40 44 79 q-17 -3 -26 -3 q-17 0 -27 17 l5 5 q10 -11 24 -11 q13 0 29 4 ZM175 126 q9 3 13 4 l10 3 q4 2 4 3 q0 1 -3 3 q-10 7 -30 13 l2 7 q33 -5 48 -20 q9 -8 9 -18 q0 -8 -6 -8 q-3 0 -9 6 q-3 5 -14 5 q-9 0 -22 -4 l-2 6 Z" /><glyph glyph-name="uni306B" unicode="&#x306b;" d="M83 87 q-13 -33 -16 -42 q-5 -14 -5 -21 q0 -5 2 -12 l1 -5 q0 -3 -2 -5 q-2 -1 -4 -1 q-9 0 -15 18 q-7 21 -7 52 q0 30 12 74 q5 16 5 23 q0 8 -8 17 l5 5 q9 -6 16 -15 q4 -7 4 -11 q0 -5 -4 -13 q-19 -45 -19 -78 q0 -21 4 -33 q9 17 24 50 l7 -3 ZM131 128 l26 22 l-9 0 q-24 0 -39 13 l4 5 q10 -5 29 -5 q24 0 41 5 q6 2 9 2 q8 0 13 -4 q3 -3 3 -7 q0 -6 -12 -6 q-12 0 -25 -6 q-14 -8 -34 -25 l-6 6 ZM112 62 q6 -18 20 -24 q13 -7 38 -7 q11 0 28 3 q4 1 9 1 q7 0 10 -2 q6 -2 6 -8 q0 -5 -11 -7 q-11 -2 -35 -2 q-36 0 -54 12 q-16 11 -18 32 l7 2 Z" /><glyph glyph-name="uni306E" unicode="&#x306e;" d="M120 170 q9 -12 9 -22 q0 -15 -7 -39 q-8 -26 -19 -47 q-10 -21 -20 -30 q-10 -9 -22 -9 q-8 0 -18 10 q-7 8 -11 22 q-4 13 -4 29 q0 19 9 38 q7 16 22 30 q31 28 75 28 q34 0 59 -17 q35 -24 35 -68 q0 -42 -30 -64 q-28 -21 -74 -27 l-2 7 q44 8 67 33 q21 23 21 52 q0 35 -24 57 q-20 18 -52 18 q-7 0 -14 -1 ZM113 169 q-26 -7 -42 -21 q-15 -12 -23 -31 q-7 -15 -7 -33 q0 -21 9 -35 q6 -8 12 -8 q6 0 13 6 q14 15 26 47 q15 38 15 56 q0 12 -3 19 Z" /><glyph glyph-name="uni306F" unicode="&#x306f;" d="M168 137 q-1 8 -1 34 q0 10 -3 14 q-4 4 -13 6 l1 7 q15 0 25 -5 q8 -3 8 -9 q0 -3 -2 -14 q-1 -7 -2 -31 q19 4 25 9 q4 3 9 3 q7 0 10 -2 q2 -1 2 -5 q0 -5 -6 -8 q-13 -5 -40 -10 q1 -46 2 -73 q18 -6 38 -17 q16 -8 16 -16 q0 -9 -6 -9 q-3 0 -9 5 q-20 16 -38 24 q1 -14 -2 -21 q-2 -5 -8 -11 q-9 -8 -29 -8 q-16 0 -29 8 q-13 8 -13 21 q0 17 17 25 q12 5 26 5 q11 0 24 -3 l-2 69 q-19 -3 -32 -3 q-19 0 -27 5 q-6 4 -12 15 l7 4 q6 -8 11 -10 q6 -2 17 -2 q16 0 36 3 ZM170 44 q-16 4 -28 4 q-30 0 -30 -19 q0 -9 13 -14 q8 -3 17 -3 q17 0 23 8 q6 8 5 24 ZM77 76 q-14 -39 -15 -45 q-2 -5 -2 -13 q0 -6 1 -8 l0 -8 q0 -3 -2 -4 q-2 -2 -3 -2 q-4 0 -7 5 q-12 22 -12 65 q0 25 15 92 q1 10 1 15 q0 10 -8 18 l5 5 q21 -12 21 -28 q0 -2 -5 -17 q-17 -47 -17 -88 q0 -17 2 -27 q2 5 10 22 l10 21 l6 -3 Z" /><glyph glyph-name="uni3070" unicode="&#x3070;" d="M164 133 q-1 8 -1 34 q0 11 -3 14 q-4 4 -13 6 l1 7 q15 0 24 -4 q9 -4 9 -9 q0 -3 -2 -14 q-2 -8 -2 -32 q18 4 25 9 q4 3 10 3 q6 0 9 -1 q2 -2 2 -6 q0 -5 -6 -8 q-14 -5 -40 -10 q0 -46 2 -72 q16 -6 38 -17 q17 -9 17 -16 q0 -9 -7 -9 q-3 0 -9 4 q-20 17 -38 24 q1 -13 -2 -20 q-2 -7 -8 -12 q-9 -8 -29 -8 q-17 0 -29 8 q-14 8 -14 21 q0 17 18 25 q12 5 26 5 q12 0 24 -2 l-2 68 q-23 -3 -32 -3 q-19 0 -27 5 q-7 4 -12 15 l6 4 q6 -8 12 -10 q5 -2 17 -2 q14 0 36 3 ZM167 40 q-16 4 -29 4 q-30 0 -30 -18 q0 -10 13 -15 q7 -3 18 -3 q16 0 22 8 q6 8 6 24 ZM73 73 q-13 -37 -15 -46 q-2 -4 -2 -13 q0 -6 1 -8 l0 -7 q0 -3 -2 -5 q-1 -2 -3 -2 q-4 0 -7 5 q-12 22 -12 65 q0 24 14 92 q2 10 2 15 q0 11 -8 18 l4 6 q22 -13 22 -29 q0 -1 -5 -17 q-17 -46 -17 -88 q0 -17 2 -27 l20 43 l6 -2 ZM200 203 q14 -7 23 -16 q7 -7 7 -15 q0 -9 -8 -9 q-5 0 -8 8 q-4 15 -19 27 l5 5 ZM221 220 q16 -6 25 -15 q7 -7 7 -15 q0 -9 -7 -9 q-6 0 -8 9 q-4 12 -21 25 l4 5 Z" /><glyph glyph-name="uni307E" unicode="&#x307e;" d="M122 153 q-1 32 -2 35 q-3 6 -13 7 l1 7 q16 0 24 -4 q7 -3 7 -8 q0 0 -2 -13 q-1 -7 -1 -22 q16 2 30 5 q8 1 12 4 q5 2 13 2 q13 0 13 -7 q0 -5 -7 -7 q-11 -4 -61 -9 l0 -36 q29 4 40 8 q5 2 11 2 q12 0 12 -7 q0 -5 -5 -7 q-14 -4 -57 -8 q0 -4 0 -23 l1 -23 q29 -7 62 -27 q10 -5 10 -12 q0 -10 -7 -10 q-3 0 -8 4 q-29 23 -56 31 l0 -6 q0 -20 -10 -28 q-10 -8 -32 -8 q-20 0 -34 10 q-12 8 -12 19 q0 16 15 24 q12 6 31 6 q14 0 28 -1 l-1 42 q-25 -2 -33 -2 q-22 0 -35 17 l5 5 q7 -7 16 -9 q6 -1 17 -1 q5 0 30 2 l-2 36 q-27 -2 -36 -2 q-27 0 -40 17 l5 5 q14 -10 39 -10 q13 0 32 2 ZM125 38 q-17 3 -33 3 q-14 0 -23 -5 q-8 -5 -8 -13 q0 -8 10 -13 q10 -4 22 -4 q19 0 27 7 q5 5 5 25 Z" /><glyph glyph-name="uni3082" unicode="&#x3082;" d="M84 76 q-23 0 -32 5 q-10 5 -15 16 l5 6 q6 -9 18 -12 q9 -3 26 -3 l3 23 q1 12 3 21 l-13 -1 q-29 0 -39 20 l6 5 q7 -8 16 -10 q10 -2 32 -2 l4 27 q1 10 1 14 q0 4 -3 7 q-2 3 -9 6 l2 7 q29 -6 29 -17 q0 -4 -3 -14 q-1 -3 -6 -29 q21 4 27 6 q5 3 11 3 q12 0 12 -8 q0 -5 -6 -7 q-11 -4 -47 -7 q-5 -24 -8 -45 q26 2 36 6 q6 2 12 2 q4 0 7 -3 q3 -2 3 -4 q0 -7 -9 -9 q-26 -3 -51 -4 q-1 -15 -1 -32 q0 -35 37 -35 q30 0 48 14 q14 12 14 30 q0 21 -17 40 l5 5 q28 -22 28 -49 q0 -25 -23 -41 q-21 -14 -48 -14 q-30 0 -45 18 q-11 13 -11 35 q0 13 1 30 Z" /><glyph glyph-name="uni3083" unicode="&#x3083;" d="M90 99 q-13 30 -13 29 q-3 6 -6 7 q-3 2 -9 2 l0 8 q6 1 16 1 q9 0 12 -9 l10 -33 q45 22 71 22 q20 0 31 -10 q11 -10 11 -24 q0 -17 -14 -27 q-11 -10 -28 -10 q-13 0 -21 3 q-7 2 -16 6 l3 7 q15 -5 27 -5 q16 0 26 9 q8 7 8 19 q0 11 -9 17 q-8 6 -21 6 q-11 0 -27 -6 q-15 -6 -37 -17 q3 -6 34 -82 q2 -6 2 -13 q0 -9 -8 -9 q-5 0 -9 13 q-1 4 -8 27 q-9 25 -21 58 q-5 -3 -13 -8 l-11 -7 q1 2 -3 -1 q-5 -4 -8 -4 q-8 0 -18 17 l5 5 q6 -6 10 -6 q4 0 9 2 q8 4 25 13 ZM111 161 q22 -2 34 -9 q8 -5 8 -12 q0 -9 -8 -9 q-4 0 -8 6 q-10 13 -28 18 l2 6 Z" /><glyph glyph-name="uni3084" unicode="&#x3084;" d="M82 125 q-14 34 -16 37 q-4 8 -8 10 q-2 1 -11 1 l0 8 q8 1 19 1 q10 0 13 -10 q8 -27 14 -42 q58 28 88 28 q24 0 38 -12 q14 -11 14 -29 q0 -23 -18 -36 q-14 -10 -32 -10 q-24 0 -45 11 l2 7 q16 -5 35 -5 q18 0 30 9 q11 10 11 26 q0 15 -12 22 q-10 7 -25 7 q-28 0 -82 -29 l24 -60 q14 -33 18 -43 q3 -7 3 -16 q0 -10 -8 -10 q-6 0 -10 16 q-19 57 -38 107 q-18 -11 -31 -19 l-4 -3 q-5 -3 -8 -3 q-5 0 -11 5 q-6 5 -11 13 l4 5 q8 -6 14 -6 q4 0 11 4 q5 3 17 9 l15 7 ZM108 202 q25 -2 40 -11 q11 -6 11 -14 q0 -5 -3 -8 q-2 -3 -6 -3 q-4 0 -10 7 q-13 16 -34 22 l2 7 Z" /><glyph glyph-name="uni3086" unicode="&#x3086;" d="M138 46 q8 21 8 64 q0 19 -2 43 q-50 -12 -75 -74 q-8 -18 -8 -28 q0 -4 1 -12 q1 -13 -5 -13 q-6 0 -11 10 q-11 19 -11 55 q0 24 6 54 q2 11 2 17 q0 9 -11 17 l4 5 q12 -5 18 -11 q6 -5 6 -10 q0 -2 -4 -17 q-9 -30 -9 -55 q0 -16 3 -26 q18 49 45 73 q20 17 49 25 q-3 19 -6 27 q-3 6 -19 5 l-1 8 q10 2 18 2 q15 0 18 -11 q2 -5 4 -28 l8 1 q28 0 46 -19 q16 -17 16 -42 q0 -32 -18 -52 q-21 -22 -53 -22 q-8 0 -11 0 q-14 -26 -41 -43 l-6 5 q26 22 35 41 q-15 6 -23 14 q-7 7 -13 18 l6 5 q15 -21 34 -26 ZM155 44 q27 0 44 20 q14 18 14 42 q0 23 -16 37 q-13 13 -35 13 q-2 0 -3 -1 q1 -22 1 -42 q0 -45 -9 -69 l4 0 Z" /><glyph glyph-name="uni3087" unicode="&#x3087;" d="M134 107 q25 0 39 7 q3 2 7 2 q9 0 9 -8 q0 -4 -7 -6 q-6 -2 -20 -4 q-11 -2 -19 -2 q-5 0 -9 2 q1 -32 3 -58 q27 -6 44 -15 q17 -9 17 -17 q0 -8 -7 -8 q-4 0 -11 6 q-18 14 -42 21 q0 -12 -2 -19 q-2 -5 -7 -9 q-8 -6 -28 -6 q-19 0 -29 7 q-9 7 -9 18 q0 12 12 19 q11 6 27 6 q11 0 22 -1 q-2 32 -2 58 q-1 40 -2 44 q-1 6 -13 7 l0 7 q6 1 11 1 q10 0 15 -4 q4 -3 4 -8 q0 -2 -1 -8 q-2 -15 -2 -32 ZM125 30 q-15 4 -29 4 q-10 0 -17 -4 q-6 -4 -6 -11 q0 -15 27 -15 q12 0 19 4 q4 4 5 9 q1 5 1 13 Z" /><glyph glyph-name="uni3088" unicode="&#x3088;" d="M133 137 q5 0 7 1 q23 1 40 8 q9 3 10 3 q5 0 9 -3 q3 -3 3 -7 q0 -4 -7 -7 q-23 -7 -49 -7 q-7 0 -13 2 q1 -34 4 -74 q38 -9 58 -21 q18 -9 18 -18 q0 -8 -8 -8 q-5 0 -12 6 q-19 16 -55 27 q0 -14 -1 -20 q-3 -10 -10 -16 q-9 -7 -33 -7 q-21 0 -34 8 q-13 8 -13 23 q0 16 19 25 q13 5 28 5 q15 0 29 -2 q-2 31 -3 74 q-1 48 -2 54 q-3 9 -15 10 l0 7 q7 1 11 1 q23 0 23 -15 q0 -2 -1 -8 q-3 -20 -3 -41 ZM124 42 q-18 4 -34 4 q-13 0 -23 -4 q-10 -6 -10 -14 q0 -11 12 -16 q9 -4 23 -4 q17 0 24 6 q6 4 8 14 q0 1 0 14 Z" /><glyph glyph-name="uni3089" unicode="&#x3089;" d="M96 0 q97 15 97 59 q0 13 -9 22 q-11 12 -28 12 q-19 0 -46 -18 q-21 -13 -36 -32 q-2 -3 -8 -3 q-3 0 -6 7 q-2 7 -2 18 q0 20 6 47 q6 24 11 35 l4 -2 q-1 -3 0 -7 q1 -7 1 -11 q0 -4 -3 -14 q-6 -20 -6 -44 q0 -3 2 -3 q1 0 11 6 q41 30 74 30 q26 0 42 -16 q10 -12 10 -29 q0 -57 -113 -65 l-1 8 ZM97 164 q10 4 25 8 q-16 4 -32 28 l6 5 q20 -22 48 -25 q9 -1 14 -5 q4 -4 4 -8 q0 -8 -6 -8 q-4 0 -10 2 q-7 1 -13 1 q-16 0 -33 -5 l-3 7 Z" /><glyph glyph-name="uni308A" unicode="&#x308a;" d="M124 165 q11 11 23 11 q14 0 24 -16 q15 -22 15 -65 q0 -41 -25 -70 q-22 -24 -64 -35 l-3 7 q41 16 61 45 q14 21 14 57 q0 34 -8 53 q-6 14 -17 14 q-9 0 -17 -10 q-16 -18 -27 -46 q-7 -17 -7 -28 l2 -17 q0 -9 -8 -9 q-5 0 -8 6 q-5 12 -7 37 q-1 21 9 61 q3 12 3 20 q0 9 -8 17 l5 5 q20 -12 20 -26 q0 -4 -4 -14 q-7 -13 -11 -31 q-3 -12 -3 -21 q0 -14 0 -17 l2 0 q16 51 39 72 Z" /><glyph glyph-name="uni308B" unicode="&#x308b;" d="M152 12 q23 7 33 20 q9 11 9 30 q0 20 -16 31 q-13 9 -30 9 q-22 0 -45 -10 q-32 -15 -47 -38 q-4 -7 -9 -7 q-7 0 -7 12 q0 6 7 13 l108 109 l0 1 q-46 -14 -60 -20 q-5 -2 -8 -2 q-7 0 -14 9 q-5 7 -8 17 l6 4 q9 -12 17 -12 q15 0 47 8 q15 5 20 9 q2 2 4 2 q5 0 13 -7 q5 -6 5 -10 q0 -3 -4 -5 q-4 -1 -11 -6 q-4 -4 -32 -31 l-48 -46 l1 -1 q20 12 37 17 q15 4 33 4 q23 0 40 -14 q18 -15 18 -40 q0 -30 -25 -47 q-22 -14 -52 -14 q-31 0 -45 10 q-6 4 -10 10 q-3 6 -3 11 q0 10 9 16 q7 6 19 6 q18 0 33 -13 q12 -11 15 -25 ZM137 9 q-4 14 -13 23 q-9 9 -20 9 q-9 0 -14 -4 q-4 -4 -4 -9 q0 -9 11 -14 q7 -4 19 -5 q11 -1 21 0 Z" /><glyph glyph-name="uni308C" unicode="&#x308c;" d="M88 105 q59 59 87 59 q25 0 25 -34 q0 -8 -4 -39 q-3 -29 -3 -45 q0 -16 12 -16 q8 0 16 10 q10 12 18 37 l7 -2 q-13 -60 -43 -60 q-25 0 -25 34 q0 17 3 53 q3 23 3 30 q0 20 -14 20 q-20 0 -82 -58 q0 -35 2 -72 q0 -2 0 -5 q0 -14 -3 -19 q-4 -6 -8 -6 q-6 0 -6 9 q0 6 -3 17 q-4 13 -9 28 l7 3 q4 -11 8 -19 q1 5 1 26 q0 18 0 38 q-29 -39 -43 -61 q-4 -5 -7 -5 q-6 0 -6 12 q0 4 3 8 l53 65 l1 25 q-18 -8 -26 -14 q-3 -2 -3 -6 q0 -1 0 -5 l-7 -1 q-2 5 -2 10 q0 7 9 13 q9 5 29 14 q1 10 1 24 q0 11 -1 14 q-3 5 -14 8 l2 7 q14 -1 24 -6 q7 -4 7 -8 q0 -3 -2 -13 q-2 -8 -4 -22 q5 0 8 -3 q4 -4 4 -8 q0 -1 -4 -8 q-5 -7 -11 -19 l0 -10 Z" /><glyph glyph-name="uni308D" unicode="&#x308d;" d="M69 186 q6 -10 14 -10 q10 0 49 10 q15 5 20 8 q2 1 4 1 q5 0 12 -7 q5 -7 5 -12 q0 -3 -4 -4 q-3 -1 -11 -8 q-25 -20 -82 -77 l0 -1 q39 25 75 25 q28 0 45 -14 q16 -14 16 -37 q0 -32 -38 -49 q-32 -15 -80 -16 l-1 8 q50 5 75 20 q26 15 26 40 q0 20 -17 30 q-13 7 -32 7 q-25 0 -51 -15 q-24 -14 -42 -34 q-4 -6 -7 -6 q-8 0 -8 12 q0 6 7 13 l110 112 l0 1 q-47 -15 -61 -21 q-8 -3 -11 -3 q-6 0 -12 8 q-4 6 -7 16 l6 3 Z" /><glyph glyph-name="uni308F" unicode="&#x308f;" d="M92 106 q39 38 79 38 q26 0 41 -15 q19 -19 19 -46 q0 -34 -33 -55 q-25 -16 -61 -18 l-1 7 q78 19 78 70 q0 17 -10 30 q-13 16 -35 16 q-37 0 -77 -39 q0 -37 2 -70 q1 -3 1 -8 q0 -11 -3 -15 q-4 -7 -8 -7 q-5 0 -7 9 q-2 10 -7 19 q-6 8 -17 20 l4 5 l23 -20 l1 67 l-46 -62 q-3 -4 -6 -4 q-3 0 -5 3 q-2 4 -2 8 q0 6 11 17 q19 20 49 56 l1 26 l-30 -15 q-7 -3 -8 -3 q-4 0 -9 7 q-4 7 -6 17 l7 2 q4 -8 11 -8 q6 0 35 10 l0 25 q0 11 -3 16 q-3 3 -12 6 l3 7 q29 -2 29 -16 q0 -2 -2 -12 q-1 -4 -3 -22 l1 0 q3 0 7 -3 q5 -5 5 -9 q0 -2 -3 -6 q-6 -6 -13 -19 l0 -9 Z" /><glyph glyph-name="uni3090" unicode="&#x3090;" d="M121 21 q0 12 8 19 q8 7 20 7 q27 0 41 -30 q22 16 22 46 q0 26 -18 41 q-18 14 -44 14 q-10 0 -20 -1 q-12 -36 -22 -57 q-14 -27 -31 -43 q-14 -13 -28 -13 q-20 0 -20 26 q0 33 33 63 q24 22 56 30 q7 22 14 56 q-24 -8 -40 -16 q-5 -2 -8 -2 q-6 0 -10 6 q-5 8 -9 19 l6 3 q5 -8 7 -9 q4 -2 8 -2 q8 0 34 7 q9 2 13 5 q2 2 5 2 q3 0 9 -4 q7 -6 7 -10 q0 -2 -2 -5 q-4 -3 -7 -10 q-2 -8 -6 -21 q-4 -12 -5 -16 q12 1 19 1 q30 0 50 -14 q26 -19 26 -50 q0 -27 -18 -46 q-21 -25 -53 -25 q-17 0 -27 8 q-10 8 -10 21 ZM177 9 q-3 11 -11 20 q-8 9 -17 9 q-9 0 -14 -6 q-4 -3 -4 -10 q0 -18 26 -18 q11 0 20 5 ZM103 83 q4 9 11 30 q-28 -10 -48 -31 q-23 -25 -23 -50 q0 -16 10 -16 q8 0 23 19 q14 19 27 48 Z" /><glyph glyph-name="uni3092" unicode="&#x3092;" d="M100 156 q13 22 13 29 q0 5 -4 6 q-3 2 -12 2 l1 7 q7 1 15 1 q19 0 19 -9 q0 -5 -17 -33 q15 3 29 9 q9 5 14 5 q10 0 10 -7 q0 -5 -8 -8 q-19 -8 -54 -13 q-14 -21 -31 -40 q21 17 37 17 q25 0 29 -33 l46 22 q8 4 8 6 q0 4 -7 10 l5 4 q23 -12 23 -23 q0 -3 -12 -8 q-43 -15 -61 -24 q1 -17 1 -30 q0 -17 -8 -17 q-8 0 -8 14 l0 26 q-22 -12 -32 -22 q-9 -9 -9 -18 q0 -12 11 -17 q11 -4 37 -4 q33 0 50 5 q4 2 7 2 q5 0 8 -3 q6 -4 6 -9 q0 -10 -61 -10 q-41 0 -57 10 q-12 8 -12 25 q0 25 51 54 q0 32 -17 32 q-15 0 -41 -25 q-8 -8 -14 -18 q-5 -6 -9 -6 q-3 0 -5 4 q-1 3 -1 7 q0 6 12 18 q19 19 40 50 q-2 0 -16 0 q-14 0 -20 4 q-6 3 -12 13 l6 5 q4 -7 12 -9 q6 -2 19 -2 q12 0 19 1 Z" /><glyph glyph-name="uni3093" unicode="&#x3093;" d="M234 83 q-10 -43 -30 -65 q-17 -19 -38 -19 q-23 0 -31 16 q-7 15 -8 41 q-1 17 -5 24 q-3 5 -9 5 q-10 0 -24 -14 q-26 -27 -43 -67 q-3 -8 -9 -8 q-7 0 -7 13 q0 5 7 18 l68 122 q11 20 11 27 q0 7 -10 13 l5 6 q12 -5 20 -12 q6 -6 6 -11 q0 -1 -8 -14 q-25 -37 -68 -108 l1 -1 q21 28 34 38 q11 8 20 8 q14 0 20 -11 q5 -9 6 -29 q1 -28 7 -34 q6 -7 16 -7 q19 0 36 20 q16 20 26 51 l7 -2 Z" /><glyph glyph-name="uni3099" unicode="&#x3099;" d="M-72 198 q16 -6 26 -15 q8 -7 8 -14 q0 -9 -8 -9 q-5 0 -8 8 q-6 14 -22 25 l4 5 ZM-48 215 q16 -5 26 -13 q8 -8 8 -15 q0 -9 -7 -9 q-5 0 -9 8 q-6 13 -22 24 l4 5 Z" /><glyph glyph-name="uni309C" unicode="&#x309c;" d="M37 218 q11 0 18 -8 q7 -7 7 -17 q0 -11 -9 -18 q-6 -7 -16 -7 q-11 0 -19 8 q-6 8 -6 17 q0 11 8 19 q8 6 17 6 ZM37 210 q-7 0 -13 -6 q-4 -5 -4 -11 q0 -7 6 -12 q4 -5 11 -5 q7 0 12 6 q4 5 4 11 q0 7 -5 12 q-5 5 -11 5 Z" /><glyph glyph-name="uni30A2" unicode="&#x30a2;" d="M141 111 q0 -2 -2 -13 q-11 -78 -72 -107 l-4 6 q54 35 60 105 q1 10 -3 15 q-3 4 -12 7 l2 7 q10 -1 20 -5 q7 -3 10 -6 q25 18 54 49 l-121 -13 q-3 -1 -7 -2 q-3 -2 -7 -2 q-7 0 -14 8 q-7 7 -11 17 l6 4 q6 -7 13 -9 q6 -2 18 -2 q30 0 115 9 q7 0 15 5 q3 2 4 2 q6 0 12 -9 q7 -7 7 -10 q0 -4 -6 -5 q-7 -1 -14 -7 q-30 -24 -63 -44 Z" /><glyph glyph-name="uni30A4" unicode="&#x30a4;" d="M142 104 q0 -60 2 -82 q0 -2 0 -6 q0 -12 -3 -16 q-4 -4 -8 -4 q-4 0 -6 3 q-2 2 -2 5 q0 11 1 14 q2 34 2 104 q-43 -27 -95 -47 l-3 7 q64 30 114 71 q28 23 28 29 q0 4 -8 10 l3 5 q28 -7 28 -17 q0 -3 -2 -5 l-9 -8 q-9 -9 -42 -35 l0 -28 Z" /><glyph glyph-name="uni30A6" unicode="&#x30a6;" d="M121 154 q0 20 -1 31 q-1 6 -14 10 l1 7 q31 -1 31 -13 q0 -3 -1 -7 q-2 -12 -2 -27 l25 1 q10 1 14 1 q11 2 15 6 q2 2 4 2 q4 0 12 -9 q9 -8 9 -13 q0 -3 -3 -4 q-5 -3 -8 -15 q-13 -49 -37 -78 q-26 -31 -73 -51 l-4 7 q49 26 74 64 q21 35 24 81 q-52 -3 -112 -7 q0 -15 1 -39 q0 -4 0 -9 q0 -7 -3 -11 q-3 -4 -7 -4 q-8 0 -8 9 q0 -2 1 10 q1 14 1 27 q0 17 -2 22 q-3 7 -13 11 l2 7 q19 -2 26 -12 q25 1 48 3 Z" /><glyph glyph-name="uni30A7" unicode="&#x30a7;" d="M135 33 l39 1 q6 1 10 2 q5 2 9 2 q8 0 15 -4 q5 -3 5 -7 q0 -7 -6 -7 q-6 0 -17 1 q-12 1 -22 1 q-40 0 -88 -5 q-7 -1 -9 -2 q-4 -1 -7 -1 q-5 0 -11 5 q-6 7 -10 15 l4 4 q7 -6 13 -8 q5 -1 13 -1 l20 1 q20 2 28 2 l-1 73 l-36 -3 q-8 0 -12 3 q-3 3 -9 13 l5 4 q6 -6 10 -7 q3 -1 11 -1 q13 0 43 3 l21 2 q7 2 13 4 q6 2 11 2 q7 0 12 -3 q4 -3 4 -7 q0 -6 -9 -6 q-16 0 -49 -3 l0 -73 Z" /><glyph glyph-name="uni30A8" unicode="&#x30a8;" d="M135 51 l16 1 q13 1 20 1 q14 1 18 1 q9 0 13 2 q4 2 7 2 q8 0 19 -6 q5 -3 5 -8 q0 -6 -7 -6 q-2 0 -3 1 q-26 2 -45 2 q-57 0 -111 -7 q-8 -1 -12 -2 q-4 -2 -8 -2 q-6 0 -13 7 q-7 7 -11 16 l5 5 q8 -7 14 -9 q7 -2 17 -2 q15 0 61 4 l-1 90 q-22 -2 -20 -2 q-20 -1 -17 -1 l-6 -1 q-1 0 -3 0 q-9 0 -14 5 q-4 3 -11 15 l6 4 q7 -6 13 -8 q6 -2 14 -2 q3 0 29 2 l44 4 q14 2 22 5 q6 2 12 2 q7 0 13 -3 q7 -3 7 -8 q0 -4 -3 -5 q-2 -1 -7 -1 q-16 0 -28 -1 l-6 0 q-6 -1 -10 -1 q-12 -1 -19 -2 l0 -92 Z" /><glyph glyph-name="uni30AA" unicode="&#x30aa;" d="M28 20 q37 24 63 52 q24 26 42 58 q-49 -4 -58 -6 q-3 0 -7 -2 q-2 -1 -4 -1 q-6 0 -13 7 q-7 6 -12 15 l5 5 q8 -6 14 -8 q6 -2 14 -2 q8 0 27 1 l50 3 q0 12 -1 32 q-1 6 -3 11 q-3 7 -15 9 l1 7 q18 0 28 -4 q6 -3 6 -8 q0 -4 -1 -7 l-1 -7 q-1 -8 -1 -32 q17 2 31 4 q4 1 9 3 q5 3 9 3 q6 0 14 -4 q6 -3 6 -9 q0 -6 -12 -6 l-20 0 q-20 0 -36 -1 q1 -62 5 -109 l0 -9 q0 -7 -2 -13 q-4 -7 -8 -7 q-4 0 -7 7 q-4 10 -10 13 q-8 5 -27 14 l3 7 l36 -10 l-4 102 q-25 -44 -56 -72 q-26 -24 -61 -43 l-4 7 Z" /><glyph glyph-name="uni30AB" unicode="&#x30ab;" d="M119 140 q6 27 6 40 q0 6 -5 9 q-2 2 -10 6 l3 7 q14 -2 24 -8 q7 -4 7 -9 q0 -1 -2 -6 q-2 -8 -3 -17 q-2 -11 -4 -20 q36 3 51 5 q5 1 8 3 q3 4 5 4 q4 0 12 -8 q8 -7 8 -11 q0 -3 -5 -7 q-4 -2 -5 -8 q-4 -34 -14 -64 q-8 -27 -17 -40 q-9 -12 -18 -12 q-6 0 -6 6 q0 3 -4 9 q-5 7 -22 22 l5 6 q8 -5 24 -16 q5 -3 8 -3 q3 0 5 4 q21 41 26 105 q-24 -2 -64 -6 q-11 -43 -30 -72 q-22 -34 -68 -59 l-4 7 q67 43 87 122 l-36 -4 q-7 -1 -11 -3 q-3 -2 -8 -2 q-5 0 -11 8 q-6 6 -11 17 l6 4 q8 -8 13 -10 q4 -2 13 -2 q16 0 47 3 Z" /><glyph glyph-name="uni30AC" unicode="&#x30ac;" d="M118 138 q5 25 5 39 q0 6 -4 10 q-2 1 -10 5 l2 7 q15 -1 24 -7 q7 -5 7 -9 q0 -2 -1 -7 q-2 -8 -4 -17 l-4 -20 q40 4 51 6 q6 0 8 3 q4 3 6 3 q4 0 12 -8 q7 -7 7 -11 q0 -3 -4 -6 q-4 -3 -5 -9 q-5 -36 -14 -64 q-8 -26 -18 -39 q-8 -13 -17 -13 q-7 0 -7 7 q0 2 -3 8 q-4 7 -22 22 l4 7 q9 -6 24 -16 q5 -4 9 -4 q2 0 5 4 q20 42 26 105 q-18 -1 -64 -6 q-11 -41 -30 -71 q-23 -35 -68 -59 l-4 6 q66 43 86 123 q-23 -3 -35 -5 q-8 -1 -11 -3 q-4 -2 -8 -2 q-5 0 -12 8 q-6 8 -10 17 l6 4 q8 -8 12 -9 q5 -2 14 -2 q16 0 47 3 ZM192 202 q16 -6 26 -15 q8 -8 8 -15 q0 -9 -8 -9 q-5 0 -8 8 q-6 15 -22 25 l4 6 ZM215 219 q16 -5 27 -14 q8 -7 8 -14 q0 -9 -7 -9 q-5 0 -9 8 q-6 13 -22 24 l3 5 Z" /><glyph glyph-name="uni30AD" unicode="&#x30ad;" d="M116 143 q-7 33 -11 40 q-4 7 -19 7 l0 8 q9 2 19 2 q17 0 18 -11 q1 -17 5 -43 q23 5 38 9 q3 2 6 4 q5 3 9 3 q7 0 13 -1 q7 -1 7 -6 q0 -6 -11 -8 q-27 -4 -60 -12 q5 -22 10 -44 l44 10 q11 3 15 5 q6 4 9 4 q8 0 15 -3 q6 -2 6 -8 q0 -6 -14 -7 q-29 -2 -73 -11 l17 -63 q3 -10 3 -16 q0 -11 -10 -11 q-7 0 -10 19 q-4 25 -13 68 q-13 -2 -60 -17 q-4 -1 -6 -2 q-2 -1 -4 -1 q-13 0 -26 19 l5 5 q10 -8 18 -8 q7 0 15 2 l56 12 q-3 19 -9 45 q-30 -7 -42 -10 l-8 -3 q-4 -2 -8 -2 q-4 0 -11 5 q-6 4 -11 11 l4 5 q9 -6 17 -6 q6 0 16 2 q23 4 41 8 Z" /><glyph glyph-name="uni30B0" unicode="&#x30b0;" d="M119 152 q25 2 52 6 q8 1 11 4 q3 2 6 2 q3 0 10 -7 q8 -8 8 -11 q0 -4 -4 -6 q-5 -3 -10 -13 q-27 -54 -63 -85 q-33 -30 -83 -48 l-4 7 q55 26 88 61 q31 33 53 86 l-72 -7 q-15 -21 -32 -37 q-19 -17 -41 -29 l-4 6 q42 31 69 72 q11 18 11 24 q0 6 -12 11 l3 6 q14 -2 23 -6 q7 -5 7 -9 q0 -3 -2 -7 l-14 -20 ZM192 201 q17 -5 26 -14 q8 -8 8 -15 q0 -9 -8 -9 q-5 0 -8 8 q-6 15 -22 25 l4 5 ZM216 219 q16 -5 26 -14 q8 -7 8 -15 q0 -9 -7 -9 q-5 0 -9 9 q-5 12 -22 24 l4 5 Z" /><glyph glyph-name="uni30B2" unicode="&#x30b2;" d="M158 136 q-3 -56 -24 -90 q-20 -32 -64 -50 l-5 6 q45 23 62 63 q12 30 13 69 l-48 -3 q-8 -1 -11 -1 q-18 -28 -50 -53 l-5 6 q37 35 54 76 q5 13 5 20 q0 6 -12 12 l2 6 q30 -4 30 -18 q0 -3 -5 -13 l-13 -25 q71 5 98 8 q6 1 13 4 q4 2 7 2 q5 0 14 -5 q7 -3 7 -8 q0 -6 -6 -6 q-5 0 -6 0 q-22 2 -56 0 ZM194 203 q16 -6 26 -15 q8 -7 8 -15 q0 -9 -8 -9 q-5 0 -8 8 q-6 15 -22 26 l4 5 ZM217 220 q17 -5 27 -14 q8 -7 8 -14 q0 -9 -7 -9 q-5 0 -9 8 q-6 13 -23 24 l4 5 Z" /><glyph glyph-name="uni30B3" unicode="&#x30b3;" d="M177 51 q3 32 7 97 q-72 -6 -90 -8 q-6 0 -12 -2 l-6 -1 q-6 0 -13 6 q-6 6 -12 15 l5 5 q8 -6 14 -8 q5 -1 14 -1 q10 0 32 1 l56 4 q6 0 13 5 q4 2 6 2 q3 0 9 -7 q7 -8 7 -12 q0 -3 -3 -5 q-4 -3 -5 -12 l-7 -77 q10 -3 10 -10 q0 -6 -8 -6 q-56 0 -110 -8 q-6 0 -8 -1 q-2 -2 -5 -2 q-4 0 -11 8 q-7 7 -13 16 l6 4 q10 -6 14 -8 q5 -2 11 -2 q14 0 35 2 l64 5 Z" /><glyph glyph-name="uni30B4" unicode="&#x30b4;" d="M192 198 q16 -6 26 -15 q8 -8 8 -15 q0 -9 -8 -9 q-5 0 -8 8 q-6 15 -22 25 l4 6 ZM215 215 q17 -5 27 -14 q8 -8 8 -15 q0 -8 -7 -8 q-5 0 -9 8 q-5 12 -22 24 l3 5 ZM174 46 q4 33 7 98 q-71 -6 -90 -8 q-6 -1 -12 -2 q2 0 -4 -1 l-2 0 q-5 0 -12 6 q-7 6 -12 15 l5 5 q7 -6 13 -8 q6 -1 15 -1 q9 0 32 1 q8 0 55 4 q6 0 14 5 q3 1 5 1 q3 0 10 -6 q7 -8 7 -12 q0 -3 -4 -5 q-3 -3 -4 -12 l-7 -77 q9 -3 9 -10 q0 -6 -8 -6 q-56 0 -110 -8 q-4 0 -8 -2 q-2 -1 -4 -1 q-5 0 -12 8 q-6 5 -12 16 l5 4 q10 -6 14 -8 q6 -2 11 -2 q15 0 35 2 l64 4 Z" /><glyph glyph-name="uni30B5" unicode="&#x30b5;" d="M158 172 q0 12 -1 15 q-2 4 -14 8 l2 7 q14 0 24 -4 q8 -5 8 -10 q0 -2 -1 -5 l-1 -4 q-2 -13 -2 -42 q25 2 32 5 q4 2 8 2 q5 0 13 -4 q6 -3 6 -8 q0 -7 -10 -7 q3 0 -13 0 q-21 1 -36 1 q0 -45 -9 -67 q-18 -47 -78 -66 l-3 7 q31 14 47 30 q14 14 21 34 q7 20 7 61 q-22 -1 -61 -4 l0 -17 q0 -5 0 -19 q0 -3 0 -8 q0 -14 -9 -14 q-4 0 -6 2 q-2 3 -2 6 l1 9 q1 23 1 39 q-15 -1 -25 -4 q-8 -2 -12 -2 q-6 0 -13 7 q-6 5 -11 14 l5 4 q10 -9 22 -9 l35 2 l-1 29 q0 10 -1 15 q-2 6 -14 9 l2 7 q29 -1 29 -13 q0 -1 -1 -4 q0 -1 0 -3 q-1 -5 -1 -14 l0 -25 q41 3 62 4 l0 36 Z" /><glyph glyph-name="uni30B7" unicode="&#x30b7;" d="M74 189 q25 -5 39 -16 q12 -9 12 -18 q0 -4 -3 -7 q-3 -3 -7 -3 q-5 0 -8 6 q-12 19 -36 31 l3 7 ZM41 140 q26 -5 40 -16 q11 -10 11 -19 q0 -10 -10 -10 q-4 0 -9 7 q-13 21 -35 31 l3 7 ZM57 38 q11 -12 16 -12 q6 0 23 9 q13 6 34 19 q52 35 97 96 l6 -4 q-28 -47 -64 -81 q-31 -27 -74 -51 q-10 -5 -14 -7 q-4 -1 -6 -1 q-6 0 -12 9 q-6 7 -11 19 l5 4 Z" /><glyph glyph-name="uni30B9" unicode="&#x30b9;" d="M141 92 q49 -21 71 -43 q12 -11 12 -19 q0 -12 -10 -12 q-3 0 -8 6 q-24 36 -70 61 q-23 -27 -50 -45 q-24 -17 -57 -30 l-3 7 q55 29 88 65 q30 34 49 82 q-49 -6 -72 -10 q-5 0 -8 -2 q-3 -1 -8 -1 q-4 0 -10 8 q-6 7 -9 16 l6 3 q5 -5 9 -8 q4 -2 10 -2 q30 0 75 6 q5 1 10 4 q4 2 5 2 q3 0 10 -7 q7 -7 7 -10 q0 -3 -4 -4 q-5 -3 -9 -11 q-15 -31 -34 -56 Z" /><glyph glyph-name="uni30BA" unicode="&#x30ba;" d="M140 89 q50 -21 71 -43 q12 -11 12 -19 q0 -13 -9 -13 q-4 0 -8 7 q-25 36 -71 61 q-23 -28 -49 -45 q-25 -17 -58 -30 l-3 7 q55 29 88 65 q30 34 49 82 q-48 -6 -72 -10 q-7 -1 -8 -2 q-4 -1 -7 -1 q-5 0 -11 8 q-6 7 -9 16 l6 3 q5 -6 9 -8 q5 -2 11 -2 q26 0 74 6 q6 1 10 4 q4 2 6 2 q2 0 9 -7 q7 -7 7 -10 q0 -3 -3 -4 q-6 -3 -10 -11 q-16 -33 -34 -56 ZM185 203 q17 -6 26 -14 q8 -8 8 -15 q0 -9 -7 -9 q-6 0 -9 8 q-6 14 -22 25 l4 5 ZM209 221 q16 -5 26 -14 q9 -8 9 -15 q0 -9 -8 -9 q-5 0 -9 8 q-5 13 -22 24 l4 6 Z" /><glyph glyph-name="uni30BD" unicode="&#x30bd;" d="M52 180 q24 -12 37 -30 q9 -12 9 -23 q0 -15 -11 -15 q-7 0 -10 11 q-7 31 -30 51 l5 6 ZM71 2 q44 27 75 69 q27 38 40 82 q4 10 4 17 q0 8 -13 14 l3 7 q15 -3 24 -9 q8 -5 8 -10 q0 -3 -2 -6 q-2 -3 -3 -7 q-20 -61 -53 -101 q-31 -37 -78 -62 l-5 6 Z" /><glyph glyph-name="uni30BF" unicode="&#x30bf;" d="M161 80 q30 -25 30 -37 q0 -10 -8 -10 q-4 0 -8 7 q-7 13 -22 29 q-46 -50 -106 -70 l-4 7 q53 20 99 73 q-15 14 -38 29 l5 6 q16 -8 41 -25 q24 36 35 69 l-68 -7 q-29 -43 -71 -71 l-4 6 q33 27 56 62 q18 27 18 36 q0 6 -12 10 l4 6 q14 -1 21 -6 q7 -5 7 -10 q0 -2 -13 -22 q18 1 51 6 q9 1 12 4 q3 3 5 3 q3 0 11 -6 q6 -6 6 -9 q0 -3 -4 -7 q-3 -3 -7 -12 q-16 -34 -36 -61 Z" /><glyph glyph-name="uni30C1" unicode="&#x30c1;" d="M144 163 q0 -23 -2 -48 l42 3 q11 1 17 4 q4 2 9 2 q6 0 14 -4 q6 -3 6 -9 q0 -5 -10 -5 q-6 0 -8 0 q-4 0 -20 0 q-21 0 -50 -2 q-3 -43 -23 -68 q-18 -24 -58 -41 l-4 6 q42 22 58 53 q9 17 11 49 q-36 -3 -62 -7 l-8 -2 l-6 -1 q-10 0 -23 21 l5 5 q8 -6 13 -8 q5 -2 12 -2 l70 5 q1 14 1 46 q-49 -9 -78 -12 l-1 8 q72 11 109 26 q11 4 11 7 q0 4 -7 8 l7 4 q21 -12 21 -20 q0 -4 -9 -7 q-14 -5 -37 -11 Z" /><glyph glyph-name="uni30C6" unicode="&#x30c6;" d="M144 113 q-2 -46 -16 -72 q-17 -32 -54 -49 l-4 6 q33 21 46 52 q10 24 10 61 q-40 -4 -60 -7 q-5 -1 -7 -2 q-3 -1 -5 -1 q-6 0 -14 8 q-7 6 -12 15 l6 5 q8 -7 13 -9 q4 -2 11 -2 q17 0 78 5 q53 5 58 7 q8 3 13 3 q10 0 17 -4 q5 -3 5 -9 q0 -6 -10 -6 l-25 1 q-13 0 -50 -2 ZM68 185 q11 -10 22 -10 q23 0 57 5 q9 1 17 4 q4 2 7 2 q8 0 14 -3 q6 -3 6 -8 q0 -5 -9 -6 q-48 -2 -88 -6 q1 0 -3 -1 l-7 -1 q-10 0 -22 20 l6 4 Z" /><glyph glyph-name="uni30C8" unicode="&#x30c8;" d="M116 126 q40 -10 63 -25 q20 -12 20 -24 q0 -11 -8 -11 q-5 0 -10 8 q-10 12 -27 23 q-15 11 -38 20 q0 -20 0 -53 l2 -58 q0 -15 -11 -15 q-8 0 -8 11 l1 16 q2 38 2 96 q0 59 -2 67 q-2 8 -16 13 l2 6 q15 0 25 -7 q8 -4 8 -8 q0 -3 -2 -7 q-1 -5 -1 -15 l0 -37 Z" /><glyph glyph-name="uni30C9" unicode="&#x30c9;" d="M164 183 q17 -6 26 -14 q8 -8 8 -15 q0 -9 -7 -9 q-6 0 -9 8 q-6 14 -22 25 l4 5 ZM188 201 q16 -5 26 -14 q9 -8 9 -15 q0 -9 -8 -9 q-5 0 -9 8 q-5 13 -22 24 l4 6 ZM112 126 q40 -10 63 -25 q21 -12 21 -24 q0 -11 -8 -11 q-5 0 -11 8 q-9 12 -26 23 q-16 11 -39 20 q0 -20 1 -53 l1 -58 q0 -15 -11 -15 q-8 0 -8 11 l1 16 q2 38 2 96 q0 59 -2 67 q-2 8 -16 13 l3 6 q14 0 25 -7 q7 -4 7 -8 q0 -3 -1 -7 q-2 -4 -2 -15 l0 -37 Z" /><glyph glyph-name="uni30CA" unicode="&#x30ca;" d="M129 129 q1 22 1 40 q0 12 -3 17 q-3 5 -14 7 l2 7 q15 0 26 -5 q8 -4 8 -9 q0 -2 -1 -6 q-2 -5 -2 -12 q0 -26 -1 -38 l44 4 q8 1 14 3 q3 1 7 1 q7 0 14 -4 q6 -4 6 -8 q0 -7 -9 -7 l-26 1 q-16 0 -50 -1 q-1 -34 -12 -58 q-19 -46 -68 -69 l-4 6 q45 28 60 73 q7 21 8 47 q-32 -2 -61 -6 q-7 -1 -10 -3 q-3 -2 -6 -2 q-6 0 -13 8 q-6 5 -12 16 l5 4 q7 -6 12 -8 q5 -2 11 -2 q23 0 74 4 Z" /><glyph glyph-name="uni30D0" unicode="&#x30d0;" d="M16 32 q24 19 38 36 q15 17 26 40 q9 16 9 24 q0 6 -14 11 l3 6 q15 -1 25 -7 q8 -4 8 -7 q0 -4 -2 -6 q-2 -2 -5 -9 q-13 -32 -36 -56 q-18 -20 -47 -38 l-5 6 ZM152 151 q32 -20 54 -51 q22 -31 22 -49 q0 -13 -9 -13 q-7 0 -10 12 q-14 55 -62 96 l5 5 ZM181 180 q16 -6 26 -15 q8 -8 8 -15 q0 -9 -8 -9 q-5 0 -8 8 q-6 15 -22 25 l4 6 ZM204 197 q17 -5 27 -14 q8 -7 8 -14 q0 -9 -7 -9 q-5 0 -9 8 q-6 13 -22 24 l3 5 Z" /><glyph glyph-name="uni30D3" unicode="&#x30d3;" d="M79 91 q47 18 83 41 q11 7 11 11 q0 4 -7 10 l4 6 q25 -13 25 -23 q0 -6 -15 -13 q-47 -25 -101 -41 q0 -29 0 -39 q1 -10 4 -14 q5 -9 34 -9 q36 0 64 6 l5 1 q3 1 6 1 q7 0 11 -4 q3 -4 3 -8 q0 -6 -11 -7 q-22 -3 -68 -3 q-20 0 -31 2 q-12 2 -18 7 q-8 7 -11 18 q-2 9 -2 23 l0 100 q0 8 -4 13 q-4 3 -14 7 l2 7 q17 -1 29 -7 q6 -3 6 -10 q0 0 -2 -10 q-1 -5 -1 -14 q-2 -22 -2 -51 ZM185 193 q17 -6 26 -15 q9 -8 9 -15 q0 -9 -8 -9 q-6 0 -9 8 q-6 15 -21 26 l3 5 ZM209 210 q16 -5 26 -14 q9 -7 9 -14 q0 -9 -8 -9 q-4 0 -8 8 q-6 13 -23 24 l4 5 Z" /><glyph glyph-name="uni30D6" unicode="&#x30d6;" d="M44 170 q8 -7 14 -10 q5 -2 12 -2 q10 0 42 2 q34 2 63 6 q7 1 11 5 q3 1 5 1 q4 0 12 -8 q7 -7 7 -11 q0 -2 -5 -6 q-3 -2 -7 -12 q-21 -53 -46 -80 q-34 -36 -87 -57 l-4 6 q56 28 87 71 q25 33 37 81 q-49 -5 -97 -11 q-12 -2 -16 -4 q-4 -2 -8 -2 q-6 0 -13 9 q-7 6 -12 17 l5 5 ZM197 204 q16 -6 26 -14 q8 -8 8 -15 q0 -9 -8 -9 q-5 0 -8 8 q-7 14 -22 25 l4 5 ZM220 222 q17 -5 27 -14 q8 -8 8 -15 q0 -9 -7 -9 q-5 0 -9 9 q-6 12 -23 24 l4 5 Z" /><glyph glyph-name="uni30DE" unicode="&#x30de;" d="M136 64 q13 -12 20 -22 q5 -8 5 -12 q0 -13 -8 -13 q-5 0 -12 13 q-13 21 -29 36 q-14 13 -38 29 l4 6 q31 -15 52 -31 q34 32 67 78 q-70 -6 -128 -13 q-5 -1 -8 -2 q-6 -2 -7 -2 q-6 0 -13 8 q-7 7 -12 17 l6 4 q8 -7 13 -9 q6 -2 12 -2 q19 0 60 3 q42 4 64 5 q11 1 17 5 q4 3 6 3 q3 0 11 -8 q8 -7 8 -11 q0 -4 -6 -6 q-6 -3 -15 -11 q-33 -37 -69 -65 Z" /><glyph glyph-name="uni30E0" unicode="&#x30e0;" d="M55 31 q26 51 45 99 q14 37 14 43 q0 9 -10 14 l4 7 q29 -11 29 -21 q0 -4 -4 -11 q-1 -2 -8 -15 l-9 -20 l-49 -95 q38 5 122 22 q-12 22 -34 47 l6 5 q26 -21 42 -46 q17 -24 17 -39 q0 -13 -10 -13 q-7 0 -9 7 q-4 20 -9 31 q-55 -15 -115 -28 q-13 -2 -19 -5 q-5 -2 -8 -2 q-10 0 -21 24 l5 4 q6 -8 15 -8 q2 0 6 0 Z" /><glyph glyph-name="uni30E1" unicode="&#x30e1;" d="M130 97 q-25 17 -60 32 l3 7 q37 -12 64 -27 q13 20 24 48 q5 11 5 17 q0 6 -12 12 l3 7 q15 -4 24 -9 q7 -4 7 -8 q0 -4 -4 -11 q-3 -8 -5 -12 q-18 -35 -29 -52 q20 -11 32 -25 q11 -12 11 -20 q0 -11 -9 -11 q-4 0 -9 8 q-12 18 -33 36 q-41 -58 -103 -87 l-4 6 q33 20 56 43 q19 18 39 46 Z" /><glyph glyph-name="uni30E4" unicode="&#x30e4;" d="M98 146 q-7 29 -11 36 q-4 7 -17 8 l-1 7 q9 2 16 2 q10 0 15 -2 q4 -2 5 -8 q2 -23 8 -55 q55 12 74 17 q10 2 14 6 q2 3 4 3 q3 0 12 -6 q8 -6 8 -10 q0 -4 -5 -6 q-6 -2 -13 -10 q-24 -29 -47 -46 l-5 5 q30 32 44 56 l-84 -19 q9 -45 22 -96 q5 -19 5 -25 q0 -12 -9 -12 q-7 0 -9 12 q-10 66 -21 117 q-24 -5 -38 -10 q-5 -2 -6 -2 q-3 -2 -5 -2 q-9 0 -26 20 l5 5 q10 -7 20 -7 q7 0 48 8 l-3 14 Z" /><glyph glyph-name="uni30E5" unicode="&#x30e5;" d="M152 40 q4 35 7 74 q-28 -2 -51 -5 q-11 -1 -13 -1 q-5 -2 -7 -2 q-10 0 -21 18 l6 5 q6 -6 10 -7 q3 -1 10 -1 q11 0 23 0 l32 3 q7 1 11 4 q3 2 5 2 q5 0 11 -6 q6 -6 6 -9 q0 -2 -4 -5 q-3 -2 -4 -8 q-3 -32 -8 -62 l14 1 q6 0 11 2 q4 2 7 2 q8 0 13 -3 q5 -3 5 -8 q0 -6 -8 -6 l-16 0 q-13 1 -22 1 q-31 0 -89 -7 q-7 -1 -9 -2 q-5 -1 -6 -1 q-10 0 -22 20 l5 5 q7 -6 12 -8 q4 -2 10 -2 l82 6 Z" /><glyph glyph-name="uni30E9" unicode="&#x30e9;" d="M74 190 q11 -9 26 -9 q10 0 22 1 q13 1 24 2 q9 1 14 4 q3 2 8 2 q7 0 12 -4 q5 -3 5 -6 q0 -7 -7 -7 l-17 -1 q-16 0 -60 -4 q0 0 -3 0 q-1 0 -2 0 q-1 -1 -2 -1 l-4 0 q-10 0 -22 18 l6 5 ZM50 136 q8 -6 13 -8 q4 -2 12 -2 q12 0 34 2 l65 5 q9 1 14 4 q2 2 4 2 q4 0 11 -7 q6 -7 6 -11 q0 -3 -5 -5 q-3 -2 -6 -9 q-20 -45 -49 -72 q-28 -25 -69 -40 l-4 7 q83 37 108 120 q-41 -2 -89 -8 q-12 -1 -19 -4 q-4 -1 -7 -1 q-6 0 -14 8 q-6 6 -10 15 l5 4 Z" /><glyph glyph-name="uni30EB" unicode="&#x30eb;" d="M20 12 q32 25 46 57 q13 28 13 66 q0 10 -4 14 q-5 4 -11 6 l3 7 q13 -2 22 -6 q9 -5 9 -11 q0 -3 -1 -7 q-2 -8 -3 -17 q-5 -45 -23 -72 q-16 -24 -47 -43 l-4 6 ZM241 113 q-16 -27 -41 -50 q-16 -16 -47 -38 q-6 -5 -8 -8 q-3 -3 -5 -3 q-5 0 -10 7 q-4 6 -4 9 l1 2 q1 1 1 2 q1 3 1 12 q1 9 1 72 q0 44 -2 50 q-3 8 -14 12 l2 7 q20 -3 26 -7 q6 -4 6 -10 q0 -3 -2 -9 q-1 -7 -1 -18 q-2 -77 -2 -104 q28 15 51 36 q19 16 42 43 l5 -5 Z" /><glyph glyph-name="uni30EC" unicode="&#x30ec;" d="M227 130 q-31 -41 -57 -64 q-29 -24 -73 -48 q-5 -4 -8 -8 q-3 -3 -5 -3 q-5 0 -12 9 q-5 7 -5 12 q0 2 1 4 q3 8 3 63 q0 69 -2 74 q-1 5 -5 8 q-2 2 -9 5 l2 7 q16 -2 25 -8 q8 -4 8 -9 q0 -3 -2 -8 q-1 -5 -2 -18 l-2 -114 q74 31 137 103 l6 -5 Z" /><glyph glyph-name="uni30ED" unicode="&#x30ed;" d="M190 51 q6 -3 9 -7 q2 -2 2 -4 q0 -3 -3 -5 q-3 0 -9 0 q-48 0 -111 -4 q0 -12 -2 -16 q-2 -4 -6 -4 q-8 0 -8 13 q-1 22 -4 70 q-1 41 -4 52 q-1 8 -14 17 l4 7 q18 -8 29 -18 q7 0 52 3 q25 1 42 2 q11 0 16 4 q5 4 8 4 q4 0 11 -6 q8 -7 8 -12 q0 -2 -5 -6 q-3 -3 -4 -10 l-11 -80 ZM175 48 q6 55 9 99 q-68 -3 -112 -7 q1 -28 5 -97 q74 5 98 5 Z" /><glyph glyph-name="uni30F3" unicode="&#x30f3;" d="M53 178 q30 -9 44 -22 q11 -11 11 -20 q0 -13 -9 -13 q-5 0 -11 10 q-14 24 -38 39 l3 6 ZM57 39 q7 -10 14 -10 q8 0 25 9 q81 42 129 113 l6 -5 q-24 -43 -56 -72 q-30 -28 -73 -52 q-15 -8 -18 -11 q-5 -4 -12 -4 q-4 0 -11 9 q-7 8 -10 19 l6 4 Z" /><glyph glyph-name="uni30FB" unicode="&#x30fb;" d="M128 116 q8 0 13 -6 q6 -5 6 -13 q0 -5 -3 -9 q-6 -9 -16 -9 q-7 0 -12 4 q-6 6 -6 14 q0 10 8 16 q4 3 10 3 Z" /><glyph glyph-name="uni30FC" unicode="&#x30fc;" d="M31 114 q12 -13 26 -13 q25 0 45 1 q20 1 77 4 q14 1 20 3 q4 1 7 1 q7 0 14 -3 q7 -4 7 -9 q0 -8 -10 -8 l-13 1 q-10 1 -23 1 q-32 0 -114 -6 q-6 -1 -9 -2 q-5 -1 -6 -1 q-14 0 -26 26 l5 5 Z" /><glyph glyph-name="uni3B74" unicode="&#x3b74;" d="M67 118 l0 -89 q0 -22 1 -48 l-15 -6 q1 26 1 48 l0 80 q-17 -41 -40 -71 l-4 3 q31 53 41 107 l-12 0 q-10 0 -19 -2 l-9 9 l43 0 l0 19 q0 22 -1 42 l24 -10 l-10 -9 l0 -42 l9 0 l12 12 l18 -19 l-39 0 l0 -18 q19 -9 25 -16 q6 -7 6 -13 q0 -3 -2 -7.5 q-2 -4.5 -3 -4.5 q-3 0 -7 10 q-7 14 -19 25 ZM106 180 l22 -10 l-8 -7 l0 -67 l-14 -8 q1 34 1 53.5 q0 19.5 -1 38.5 ZM135 207 l23 -10 l-9 -8 l0 -57 l1 -57 l-15 -6 l1 33 l0 63 q0 24 -1 42 ZM155 182 l57 0 l9 9 l14 -14 l-9 -6 q-10 -31 -25 -58 q19 -20 44 -27 l0 -3 q-10 -1 -17 -10 q-21 15 -34 30 q-22 -22 -40 -30 l-2 3 q24 20 35 37 q-14 29 -19 62 l-5 -3 l-8 10 ZM173 175 q6 -26 21 -51 q10 19 19 51 l-40 0 ZM157 41 q0 15 -1 32 l23 -10 l-9 -7 l0 -15 l34 0 l12 12 l18 -19 l-64 0 l0 -40 l46 0 l12 12 l18 -19 l-135 0 q-10 0 -19 -2 l-9 9 l74 0 l0 40 l-26 0 q-10 0 -19 -2 l-9 9 l54 0 Z" /><glyph glyph-name=".notdef" unicode="&#x4e00;" d="M14 106 l186 0 l20 16 l22 -22 l-192 0 q-16 0 -27 -3 l-9 9 Z" /><glyph glyph-name=".notdef" unicode="&#x4e03;" d="M108 111 q0 74 -1 96 l25 -11 l-9 -7 l0 -74 l82 21 l11 16 l23 -14 l-116 -29 l0 -89 q-1 -16 20 -16 l65 0 q11 -1 13 19.5 q2 20.5 3 38.5 l5 0 q1 -24 3 -39 q2 -15 13 -17 q-6 -16 -35 -15 l-74 0 q-29 1 -28 23 l0 91 l-65 -16 q-13 -3 -21 -9 l-13 7 l99 24 Z" /><glyph glyph-name=".notdef" unicode="&#x4e07;" d="M210 113 q-4 -84 -8 -99 q-4 -15 -14 -22 q-10 -7 -23 -10 q1 13 -32 26 l1 5 q23 -6 36.5 -6.5 q13.5 -0.5 17 24.5 q3.5 25 6.5 85 l-81 0 q-8 -51 -32 -85.5 q-24 -34.5 -63 -55.5 l-2 3 q35 24 58.5 69.5 q23.5 45.5 25.5 125.5 l-51 0 q-13 0 -24 -3 l-9 9 l188 0 l15 15 l21 -21 l-122 0 q-1 -26 -4 -51 l78 0 l9 12 l18 -14 l-9 -7 Z" /><glyph glyph-name=".notdef" unicode="&#x4e08;" d="M135 155 q0 35 -1 54 l25 -11 l-9 -7 l0 -36 l53 0 l16 16 l22 -22 l-91 0 q0 -62 -17 -107 q24 -20 54.5 -30 q30.5 -10 51.5 -9 l0 -4 q-21 -5 -24 -19 q-52 14 -91 48 q-41 -42 -106 -54 l-1 3 q63 21 95 61 q-35 43 -53 93 l4 2 q26 -50 57 -80 q13 31 15 96 l-83 0 q-13 0 -24 -3 l-9 9 l116 0 Z" /><glyph glyph-name=".notdef" unicode="&#x4e09;" d="M30 172 l165 0 l15 15 l21 -21 l-169 0 q-12 0 -23 -3 l-9 9 ZM45 92 l130 0 l15 15 l21 -21 l-134 0 q-12 0 -23 -3 l-9 9 ZM10 7 l198 0 l16 16 l22 -22 l-204 0 q-12 0 -23 -3 l-9 9 Z" /><glyph glyph-name=".notdef" unicode="&#x4e0a;" d="M109 207 l27 -12 l-11 -8 l0 -67 l59 0 l15 15 l21 -21 l-95 0 l0 -113 l82 0 l16 16 l22 -22 l-200 0 q-13 0 -24 -3 l-9 9 l98 0 l0 168 q0 18 -1 38 Z" /><glyph glyph-name=".notdef" unicode="&#x4e0b;" d="M18 183 l185 0 l15 15 l21 -21 l-109 0 l0 -52 q60 -18 69.5 -28.5 q9.5 -10.5 9.5 -18.5 q0 -3 -2.5 -8.5 q-2.5 -5.5 -4.5 -5.5 q-4 0 -14 13 q-14 19 -58 43 l0 -102 q0 -21 1 -35 l-17 -7 q1 37 1 51 l0 150 l-64 0 q-13 0 -24 -3 l-9 9 Z" /><glyph glyph-name=".notdef" unicode="&#x4e0d;" d="M135 127 l0 -96 q0 -30 1 -46 l-17 -7 q1 38 1 66 l0 88 q-40 -61 -104 -98 l-2 4 q33 24 63.5 60.5 q30.5 36.5 49.5 85.5 l-78 0 q-13 0 -24 -3 l-9 9 l190 0 l15 15 l21 -21 l-95 0 q-9 -17 -20 -40 l17 -10 l-9 -7 ZM156 124 l3 3 q64 -42 70.5 -52 q6.5 -10 6.5 -16 q0 -4 -3 -9.5 q-3 -5.5 -5 -5.5 q-4 0 -12 16 q-12 21 -60 64 Z" /><glyph glyph-name=".notdef" unicode="&#x4e0e;" d="M15 50 l135 0 l13 13 l19 -19 l-135 0 q-12 0 -23 -3 l-9 9 ZM68 104 q4 61 4.5 74 q0.5 13 0.5 30 l23 -11 l-8 -6 l-2 -37 l117 0 l13 13 l19 -19 l-149 0 l-3 -47 l118 0 l8 12 l18 -13 l-9 -8 q-2 -37 -6 -64.5 q-4 -27.5 -14.5 -37 q-10.5 -9.5 -27.5 -13.5 q1 13 -33 23 l1 5 q22 -5 38 -5 q16 0 21 29.5 q5 29.5 6 65.5 l-119 0 l-8 -10 l-16 12 l8 7 Z" /><glyph glyph-name=".notdef" unicode="&#x4e11;" d="M106 95 l-9 -96 l82 0 l7 96 l-80 0 ZM34 180 l157 0 l10 10 l16 -14 l-10 -7 l-12 -170 l11 0 l16 16 l22 -22 l-199 0 q-13 0 -24 -3 l-9 9 l70 0 l9 96 l-21 0 q-13 0 -24 -3 l-9 9 l54 0 l5 73 l-29 0 q-13 0 -24 -3 l-9 9 ZM111 174 l-5 -73 l80 0 l5 73 l-80 0 Z" /><glyph glyph-name=".notdef" unicode="&#x4e13;" d="M95 115 q4 17 8 43 l-34 0 q-13 0 -24 -3 l-9 9 l68 0 q3 19 6 46 l21 -12 l-7 -5 q-3 -14 -5 -29 l59 0 l16 13 l17 -19 l-93 0 q-4 -23 -8 -43 l97 0 l16 14 l19 -20 l-133 0 q-5 -23 -10 -38 l83 0 l9 10 l19 -19 q-13 -3 -27 -16 q-14 -13 -35 -35 q22 -9 23 -15 q1 -6 1 -9 q0 -5 -1.5 -8.5 q-1.5 -3.5 -2.5 -3.5 q-3 0 -8 6 q-9 9 -27 21 q-18 12 -49 27 l1 4 q34 -10 57 -20 q15 18 40 52 l-84 0 l-7 -8 l-13 13 q5 4 7.5 8.5 q2.5 4.5 8.5 30.5 l-50 0 q-13 0 -24 -3 l-9 9 l84 0 Z" /><glyph glyph-name=".notdef" unicode="&#x4e14;" d="M68 200 l16 -10 l88 0 l7 11 l18 -13 l-8 -7 l0 -184 l15 0 l17 17 l23 -23 l-201 0 q-13 0 -24 -3 l-9 9 l59 0 l0 165 q0 14 -1 38 ZM84 184 l0 -57 l90 0 l0 57 l-90 0 ZM84 121 l0 -57 l90 0 l0 57 l-90 0 ZM84 58 l0 -61 l90 0 l0 61 l-90 0 Z" /><glyph glyph-name=".notdef" unicode="&#x4e16;" d="M48 188 l24 -11 l-9 -7 l0 -40 l45 0 l0 42 q0 17 -1 33 l24 -10 l-9 -8 l0 -57 l56 0 l0 43 q0 16 -1 34 l25 -11 l-10 -7 l0 -59 l17 0 l15 15 l21 -21 l-53 0 l0 -77 q0 -4 1 -17 l-15 -7 l0 20 l-56 0 l0 -17 l-15 -6 q1 18 1 22 l0 82 l-45 0 l0 -129 l144 0 l16 15 l21 -21 l-180 0 l-7 -9 l-16 13 l8 7 l0 124 l-6 0 q-13 0 -24 -3 l-9 9 l39 0 l0 27 q0 17 -1 31 ZM122 124 l0 -75 l56 0 l0 75 l-56 0 Z" /><glyph glyph-name=".notdef" unicode="&#x4e18;" d="M75 102 l0 -100 l75 0 l0 100 l-75 0 ZM192 204 l17 -21 q-11 0 -59 -8 q-48 -9 -75 -13 l0 -54 l118 0 l15 15 l21 -21 l-64 0 l0 -100 l43 0 l16 16 l22 -22 l-203 0 q-13 0 -24 -3 l-9 9 l49 0 l0 142 q0 13 -1 34 l16 -10 q33 4 70.5 15 q37.5 11 47.5 21 Z" /><glyph glyph-name=".notdef" unicode="&#x4e1a;" d="M26 149 q46 -63 49 -78.5 q3 -15.5 -3 -22.5 q-6 -7 -8 -7 q-5 0 -7 18 q-4 25 -34 88 l3 2 ZM93 167 q0 16 -1 37 l24 -12 l-9 -8 l0 -184 l41 0 l0 166 q0 14 -1 38 l25 -12 l-10 -7 l0 -144 q38 57 52 111 l24 -17 l-11 -5 q-36 -68 -65 -97 l0 -33 l47 0 l16 16 l22 -22 l-205 0 q-13 0 -24 -3 l-9 9 l84 0 l0 167 Z" /><glyph glyph-name=".notdef" unicode="&#x4e1b;" d="M93 188 q-1 -38 -4 -73 q36 -22 38.5 -29.5 q2.5 -7.5 2.5 -10.5 q0 -6 -3 -10.5 q-3 -4.5 -5 -4.5 q-4 0 -9 13 q-7 18 -25 36 q-9 -61 -65 -101 l-2 3 q47 41 52.5 99 q5.5 58 3.5 96 l24 -10 l-8 -8 ZM11 1 l198 0 l15 15 l21 -21 l-200 0 q-14 0 -25 -3 l-9 9 ZM100 9 q38 39 47.5 92 q9.5 53 6.5 107 l24 -11 l-8 -8 q-1 -26 4.5 -55 q5.5 -29 21.5 -62.5 q16 -33.5 41 -45.5 l0 -3 q-19 0 -23 -9 q-16 17 -28 47 q-12 30 -19 82 q-4 -50 -18 -80.5 q-14 -30.5 -46 -55.5 l-3 2 Z" /><glyph glyph-name=".notdef" unicode="&#x4e1c;" d="M88 2 q23 -4 31.5 -4 q8.5 0 8.5 7 l0 84 l-60 0 l-9 -9 l-14 13 q9 5 20.5 19.5 q11.5 14.5 30.5 49.5 l-40 0 q-13 0 -24 -3 l-9 9 l75 0 q15 32 16 42 l20 -12 q-8 -6 -20 -30 l84 0 l14 14 l20 -20 l-120 0 q-22 -41 -43 -67 l59 0 q0 30 -1 44 l23 -11 l-8 -7 l0 -26 l45 0 l13 13 l19 -19 l-77 0 l0 -89 q1 -17 -22 -26 q-1 13 -33 24 l1 4 ZM90 78 l20 -16 q-9 -2 -31 -23 q-23 -22 -58 -44 l-2 4 q47 35 71 79 ZM163 72 q57 -34 63.5 -43 q6.5 -9 6.5 -17 q0 -5 -2.5 -9.5 q-2.5 -4.5 -4.5 -4.5 q-4 0 -12 15 q-11 20 -54 56 l3 3 Z" /><glyph glyph-name=".notdef" unicode="&#x4e1d;" d="M40 112 q13 2 44 3 q10 16 20 39 l18 -14 q-9 -5 -16 -16 q-8 -11 -58 -74 q13 1 75 10 l1 -5 q-76 -16 -83 -28 l-13 22 q9 1 26.5 23.5 q17.5 22.5 26.5 37.5 q-36 -6 -45 -16 l-12 20 q11 0 26 32 q15 32 21 57 l20 -12 q-9 -6 -24 -34 q-16 -28 -27 -45 ZM12 3 l193 0 l16 16 l22 -22 l-196 0 q-15 0 -26 -3 l-9 9 ZM170 204 l20 -13 q-10 -6 -24 -29 q-14 -24 -29 -46 q9 0 45 1 q12 18 22 42 l18 -16 q-9 -4 -18 -17 q-9 -13 -56 -76 q56 5 76 8 l1 -5 q-74 -13 -83 -24 l-12 23 q7 0 14.5 8 q7.5 8 35.5 52 q-45 -8 -49 -14 l-10 20 q11 0 27 31.5 q16 31.5 22 54.5 Z" /><glyph glyph-name=".notdef" unicode="&#x4e1f;" d="M120 88 l0 48 l-35 0 q-13 0 -24 -3 l-9 9 l68 0 l0 41 l-52 0 q-13 0 -24 -3 l-9 9 l154 0 l13 13 l19 -19 l-86 0 l0 -41 l51 0 l12 12 l18 -18 l-81 0 l0 -48 l69 0 l15 15 l21 -21 l-123 0 l18 -14 q-10 -4 -26 -24 q-16 -20 -38 -43 q88 4 126 4 q-14 18 -33 35 l2 3 q46 -26 52 -35 q6 -9 6 -14 q0 -4 -3.5 -9.5 q-3.5 -5.5 -6.5 -5.5 q-2 0 -4 4 q-4 9 -10 17 q-124 -8 -137 -19 l-12 21 q12 0 33 26.5 q21 26.5 31 53.5 l-66 0 q-13 0 -24 -3 l-9 9 l104 0 Z" /><glyph glyph-name=".notdef" unicode="&#x4e22;" d="M169 40 q34 -20 43.5 -30.5 q9.5 -10.5 9.5 -17.5 q0 -4 -3.5 -9.5 q-3.5 -5.5 -5.5 -5.5 q-2 0 -5 5 q-5 10 -9 17 q-131 -10 -145 -20 l-11 22 q12 2 35 25.5 q23 23.5 41 52.5 l-73 0 q-13 0 -24 -3 l-9 9 l109 0 l0 48 l-45 0 q-13 0 -24 -3 l-9 9 l78 0 l0 40 q-34 -2 -76 -4 l0 5 q44 3 87 10.5 q43 7.5 58 16.5 l16 -18 q-12 0 -70 -8 l0 -42 l49 0 l13 13 l19 -19 l-81 0 l0 -48 l71 0 l14 14 l20 -20 l-120 0 l18 -15 l-11 -3 q-43 -45 -68 -61 l135 5 q-9 13 -30 32 l3 3 Z" /><glyph glyph-name=".notdef" unicode="&#x4e24;" d="M48 128 l0 -145 l-15 -8 q1 31 1 90 q0 59 -1 77 l15 -8 l41 0 l0 47 l-45 0 q-13 0 -24 -3 l-9 9 l197 0 l15 15 l21 -21 l-83 0 l0 -47 l42 0 l8 10 l17 -13 l-9 -6 l0 -120 q0 -19 -22 -28 q-2 14 -34 22 l0 5 q24 -4 33 -3.5 q9 0.5 9 14.5 l0 113 l-44 0 q-1 -23 -4 -38 q34 -17 36.5 -23 q2.5 -6 2.5 -10 q0 -5 -3 -10.5 q-3 -5.5 -4 -5.5 q-3 0 -7 11 q-7 16 -26 33 q-13 -41 -52 -68 l-2 3 q47 44 45 108 l-44 0 q-1 -14 -3 -30 q23 -14 25 -22.5 q2 -8.5 -1.5 -13 q-3.5 -4.5 -5.5 -4.5 q-3 0 -6 10 q-4 14 -13 25 q-12 -41 -46 -67 l-2 3 q37 39 38 99 l-41 0 ZM103 181 l0 -47 l44 0 l0 47 l-44 0 Z" /><glyph glyph-name=".notdef" unicode="&#x4e25;" d="M11 -23 q20 27 24 60 q4 33 2 73 l16 -9 l49 0 l0 81 l-38 0 q-13 0 -24 -3 l-9 9 l171 0 l14 14 l20 -20 l-70 0 l0 -64 q28 34 34 52 l18 -17 q-10 -3 -25 -17 q-15 -15 -27 -25 l0 -10 l43 0 l15 15 l21 -21 l-192 0 q1 -42 -7 -69 q-8 -27 -32 -51 l-3 2 ZM42 164 l3 2 q30 -20 33 -25.5 q3 -5.5 3 -9.5 q0 -6 -4 -12 q-4 -6 -6 -6 q-3 0 -6 10 q-4 15 -23 41 ZM116 182 l0 -81 l36 0 l0 81 l-36 0 Z" /><glyph glyph-name=".notdef" unicode="&#x4e26;" d="M66 201 l2 4 q25 -15 35 -25.5 q10 -10.5 10 -17.5 q0 -8 -6 -16 l46 0 q28 50 29 62 l23 -15 q-10 -4 -19.5 -15 q-9.5 -11 -26.5 -32 l39 0 l14 14 l20 -20 l-69 0 l0 -110 q43 67 48 92 l22 -16 q-10 -4 -23 -24 q-14 -20 -47 -60 l0 -26 l40 0 l17 17 l23 -23 l-196 0 q-13 0 -24 -3 l-9 9 l78 0 l0 144 l-33 0 q-13 0 -24 -3 l-9 9 l72 0 q-1 10 -9.5 26 q-8.5 16 -22.5 29 ZM41 118 q31 -48 33 -64.5 q2 -16.5 -3 -21 q-5 -4.5 -7 -4.5 q-6 0 -7 18 q-2 23 -20 70 l4 2 ZM149 -4 l0 144 l-43 0 l0 -144 l43 0 Z" /><glyph glyph-name=".notdef" unicode="&#x4e27;" d="M60 -5 q5 5 4 13 l0 82 l-21 0 q-13 0 -24 -3 l-9 9 l111 0 l0 65 l-59 0 q-13 0 -24 -3 l-9 9 l92 0 q0 27 -1 42 l24 -11 l-9 -7 l0 -24 l62 0 l14 14 l20 -20 l-96 0 l0 -65 l75 0 l15 15 l21 -21 l-130 0 q11 -29 30 -49 q47 27 57 42 l15 -20 q-14 0 -68 -26 q19 -18 45 -26 q26 -8 49 -9 l0 -4 q-18 -4 -21 -15 q-50 13 -75.5 39.5 q-25.5 26.5 -37.5 67.5 l-32 0 l0 -87 l52 21 l2 -4 q-49 -26 -59 -41 l-13 16 ZM182 157 l20 -15 l-9 -3 q-23 -29 -36 -39 l-3 2 q19 27 28 55 ZM62 154 q33 -21 33.5 -32 q0.5 -11 -4 -15 q-4.5 -4 -6.5 -4 q-4 0 -6 11 q-4 16 -20 38 l3 2 Z" /><glyph glyph-name=".notdef" unicode="&#x4e2a;" d="M119 -26 q1 40 1 56 l0 66 q0 18 -1 43 l24 -13 l-8 -6 l0 -100 q0 -17 1 -36 l-17 -10 ZM141 199 l-9 -6 q27 -41 56.5 -61.5 q29.5 -20.5 56.5 -24.5 l0 -4 q-16 -1 -23 -13 q-30 16 -51 38 q-21 22 -42 59 q-23 -40 -49 -64 q-26 -24 -69 -42 l-1 4 q43 21 71.5 58 q28.5 37 38.5 68 l21 -12 Z" /><glyph glyph-name=".notdef" unicode="&#x4e2d;" d="M133 145 l0 -66 l72 0 l0 66 l-72 0 ZM118 151 q0 39 -1 59 l24 -11 l-8 -8 l0 -40 l70 0 l8 12 l17 -13 l-9 -8 l0 -58 q0 -11 1 -23 l-15 -6 l0 18 l-72 0 q0 -76 1 -89 l-17 -9 q1 23 1 98 l-69 0 l0 -12 l-15 -8 q1 18 1 52 q0 34 -1 55 l15 -9 l69 0 ZM49 145 l0 -66 l69 0 l0 66 l-69 0 Z" /><glyph glyph-name=".notdef" unicode="&#x4e30;" d="M116 -24 q1 28 1 71 l-73 0 q-13 0 -24 -3 l-9 9 l106 0 l0 46 l-45 0 q-13 0 -24 -3 l-9 9 l78 0 l0 48 l-60 0 q-13 0 -24 -3 l-9 9 l93 0 l0 22 q0 8 -1 26 l25 -12 l-9 -8 l0 -28 l57 0 l14 14 l20 -20 l-91 0 l0 -48 l48 0 l13 13 l19 -19 l-80 0 l0 -46 l76 0 l15 15 l21 -21 l-112 0 q0 -47 1 -63 l-17 -8 Z" /><glyph glyph-name=".notdef" unicode="&#x4e32;" d="M130 83 l0 -38 l67 0 l0 38 l-67 0 ZM33 23 q1 19 1 37 q0 18 -1 36 l16 -7 l67 0 l0 33 l-56 0 l0 -7 l-16 -5 q1 18 1 35 q0 17 -1 34 l17 -9 l55 0 l0 10 q0 15 -1 30 l26 -13 l-11 -7 l0 -20 l57 0 l8 10 l16 -13 l-9 -6 l0 -20 q0 -13 1 -24 l-15 -6 l0 11 l-58 0 l0 -33 l65 0 l10 10 l16 -14 l-10 -6 q0 -34 1 -48 l-15 -5 l0 13 l-67 0 q0 -46 1 -57 l-16 -7 q1 21 1 64 l-67 0 l0 -9 l-16 -7 ZM60 164 l0 -36 l56 0 l0 36 l-56 0 ZM130 164 l0 -36 l58 0 l0 36 l-58 0 ZM49 83 l0 -38 l67 0 l0 38 l-67 0 Z" /><glyph glyph-name=".notdef" unicode="&#x4e34;" d="M39 55 q0 -13 1 -31 l-16 -7 q1 29 1 83.5 q0 54.5 -1 73.5 l23 -10 l-8 -7 l0 -102 ZM67 -26 q1 25 1 42 l0 163 q0 14 -1 30 l25 -11 l-10 -7 l0 -175 q0 -18 1 -34 l-16 -8 ZM153 190 q-10 -20 -16 -31 l67 0 l13 13 l19 -19 l-101 0 q-21 -38 -43 -56 l-3 2 q35 45 51 110 l23 -14 l-10 -5 ZM145 142 q25 -10 36.5 -17 q11.5 -7 11.5 -16 q0 -3 -2 -9.5 q-2 -6.5 -4 -6.5 q-3 0 -9 10 q-9 15 -35 36 l2 3 ZM225 75 q0 -73 1 -90 l-15 -7 l0 23 l-85 0 l0 -19 l-15 -6 q1 16 1 58.5 q0 42.5 -1 59.5 l15 -9 l83 0 l9 10 l16 -14 l-9 -6 ZM126 79 l0 -72 l35 0 l0 72 l-35 0 ZM175 79 l0 -72 l36 0 l0 72 l-36 0 Z" /><glyph glyph-name=".notdef" unicode="&#x4e38;" d="M184 136 l-3 -124 q1 -10 11 -9 l22 0 q7 1 9 15 q2 14 4 38 l6 0 q-1 -25 0.5 -37.5 q1.5 -12.5 11.5 -14.5 q-9 -16 -25 -15 l-33 0 q-23 -1 -21 21 l4 128 l-54 -2 q-2 -32 -5 -53 q22 -9 27 -14.5 q5 -5.5 5 -12.5 q0 -4 -1 -8.5 q-1 -4.5 -3 -4.5 q-2 0 -7 7 q-9 10 -24 22 q-18 -63 -83 -95 l-2 3 q56 36 72 99 q-19 12 -34 19 l1 4 q16 -5 35 -13 q3 20 4 46 l-55 -2 l-12 -3 l-10 9 l77 3 q0 40 -1 66 l27 -12 l-10 -8 q0 -21 -1 -45 l52 2 l9 11 l17 -13 l-10 -7 Z" /><glyph glyph-name=".notdef" unicode="&#x4e3a;" d="M50 195 q35 -21 37 -30.5 q2 -9.5 -2 -14.5 q-4 -5 -6 -5 q-4 0 -7 10 q-6 15 -25 37 l3 3 ZM122 210 l27 -13 l-10 -7 q-3 -29 -7 -58 l85 0 l8 13 l18 -14 l-9 -8 q-7 -90 -10.5 -107.5 q-3.5 -17.5 -13.5 -26.5 q-10 -9 -25 -13 q-6 17 -41 24 l0 5 q34 -5 45 -4.5 q11 0.5 16 10.5 q5 10 14 115 l-88 0 q-13 -63 -47 -99 q-34 -36 -69 -51 l-2 3 q37 24 65 61.5 q28 37.5 37 85.5 l-59 0 q-13 0 -24 -3 l-9 9 l93 0 q6 35 6 78 ZM134 96 q46 -21 51 -28.5 q5 -7.5 5 -13.5 q0 -5 -2 -10 q-2 -5 -4 -5 q-3 0 -10 11 q-10 16 -42 42 l2 4 Z" /><glyph glyph-name=".notdef" unicode="&#x4e3b;" d="M98 204 q27 -14 35.5 -21.5 q8.5 -7.5 8.5 -14.5 q0 -5 -4.5 -11 q-4.5 -6 -6.5 -6 q-4 0 -7 10 q-5 15 -28 40 l2 3 ZM27 147 l169 0 l15 15 l21 -21 l-97 0 l0 -65 l46 0 l14 14 l20 -20 l-80 0 l0 -74 l69 0 l16 16 l22 -22 l-197 0 q-13 0 -24 -3 l-9 9 l108 0 l0 73 l-44 0 q-13 0 -24 -3 l-9 9 l77 0 l0 66 l-60 0 q-13 0 -24 -3 l-9 9 Z" /><glyph glyph-name=".notdef" unicode="&#x4e3d;" d="M155 148 l0 -163 l-14 -8 q1 29 1 44 l0 102 q0 17 -1 40 l16 -9 l52 0 l6 10 l16 -12 l-8 -8 l0 -143 q0 -15 -20 -23 q0 12 -30 20 l0 5 q17 -3 27 -3 q10 0 10 11 l0 137 l-55 0 ZM167 120 q16 -21 23 -36 q7 -15 4 -23 q-3 -8 -6.5 -10 q-3.5 -2 -4.5 -2 q-4 0 -5 18 q-2 21 -14 51 l3 2 ZM46 148 l0 -163 l-14 -8 q1 35 1 97 q0 62 -1 88 l15 -8 l52 0 l9 10 l14 -13 l-8 -6 l0 -145 q0 -14 -20 -22 q1 12 -28 21 l0 4 q16 -2 25.5 -2.5 q9.5 -0.5 9.5 10.5 l0 137 l-55 0 ZM61 120 q27 -38 27 -51 q0 -13 -4.5 -16.5 q-4.5 -3.5 -6.5 -3.5 q-4 0 -5 13 q-1 17 -14 56 l3 2 ZM10 187 l200 0 l15 15 l21 -21 l-203 0 q-13 0 -24 -3 l-9 9 Z" /><glyph glyph-name=".notdef" unicode="&#x4e3e;" d="M43 200 q36 -24 39 -33 q3 -9 -1.5 -14 q-4.5 -5 -6.5 -5 q-4 0 -7 10 q-5 14 -26 39 l2 3 ZM105 208 q25 -19 30 -26.5 q5 -7.5 5 -11.5 q0 -5 -3.5 -10.5 q-3.5 -5.5 -5.5 -5.5 q-4 0 -6 10 q-4 15 -23 42 l3 2 ZM206 189 q-15 -18 -40 -48 l42 0 l14 13 l19 -19 l-78 0 q33 -47 82 -59 l0 -4 q-17 -2 -19 -11 q-45 26 -68 74 l-60 0 q-16 -30 -37 -53 l59 0 q0 21 -1 35 l22 -10 l-7 -7 l0 -18 l30 0 l12 12 l17 -18 l-59 0 l0 -35 l62 0 l14 14 l20 -20 l-96 0 q0 -40 1 -55 l-16 -7 q1 25 1 62 l-62 0 q-13 0 -24 -3 l-9 9 l95 0 l0 35 l-43 0 l-11 -4 l-7 8 q-20 -20 -48 -34 l-1 4 q47 35 71 85 l-33 0 q-13 0 -24 -3 l-9 9 l144 0 q26 40 35 67 l21 -15 l-9 -4 Z" /><glyph glyph-name=".notdef" unicode="&#x4e43;" d="M31 189 l149 0 l9 12 l18 -15 l-10 -7 q-10 -39 -17 -66 l33 0 l9 12 l18 -15 l-10 -7 q-6 -77 -15.5 -98.5 q-9.5 -21.5 -35.5 -26.5 q2 15 -36 27 l1 5 q23 -6 36 -7 q13 -1 19.5 10.5 q6.5 11.5 15.5 93.5 l-35 0 l-8 -8 l-15 13 l9 6 q7 23 16 65 l-77 0 l18 -9 l-9 -6 q-5 -71 -26 -115.5 q-21 -44.5 -75 -77.5 l-2 3 q52 39 69 92.5 q17 53.5 17 112.5 l-33 0 q-13 0 -24 -3 l-9 9 Z" /><glyph glyph-name=".notdef" unicode="&#x4e45;" d="M162 143 q-6 -15 -13 -32 q13 -40 35 -69.5 q22 -29.5 58 -42.5 l0 -4 q-21 -1 -24 -12 q-51 37 -72 121 q-41 -91 -131 -128 l-2 4 q51 26 83.5 69 q32.5 43 48.5 97 l-51 0 q-22 -43 -60 -75 l-3 3 q31 33 47.5 71.5 q16.5 38.5 20.5 62.5 l24 -13 l-10 -6 q-7 -17 -17 -37 l49 0 l10 11 l17 -14 l-10 -6 Z" /><glyph glyph-name=".notdef" unicode="&#x4e48;" d="M134 182 q-48 -75 -117 -115 l-2 4 q43 33 70 67.5 q27 34.5 40 67.5 l22 -19 l-13 -5 ZM73 17 q29 1 120 6 q-13 23 -34 48 l3 3 q54 -45 57 -54.5 q3 -9.5 3 -14.5 q0 -8 -4.5 -13.5 q-4.5 -5.5 -6.5 -5.5 q-2 0 -5 7 q-4 11 -10 25 q-120 -12 -131 -25 l-14 24 q13 0 50 37.5 q37 37.5 60 91.5 l21 -17 l-11 -5 q-31 -43 -57 -69.5 q-26 -26.5 -41 -37.5 Z" /><glyph glyph-name=".notdef" unicode="&#x4e49;" d="M103 209 q19 -13 29 -22.5 q10 -9.5 10 -16.5 q0 -5 -4.5 -12 q-4.5 -7 -7.5 -7 q-4 0 -6 11 q-5 18 -24 45 l3 2 ZM183 191 l25 -17 l-10 -5 q-26 -80 -56 -119 q51 -48 101 -54 l0 -4 q-18 -3 -24 -15 q-45 18 -86 63 q-49 -47 -119 -65 l-1 4 q64 21 111 71 q-34 47 -61 120 l4 2 q37 -80 66 -111 q16 24 28 54.5 q12 30.5 22 75.5 Z" /><glyph glyph-name=".notdef" unicode="&#x4e4b;" d="M97 206 q32 -16 34.5 -22 q2.5 -6 2.5 -9 q0 -5 -4 -10.5 q-4 -5.5 -5 -5.5 q-4 0 -7 9 q-5 13 -23 35 l2 3 ZM65 27 q-23 -12 -38 -34 l-15 16 q14 9 33 18 q19 9 59.5 49.5 q40.5 40.5 64.5 68.5 l-113 0 q-13 0 -24 -3 l-9 9 l146 0 l11 12 l20 -20 q-12 0 -32 -21 q-21 -22 -97 -91 q18 -23 47 -25.5 q29 -2.5 50 -2.5 q38 0 78 5 l0 -4 q-22 -6 -24 -19 q-74 0 -103 5.5 q-29 5.5 -54 36.5 Z" /><glyph glyph-name=".notdef" unicode="&#x4e4d;" d="M106 -25 q1 30 1 180 l-31 0 q-28 -40 -60 -65 l-2 3 q27 26 45.5 59 q18.5 33 25.5 57 l22 -14 q-11 -6 -28 -34 l125 0 l16 16 l22 -22 l-120 0 l0 -51 l63 0 l15 15 l21 -21 l-99 0 l0 -50 l79 0 l15 15 l21 -21 l-115 0 l0 -20 q0 -21 1 -39 l-17 -8 Z" /><glyph glyph-name=".notdef" unicode="&#x4e4e;" d="M53 155 l3 3 q33 -26 34.5 -31.5 q1.5 -5.5 1.5 -8.5 q0 -7 -4 -11 q-4 -4 -6 -4 q-4 0 -7 11 q-4 16 -22 41 ZM190 168 l21 -14 l-10 -4 q-21 -33 -41 -52 l-3 2 q25 37 33 68 ZM75 6 q26 -5 35.5 -5 q9.5 0 10.5 11 l0 73 l-75 0 q-13 0 -24 -3 l-9 9 l108 0 l0 85 q-35 -3 -91 -5 l0 5 q55 3 100.5 11.5 q45.5 8.5 70.5 20.5 l15 -19 q-18 -1 -80 -11 l0 -87 l72 0 l15 15 l21 -21 l-108 0 l0 -83 q0 -18 -25 -27 q1 15 -36 26 l0 5 Z" /><glyph glyph-name=".notdef" unicode="&#x4e4f;" d="M199 202 l18 -22 q-20 0 -78 -6 q-58 -7 -110 -8 l0 5 q53 3 101.5 11.5 q48.5 8.5 68.5 19.5 ZM103 167 q33 -17 36 -25.5 q3 -8.5 -2 -14 q-5 -5.5 -7 -5.5 q-4 0 -7 9 q-5 13 -23 33 l3 3 ZM72 30 q25 -20 48 -22.5 q23 -2.5 46 -2.5 q36 0 78 4 l0 -3 q-19 -8 -22 -19 q-66 1 -96 7 q-30 6 -61 33 q-18 -10 -28 -32 l-15 13 q15 14 32 22 q16 7 53.5 30.5 q37.5 23.5 70.5 49.5 l-110 0 q-13 0 -24 -3 l-9 9 l144 0 l13 11 l16 -19 l-12 -2 q-81 -54 -124 -76 Z" /><glyph glyph-name=".notdef" unicode="&#x4e50;" d="M132 102 q0 43 -1 61 l25 -12 l-10 -7 l0 -42 l58 0 l14 14 l20 -20 l-92 0 l0 -94 q0 -19 -24 -27 q1 15 -34 24 l0 5 q21 -3 33 -3.5 q12 -0.5 11 9.5 l0 86 l-70 0 l-8 -9 l-15 13 l8 6 q6 42 11 83 l13 -11 q50 4 80 10.5 q30 6.5 42 14.5 l17 -18 q-17 -1 -57 -6 q-41 -5 -82 -6 l-10 -71 l71 0 ZM97 58 q-37 -41 -77 -64 l-2 3 q23 18 41.5 39.5 q18.5 21.5 28.5 41.5 l20 -17 l-11 -3 ZM169 73 q53 -37 55.5 -44.5 q2.5 -7.5 2.5 -13.5 q0 -8 -3.5 -13.5 q-3.5 -5.5 -5.5 -5.5 q-4 0 -11 18 q-9 23 -41 56 l3 3 Z" /><glyph glyph-name=".notdef" unicode="&#x4e58;" d="M163 122 q0 10 -1 23 l-30 0 l0 -53 q40 -69 108 -81 l0 -4 q-17 -2 -24 -12 q-56 30 -84 87 l0 -67 q0 -21 1 -32 l-16 -8 q1 38 1 93 q-39 -53 -107 -82 l-1 4 q70 39 108 103 l0 52 l-45 0 l19 -9 l-7 -7 q0 -49 1 -63 l-15 -8 q1 11 1 20 q-38 -15 -46 -22 l-10 16 q23 3 56 11 l0 26 l-17 0 q-13 0 -24 -3 l-9 9 l50 0 q0 17 -1 30 l-25 0 q-13 0 -24 -3 l-9 9 l105 0 l0 32 q-38 -3 -76 -4 l0 4 q50 4 92 11.5 q42 7.5 56 15.5 l16 -19 q-20 -1 -74 -7 l0 -33 l72 0 l15 15 l21 -21 l-76 0 l20 -9 l-8 -7 l0 -24 q23 10 41 29 l16 -16 q-12 -2 -57 -18 l0 -17 q0 -11 12 -11 l30 0 q8 0 9 33 l4 0 q1 -15 3 -22 q2 -7 9 -10 q-5 -9 -11.5 -11 q-6.5 -2 -12.5 -2 l-35 0 q-21 -1 -21 15 l0 47 Z" /><glyph glyph-name=".notdef" unicode="&#x4e59;" d="M35 178 l116 0 l12 11 l19 -19 q-14 0 -57.5 -48 q-43.5 -48 -57.5 -69.5 q-14 -21.5 -14 -31.5 q0 -4 2.5 -9 q2.5 -5 18.5 -5 l124 0 q11 3 13 14 q2 11 3 48 l5 0 q1 -26 3.5 -40 q2.5 -14 14.5 -16 q-7 -17 -34 -18 l-135 0 q-19 0 -25.5 9 q-6.5 9 -6.5 16 q0 10 11.5 32 q11.5 22 104.5 120 l-84 0 q-13 0 -24 -3 l-9 9 Z" /><glyph glyph-name=".notdef" unicode="&#x4e5d;" d="M91 139 q2 50 1 68 l23 -11 l-8 -8 l-2 -48 l51 2 l8 10 l16 -13 l-10 -7 l1 -122 q0 -13 12 -13 l31 0 q8 0 10.5 14 q2.5 14 2.5 33 l5 0 q1 -23 2.5 -32.5 q1.5 -9.5 9.5 -10.5 q-7 -15 -23 -16 l-41 0 q-25 -1 -23 22 l0 129 l-52 -2 q-5 -62 -26.5 -97 q-21.5 -35 -60.5 -59 l-2 3 q34 27 52.5 61.5 q18.5 34.5 22.5 90.5 l-37 -1 q-11 -1 -16 -3 l-10 8 l63 2 Z" /><glyph glyph-name=".notdef" unicode="&#x4e5f;" d="M57 110 q0 43 -1 68 l23 -11 l-8 -6 l0 -47 l50 17 q0 58 -1 77 l23 -10 l-8 -7 l0 -56 l59 22 l6 13 l18 -11 l-8 -8 q-2 -54 -6.5 -76.5 q-4.5 -22.5 -29.5 -27.5 q1 12 -27 20 l0 4 q19 -2 28 -2 q9 0 13.5 6.5 q4.5 6.5 7.5 74.5 l-61 -22 l0 -68 q0 -13 1 -26 l-16 -8 q1 18 1 31 l0 67 l-50 -17 l0 -91 q-1 -17 17 -16 l118 0 q6 0 10 8 q4 8 6 46 l5 0 q0 -30 2 -39 q2 -9 12 -12 q-8 -15 -24 -15 l-138 0 q-22 0 -22 20 l0 95 l-24 -8 l-7 -5 l-11 6 l42 14 Z" /><glyph glyph-name=".notdef" unicode="&#x4e60;" d="M136 14 q31 -6 43.5 -5.5 q12.5 0.5 12.5 16.5 l4 150 l-128 0 q-13 0 -24 -3 l-9 9 l159 0 l9 11 l17 -13 l-9 -7 l-4 -151 q0 -30 -30 -39 q1 14 -42 27 l1 5 ZM27 36 q27 4 149 57 l2 -4 q-127 -62 -133 -76 l-18 23 ZM79 153 q38 -16 44 -22.5 q6 -6.5 6 -12.5 q0 -6 -3 -11.5 q-3 -5.5 -5 -5.5 q-4 0 -9 10 q-9 16 -35 39 l2 3 Z" /><glyph glyph-name=".notdef" unicode="&#x4e61;" d="M126 210 l21 -15 q-12 -3 -37 -28 q-25 -25 -36 -33 q49 2 83 3 q20 20 28 33 l19 -18 q-13 -4 -43 -30 q-31 -26 -72 -58 q39 7 97 14 q8 11 15 26 l20 -17 l-9 -4 q-39 -51 -87 -75 q-48 -24 -104 -31 l0 4 q61 14 100.5 38.5 q39.5 24.5 61.5 52.5 q-95 -16 -113 -31 l-13 23 q16 2 41.5 21 q25.5 19 54.5 47 q-80 -10 -91 -20 l-11 22 q15 1 41.5 30.5 q26.5 29.5 33.5 45.5 Z" /><glyph glyph-name=".notdef" unicode="&#x4e66;" d="M176 202 q44 -18 47.5 -24.5 q3.5 -6.5 3.5 -9.5 q0 -5 -3 -10.5 q-3 -5.5 -5 -5.5 q-4 0 -10 11 q-9 15 -35 36 l2 3 ZM102 186 q0 10 -1 24 l23 -10 l-8 -7 l0 -35 l62 0 l8 10 l17 -13 l-9 -7 l-5 -56 l26 0 l8 11 l16 -13 l-8 -6 q-3 -32 -5.5 -54.5 q-2.5 -22.5 -27.5 -27.5 q-1 12 -29 23 l0 4 q28 -5 35 -5.5 q7 -0.5 9 16 q2 16.5 4 46.5 l-101 0 l0 -80 q0 -6 1 -25 l-16 -8 q1 20 1 26 l0 87 l-54 0 q-13 0 -24 -3 l-9 9 l87 0 l0 60 l-31 0 q-13 0 -24 -3 l-9 9 l64 0 l0 28 ZM175 92 l5 60 l-64 0 l0 -60 l59 0 Z" /><glyph glyph-name=".notdef" unicode="&#x4e70;" d="M187 145 l21 38 l-139 0 q-13 0 -24 -3 l-9 9 l170 0 l10 11 l21 -21 q-17 1 -47 -36 l-3 2 ZM68 169 q37 -16 40.5 -22 q3.5 -6 3.5 -9 q0 -4 -3 -9.5 q-3 -5.5 -4 -5.5 q-3 0 -8 10 q-8 15 -31 33 l2 3 ZM44 130 q25 -12 35 -20 q10 -8 10 -15 q0 -4 -2.5 -9.5 q-2.5 -5.5 -4.5 -5.5 q-4 0 -9 11 q-8 16 -31 36 l2 3 ZM151 152 q-1 -64 -4 -82 l61 0 l15 14 l19 -20 l-96 0 q-10 -33 -40.5 -55.5 q-30.5 -22.5 -84.5 -33.5 l0 5 q44 11 73 34 q29 23 37 50 l-78 0 q-13 0 -24 -3 l-9 9 l112 0 q4 24 4 101 l25 -11 l-10 -8 ZM144 46 q46 -19 65.5 -29 q19.5 -10 17 -23 q-2.5 -13 -5.5 -13 q-4 0 -11 9 q-13 17 -68 53 l2 3 Z" /><glyph glyph-name=".notdef" unicode="&#x4e71;" d="M35 -19 q1 19 1 53 q0 34 -1 51 l15 -10 l25 0 l0 47 l-31 0 q-13 0 -24 -3 l-9 9 l64 0 l0 47 q-24 -2 -53 -3 l0 4 q25 2 53.5 8 q28.5 6 42.5 15 l16 -18 q-15 0 -46 -4 l0 -49 l30 0 l13 13 l19 -19 l-62 0 l0 -47 l22 0 l9 10 l15 -14 l-8 -6 l0 -43 q0 -8 1 -30 l-15 -7 l0 22 l-62 0 l0 -20 l-15 -6 ZM50 69 l0 -56 l62 0 l0 56 l-62 0 ZM161 155 q0 21 -1 51 l24 -10 l-9 -7 l0 -177 q-2 -15 17 -14 l21 0 q8 1 9.5 16.5 q1.5 15.5 2.5 29.5 l4 0 q1 -17 2.5 -29 q1.5 -12 10.5 -16 q-7 -12 -22 -13 l-36 0 q-25 -1 -23 27 l0 142 Z" /><glyph glyph-name=".notdef" unicode="&#x4e82;" d="M31 177 l2 2 q19 -9 21 -15 q2 -6 -1 -9.5 q-3 -3.5 -5 -3.5 q-2 0 -4 6 q-3 8 -13 20 ZM23 188 q21 1 56 6.5 q35 5.5 45 11.5 l13 -17 q-24 0 -57 -2 q-34 -3 -57 -3 l0 4 ZM63 178 l2 3 q14 -8 17.5 -12.5 q3.5 -4.5 3.5 -6.5 q0 -3 -2.5 -7 q-2.5 -4 -4.5 -4 q-2 0 -4 6 q-3 10 -12 21 ZM114 185 l15 -10 q-9 -3 -26 -26 l-3 2 q11 22 14 34 ZM81 127 l26 14 l-55 0 q-13 0 -24 -3 l-9 9 l90 0 l9 7 l13 -17 q-17 0 -46 -13 q5 -4 5 -8 q0 -2 -2.5 -5.5 q-2.5 -3.5 -4.5 -3.5 q-3 0 -6 6 q-6 10 -21 20 l1 3 q12 -4 24 -9 ZM25 -21 q1 17 1 33 l0 69 q0 14 -1 33 l15 -7 l81 0 l9 10 l15 -14 l-9 -6 l0 -99 q-1 -16 -19 -21 q1 9 -21 18 l0 4 q13 -3 20 -3 q7 0 7 11 l0 94 l-84 0 l0 -114 l-14 -8 ZM61 71 l37 0 q-1 3 -7 13 l2 2 q18 -13 17.5 -19.5 q-0.5 -6.5 -4 -8.5 q-3.5 -2 -4.5 1 q-1 3 -3 8 q-34 -3 -44 -9 l-7 13 q7 1 14 10.5 q7 9.5 11 20.5 l15 -9 q-8 -3 -27 -22 ZM47 50 l48 0 l6 6 l11 -13 q-6 -1 -10.5 -5.5 q-4.5 -4.5 -11.5 -11.5 q19 -7 17 -16 q-2 -9 -4 -9 q-2 0 -4 3 q-6 7 -15 15 q-19 -15 -36 -21 l-1 3 q14 8 30 23 q-13 8 -22 11 l1 3 q13 -3 26 -8 q7 8 12 14 l-14 0 q-13 0 -24 -3 l-9 9 ZM157 166 q0 22 -1 39 l24 -11 l-9 -6 l0 -176 q-1 -15 17 -15 l26 0 q7 2 9 12 q2 10 3 35 l5 0 q0 -24 2.5 -32.5 q2.5 -8.5 9.5 -12.5 q-5 -12 -24 -14 l-36 0 q-26 0 -26 23 l0 158 Z" /><glyph glyph-name=".notdef" unicode="&#x4e86;" d="M134 136 l58 51 l-126 0 q-13 0 -24 -3 l-9 9 l160 0 l11 10 l18 -22 q-19 2 -84 -48 l8 -6 l-10 -4 l0 -119 q0 -20 -26 -29 q2 15 -38 25 l1 5 q24 -4 36.5 -4 q12.5 0 11.5 17 l0 88 q0 22 -1 38 l14 -8 Z" /><glyph glyph-name=".notdef" unicode="&#x4e88;" d="M84 4 q25 -4 33.5 -3.5 q8.5 0.5 8.5 14.5 l0 91 l-75 0 q-13 0 -24 -3 l-9 9 l117 0 q-6 25 -44 44 l1 4 q14 -3 39 -14 q35 29 47 37 l-98 0 q-13 0 -24 -3 l-9 9 l132 0 l13 11 l19 -21 q-12 1 -35 -11.5 q-23 -12.5 -39 -24.5 q15 -9 14.5 -16.5 q-0.5 -7.5 -7.5 -14.5 l66 0 l12 12 l19 -22 q-16 1 -52 -34 l-3 3 l25 35 l-70 0 l0 -103 q0 -19 -23 -26 q1 12 -34 22 l0 5 Z" /><glyph glyph-name=".notdef" unicode="&#x4e89;" d="M125 139 l24 37 l-57 0 q-34 -37 -70 -59 l-2 3 q24 18 44.5 44 q20.5 26 30.5 47 l20 -13 q-9 -3 -19 -16 l54 0 l9 12 l18 -17 q-9 -2 -22 -13 q-13 -11 -24 -25 l56 0 l9 11 l16 -13 l-10 -7 l0 -34 l9 0 l14 14 l20 -20 l-43 0 q0 -34 1 -47 l-14 -7 l0 11 l-55 0 l0 -47 q-1 -19 -23 -26 q0 14 -35 23 l0 5 q22 -4 33 -4 q11 0 11 14 l0 35 l-46 0 q-13 0 -24 -3 l-9 9 l79 0 l0 37 l-72 0 q-13 0 -24 -3 l-9 9 l105 0 l0 37 l-32 0 q-13 0 -24 -3 l-9 9 l70 0 ZM134 133 l0 -37 l55 0 l0 37 l-55 0 ZM134 90 l0 -37 l55 0 l0 37 l-55 0 Z" /><glyph glyph-name=".notdef" unicode="&#x4e8b;" d="M201 39 q0 -5 1 -21 l-15 -6 l0 13 l-52 0 l0 -24 q1 -18 -23 -26 q-1 14 -33 22 l0 5 q26 -4 34 -3.5 q8 0.5 8 13.5 l0 13 l-47 0 q-13 0 -24 -3 l-9 9 l80 0 l0 26 l-78 0 q-13 0 -24 -3 l-9 9 l111 0 l0 24 l-46 0 q-13 0 -24 -3 l-9 9 l79 0 l0 21 l-51 0 l0 -6 l-14 -5 q1 16 1 26 q0 10 -1 30 l15 -6 l50 0 l0 21 l-70 0 q-13 0 -24 -3 l-9 9 l103 0 q0 18 -1 30 l24 -11 l-9 -7 l0 -12 l68 0 l15 15 l21 -21 l-104 0 l0 -21 l51 0 l8 9 l15 -12 l-8 -6 q0 -20 1 -31 l-15 -7 l0 8 l-52 0 l0 -21 l50 0 l8 10 l17 -13 l-9 -6 l0 -21 l9 0 l14 14 l20 -20 l-43 0 l0 -18 ZM70 147 l0 -27 l51 0 l0 27 l-51 0 ZM135 147 l0 -27 l52 0 l0 27 l-52 0 ZM135 87 l0 -24 l52 0 l0 24 l-52 0 ZM135 57 l0 -26 l52 0 l0 26 l-52 0 Z" /><glyph glyph-name=".notdef" unicode="&#x4e8c;" d="M39 156 l147 0 l14 14 l20 -20 l-149 0 q-12 0 -23 -3 l-9 9 ZM14 17 l186 0 l18 18 l24 -24 l-194 0 q-14 0 -25 -3 l-9 9 Z" /><glyph glyph-name=".notdef" unicode="&#x4e8e;" d="M77 8 q23 -4 33 -4 q10 0 10 13 l0 88 l-73 0 q-13 0 -24 -3 l-9 9 l106 0 l0 70 l-42 0 q-13 0 -24 -3 l-9 9 l134 0 l14 14 l20 -20 l-78 0 l0 -70 l68 0 l16 16 l22 -22 l-106 0 l0 -96 q1 -22 -24 -30 q0 15 -34 24 l0 5 Z" /><glyph glyph-name=".notdef" unicode="&#x4e8f;" d="M46 186 l131 0 l14 14 l20 -20 l-133 0 q-12 0 -23 -3 l-9 9 ZM80 87 l14 41 l-50 0 q-13 0 -24 -3 l-9 9 l195 0 l16 16 l22 -22 l-134 0 l-16 -44 l86 0 l10 11 l17 -15 l-10 -6 q-14 -56 -24.5 -73 q-10.5 -17 -34.5 -22 q2 15 -36 29 l1 5 q28 -8 39 -10 q11 -2 18.5 11 q7.5 13 21.5 64 l-88 0 l-8 -10 l-14 13 l8 6 Z" /><glyph glyph-name=".notdef" unicode="&#x4e91;" d="M48 178 l132 0 l14 14 l20 -20 l-135 0 q-11 0 -22 -3 l-9 9 ZM64 11 q28 1 125 7 q-12 21 -35 50 l3 3 q51 -42 54.5 -51 q3.5 -9 3.5 -13 q0 -7 -5 -13.5 q-5 -6.5 -7 -6.5 q-2 0 -4 5 q-4 10 -8 20 q-125 -13 -139 -24 l-13 24 q10 2 19.5 10 q9.5 8 27.5 36.5 q18 28.5 23 45.5 l-59 0 q-13 0 -24 -3 l-9 9 l184 0 l17 17 l23 -23 l-111 0 q-10 -23 -30 -49 q-20 -26 -36 -44 Z" /><glyph glyph-name=".notdef" unicode="&#x4e92;" d="M97 124 l-11 -68 l74 0 l6 68 l-69 0 ZM23 182 l173 0 l14 14 l20 -20 l-126 0 l-6 -46 l67 0 l9 12 l17 -14 l-10 -7 l-11 -124 l36 0 l17 17 l23 -23 l-199 0 q-13 0 -24 -3 l-9 9 l141 0 l5 53 l-74 0 l-8 -8 l-14 13 l8 7 l17 114 l-33 0 q-13 0 -24 -3 l-9 9 Z" /><glyph glyph-name=".notdef" unicode="&#x4e94;" d="M192 98 l-4 -101 l19 0 l16 16 l22 -22 l-198 0 q-13 0 -24 -3 l-9 9 l71 0 l16 104 l-30 0 q-13 0 -24 -3 l-9 9 l64 0 l10 72 l-52 0 q-13 0 -24 -3 l-9 9 l168 0 l14 14 l20 -20 l-102 0 l-11 -72 l60 0 l9 11 l16 -13 l-9 -7 ZM174 -3 l4 104 l-63 0 l-16 -104 l75 0 Z" /><glyph glyph-name=".notdef" unicode="&#x4e95;" d="M87 147 q0 43 -1 62 l23 -11 l-8 -7 l0 -44 l55 0 q0 44 -1 62 l25 -11 l-10 -7 l0 -44 l29 0 l14 14 l20 -20 l-63 0 l0 -59 l37 0 l16 16 l22 -22 l-75 0 l0 -58 q0 -22 1 -34 l-16 -8 q1 26 1 39 l0 61 l-56 0 q-2 -43 -25 -65.5 q-23 -22.5 -60 -35.5 l-2 4 q38 17 54 40 q16 23 19 57 l-43 0 q-13 0 -24 -3 l-9 9 l76 0 q1 20 1 59 l-30 0 q-13 0 -24 -3 l-9 9 l63 0 ZM101 141 q0 -29 -1 -59 l56 0 l0 59 l-55 0 Z" /><glyph glyph-name=".notdef" unicode="&#x4e98;" d="M28 185 l166 0 l15 15 l21 -21 l-167 0 q-15 0 -26 -3 l-9 9 ZM191 136 q0 -84 1 -103 l-15 -7 l0 19 l-97 0 l0 -15 l-15 -6 q1 23 1 62 q0 39 -1 67 l15 -8 l95 0 l9 10 l16 -13 l-9 -6 ZM80 139 l0 -39 l97 0 l0 39 l-97 0 ZM80 94 l0 -43 l97 0 l0 43 l-97 0 ZM13 0 l188 0 l18 18 l24 -24 l-197 0 q-13 0 -24 -3 l-9 9 Z" /><glyph glyph-name=".notdef" unicode="&#x4e9a;" d="M109 175 l0 -173 l36 0 l0 173 l-36 0 ZM28 181 l169 0 l14 14 l20 -20 l-72 0 l0 -130 q8 13 21.5 39.5 q13.5 26.5 21.5 60.5 l22 -16 l-9 -5 q-25 -49 -56 -87 l0 -35 l45 0 l17 17 l23 -23 l-199 0 q-13 0 -24 -3 l-9 9 l83 0 l0 173 l-34 0 q-13 0 -24 -3 l-9 9 ZM41 143 q34 -50 35.5 -61 q1.5 -11 1.5 -16 q0 -12 -4.5 -17 q-4.5 -5 -6.5 -5 q-4 0 -5 9 q-2 13 -6.5 34 q-4.5 21 -18.5 55 l4 1 Z" /><glyph glyph-name=".notdef" unicode="&#x4e9b;" d="M45 43 l130 0 l15 15 l21 -21 l-135 0 q-11 0 -22 -3 l-9 9 ZM16 -2 l184 0 l18 18 l24 -24 l-194 0 q-12 0 -23 -3 l-9 9 ZM147 173 q0 9 -1 31 l22 -10 l-8 -7 l0 -58 q45 30 54 47 l17 -17 q-13 -2 -71 -36 l0 -25 q-1 -14 17 -14 l37 0 q7 3 9 14 q2 11 3 29 l5 0 q0 -9 1.5 -23 q1.5 -14 10.5 -18 q-7 -13 -25 -13 l-46 0 q-25 -1 -25 19 l0 81 ZM14 77 l22 3 q0 68 -1 89 l22 -11 l-8 -8 l0 -69 l29 4 q0 96 -1 119 l23 -12 l-9 -7 l0 -36 l19 0 l11 11 l17 -17 l-47 0 l0 -56 l45 7 l1 -5 q-106 -21 -112 -31 l-11 19 Z" /><glyph glyph-name=".notdef" unicode="&#x4e9e;" d="M107 -6 l39 0 l0 79 l15 -9 l41 0 l0 64 l-41 0 l-7 -9 l-15 11 l7 6 l0 49 l-39 0 l0 -60 l-14 -7 l0 10 l-42 0 l0 -64 l41 0 l8 10 l15 -13 l-8 -7 l0 -60 ZM216 125 q0 -51 1 -69 l-15 -7 l0 9 l-42 0 l0 -64 l42 0 l17 17 l23 -23 l-197 0 q-13 0 -24 -3 l-9 9 l81 0 l0 64 l-41 0 l-8 -9 l-14 13 l7 6 q0 53 -1 74 l17 -8 l40 0 l0 51 l-39 0 q-13 0 -24 -3 l-9 9 l176 0 l14 14 l20 -20 l-71 0 l0 -51 l39 0 l9 11 l16 -14 l-8 -6 Z" /><glyph glyph-name=".notdef" unicode="&#x4ea1;" d="M107 204 l3 3 q32 -20 34.5 -25.5 q2.5 -5.5 2.5 -9.5 q0 -7 -4.5 -12.5 q-4.5 -5.5 -6.5 -5.5 q-4 0 -7 11 q-5 17 -22 39 ZM12 149 l195 0 l16 16 l22 -22 l-171 0 l0 -135 l118 0 l16 16 l22 -22 l-155 0 l-9 -10 l-15 15 l8 6 l0 130 l-14 0 q-13 0 -24 -3 l-9 9 Z" /><glyph glyph-name=".notdef" unicode="&#x4ea4;" d="M105 207 l3 3 q32 -16 32.5 -25 q0.5 -9 -4 -13 q-4.5 -4 -5.5 -4 q-4 0 -7 9 q-5 13 -19 30 ZM15 166 l188 0 l16 16 l22 -22 l-194 0 q-12 0 -23 -3 l-9 9 ZM86 154 l18 -16 l-10 -3 q-44 -40 -75 -52 l-1 3 q25 17 44 37 q19 20 24 31 ZM153 147 l2 4 q35 -16 50.5 -26 q15.5 -10 15.5 -20 q0 -3 -2.5 -9 q-2.5 -6 -4.5 -6 q-3 0 -7 7 q-8 12 -19.5 23 q-11.5 11 -34.5 27 ZM182 104 l-10 -5 q-19 -43 -39 -64 q43 -39 112 -36 l0 -3 q-16 -7 -18 -17 q-67 10 -101 47 q-42 -35 -109 -50 l-1 4 q62 19 102 55 q-21 30 -36 78 l4 1 q18 -43 40 -70 q21 27 33 74 l23 -14 Z" /><glyph glyph-name=".notdef" unicode="&#x4ea6;" d="M53 128 l23 -13 l-10 -6 q-21 -48 -46 -77 l-3 2 q8 12 19 38 q11 26 17 56 ZM180 120 l3 2 q51 -47 51.5 -61 q0.5 -14 -3.5 -18.5 q-4 -4.5 -6 -4.5 q-4 0 -8 15 q-5 20 -37 67 ZM113 2 l0 5 q18 -2 29 -2.5 q11 -0.5 11 13.5 l0 140 l-44 0 l0 -48 q-1 -48 -20.5 -78 q-19.5 -30 -66.5 -55 l-2 3 q42 29 58 58 q16 29 17 73 l0 47 l-46 0 q-13 0 -24 -3 l-9 9 l111 0 q-1 18 -22 40 l2 3 q25 -12 30.5 -18 q5.5 -6 5.5 -10 q0 -7 -8 -15 l66 0 l16 16 l22 -22 l-72 0 l0 -151 q1 -19 -23 -26 q0 13 -31 21 Z" /><glyph glyph-name=".notdef" unicode="&#x4ea7;" d="M79 154 l2 3 q20 -13 25.5 -20.5 q5.5 -7.5 5.5 -12.5 q0 -5 -4 -10.5 q-4 -5.5 -6 -5.5 q-3 0 -6 12 q-4 16 -17 34 ZM168 158 l23 -12 l-9 -4 q-9 -11 -29 -36 l51 0 l15 15 l21 -21 l-185 0 q1 -36 -5 -65.5 q-6 -29.5 -37 -60.5 l-3 3 q24 30 27.5 68 q3.5 38 1.5 70 l17 -9 l91 0 q18 36 21 52 ZM19 168 l108 0 q-1 17 -20 39 l3 3 q21 -11 26.5 -17 q5.5 -6 5.5 -10 q0 -7 -9 -15 l69 0 l16 16 l22 -22 l-188 0 q-13 0 -24 -3 l-9 9 Z" /><glyph glyph-name=".notdef" unicode="&#x4ea8;" d="M139 51 l48 27 l-127 0 q-13 0 -24 -3 l-9 9 l161 0 l14 11 l16 -20 q-9 0 -22 -4.5 q-13 -4.5 -53 -22.5 l8 -5 l-8 -5 l0 -40 q2 -17 -23 -24 q-2 13 -36 23 l0 5 q32 -6 38.5 -5.5 q6.5 0.5 6.5 10.5 q0 35 -1 50 l11 -6 ZM63 92 q1 16 1 31.5 q0 15.5 -1 30.5 l16 -9 l94 0 l10 10 l16 -14 l-10 -6 q0 -21 1 -34 l-15 -8 l0 11 l-97 0 l0 -6 l-15 -6 ZM78 139 l0 -29 l97 0 l0 29 l-97 0 ZM101 208 l2 3 q33 -13 35 -22 q2 -9 -2 -13.5 q-4 -4.5 -6 -4.5 q-4 0 -7 8 q-5 11 -22 29 ZM20 170 l179 0 l16 16 l22 -22 l-185 0 q-12 0 -23 -3 l-9 9 Z" /><glyph glyph-name=".notdef" unicode="&#x4eab;" d="M87 -1 q21 -4 30 -4 q9 0 8 12 l0 30 l-81 0 q-13 0 -24 -3 l-9 9 l114 0 l0 25 l13 -6 l43 20 l-105 0 q-13 0 -24 -3 l-9 9 l139 0 l13 10 l18 -19 q-14 2 -71 -20 l7 -4 l-10 -5 l0 -7 l68 0 l16 16 l22 -22 l-106 0 l0 -38 q1 -19 -22 -25 q0 11 -31 21 l1 4 ZM62 159 l17 -9 l96 0 l9 10 l16 -13 l-8 -6 q0 -25 1 -35 l-15 -7 l0 11 l-101 0 l0 -8 l-15 -5 q1 15 1 32 q0 17 -1 30 ZM77 144 l0 -28 l101 0 l0 28 l-101 0 ZM107 207 l2 3 q30 -10 31.5 -15 q1.5 -5 1.5 -8 q0 -6 -3 -9.5 q-3 -3.5 -5 -3.5 q-3 0 -6 7 q-5 10 -21 26 ZM24 173 l173 0 l15 15 l21 -21 l-176 0 q-13 0 -24 -3 l-9 9 Z" /><glyph glyph-name=".notdef" unicode="&#x4eac;" d="M16 170 l189 0 l16 16 l22 -22 l-195 0 q-12 0 -23 -3 l-9 9 ZM77 127 l0 -49 l103 0 l0 49 l-103 0 ZM195 123 q0 -37 1 -53 l-16 -8 l0 10 l-44 0 l0 -73 q1 -19 -23 -25 q0 12 -30 22 l0 5 q19 -4 28.5 -4 q9.5 0 9.5 12 l0 63 l-44 0 l0 -7 l-16 -7 q1 21 1 42.5 q0 21.5 -1 41.5 l17 -9 l101 0 l10 10 l16 -14 l-10 -6 ZM101 38 l-11 -3 q-35 -33 -71 -53 l-3 3 q48 37 66 69 l19 -16 ZM163 51 l2 3 q48 -32 52.5 -40.5 q4.5 -8.5 4.5 -12.5 q0 -5 -3.5 -10 q-3.5 -5 -5.5 -5 q-4 0 -9 13 q-8 18 -41 52 ZM108 206 l2 3 q26 -11 29 -16.5 q3 -5.5 3 -7.5 q0 -5 -3.5 -9.5 q-3.5 -4.5 -5.5 -4.5 q-4 0 -6 8 q-5 12 -19 27 Z" /><glyph glyph-name=".notdef" unicode="&#x4ead;" d="M107 209 q22 -8 26 -12.5 q4 -4.5 4 -8.5 q0 -5 -6 -12 l60 0 l13 13 l19 -19 l-160 0 q-13 0 -24 -3 l-9 9 l93 0 q0 13 -18 30 l2 3 ZM66 97 q1 13 1 29.5 q0 16.5 -1 32.5 l15 -8 l87 0 l8 10 l15 -12 l-9 -6 q0 -22 1 -38 l-14 -6 l0 9 l-89 0 l0 -7 l-14 -4 ZM80 145 l0 -31 l89 0 l0 31 l-89 0 ZM36 80 q2 -15 -3.5 -20 q-5.5 -5 -11 -3.5 q-5.5 1.5 -5.5 4.5 q0 3 4 7 q8 9 11 29 l4 0 l1 -11 l174 0 l8 9 l16 -16 q-12 0 -28 -21 l-3 2 l8 20 l-175 0 ZM83 0 q23 -4 31.5 -4 q8.5 0 8.5 14 l0 40 l-43 0 q-13 0 -24 -3 l-9 9 l124 0 l13 13 l19 -19 l-66 0 l0 -50 q1 -18 -22 -25 q0 13 -32 20 l0 5 Z" /><glyph glyph-name=".notdef" unicode="&#x4eae;" d="M14 -22 q37 8 52.5 23 q15.5 15 13.5 65 l15 -10 l56 0 l9 9 l14 -12 l-8 -6 l0 -40 q0 -12 17 -11 l32 0 q9 0 11.5 10.5 q2.5 10.5 2.5 27.5 l5 0 q0 -13 2 -23 q2 -10 9 -12 q-6 -14 -23 -14 l-46 0 q-24 -2 -24 17 l0 48 l-57 0 q0 -39 -17 -53.5 q-17 -14.5 -63 -22.5 l-1 4 ZM66 101 q1 19 1 30.5 q0 11.5 -1 27.5 l15 -8 l91 0 l9 9 l15 -12 l-9 -6 q0 -21 1 -34 l-14 -6 l0 9 l-93 0 l0 -5 l-15 -5 ZM81 145 l0 -28 l93 0 l0 28 l-93 0 ZM201 58 l14 24 l-175 0 q0 -16 -6 -23 q-6 -7 -13 -5 q-7 2 -7 5 q0 4 6 10 q11 11 15 31 l4 0 l1 -12 l174 0 l9 9 l17 -19 q-15 2 -36 -22 l-3 2 ZM106 208 l2 3 q23 -9 26 -13.5 q3 -4.5 3 -8.5 q0 -5 -3.5 -10 q-3.5 -5 -5.5 -5 q-3 0 -5 8 q-4 12 -17 26 ZM20 173 l182 0 l14 14 l20 -20 l-184 0 q-12 0 -23 -3 l-9 9 Z" /><glyph glyph-name=".notdef" unicode="&#x4eb2;" d="M109 206 l2 3 q19 -7 23.5 -12 q4.5 -5 4.5 -9 q0 -5 -7 -12 l62 0 l13 13 l19 -19 l-160 0 q-13 0 -24 -3 l-9 9 l93 0 q-2 15 -17 30 ZM70 160 l2 3 q28 -13 33 -20 q5 -7 5 -10 q0 -7 -7 -15 l41 0 q12 21 20 49 l21 -14 l-10 -4 q-15 -19 -25 -31 l58 0 l15 15 l21 -21 l-198 0 q-13 0 -24 -3 l-9 9 l84 0 q-4 21 -27 42 ZM81 58 l19 -17 l-10 -2 q-32 -32 -71 -52 l-2 4 q25 17 41 35 q16 18 23 32 ZM156 51 q61 -30 65 -39 q4 -9 4 -14 q0 -4 -2.5 -9 q-2.5 -5 -3.5 -5 q-4 0 -11 12 q-11 18 -54 52 l2 3 ZM119 112 l15 0 l0 -38 l67 0 l15 15 l21 -21 l-103 0 l0 -71 q0 -17 -21 -23 q1 12 -28 21 l1 4 q20 -4 26.5 -3.5 q6.5 0.5 6.5 11.5 l0 61 l-65 0 q-13 0 -24 -3 l-9 9 l98 0 l0 38 Z" /><glyph glyph-name=".notdef" unicode="&#x4eba;" d="M111 207 l30 -13 l-10 -9 q6 -53 20.5 -90 q14.5 -37 39 -62.5 q24.5 -25.5 54.5 -30.5 l0 -5 q-20 -1 -28 -14 q-27 19 -44.5 44.5 q-17.5 25.5 -28.5 54.5 q-11 29 -16 80 q-4 -48 -14 -80.5 q-10 -32.5 -34 -59 q-24 -26.5 -66 -44.5 l-2 3 q42 26 63.5 56.5 q21.5 30.5 29 77 q7.5 46.5 6.5 92.5 Z" /><glyph glyph-name=".notdef" unicode="&#x4ebf;" d="M243 5 q-9 -14 -31 -15 l-78 0 q-21 -1 -31.5 7 q-10.5 8 -8 26 q2.5 18 29 60 q26.5 42 58.5 88 l-53 0 q-13 0 -24 -3 l-9 9 l86 0 l11 12 l18 -17 l-11 -5 q-38 -47 -65.5 -92.5 q-27.5 -45.5 -25.5 -59 q2 -13.5 35 -12.5 l60 0 q7 0 11.5 8 q4.5 8 7.5 53 l5 0 q0 -18 1.5 -36 q1.5 -18 13.5 -23 ZM76 210 l22 -15 l-9 -5 q-16 -28 -25 -48 l14 -8 l-8 -8 l0 -119 q0 -11 1 -22 l-17 -9 q1 24 1 38 l0 112 q-24 -38 -41 -56 l-3 2 q30 48 45 84 q15 36 20 54 Z" /><glyph glyph-name=".notdef" unicode="&#x4ec0;" d="M154 177 q0 16 -1 32 l24 -12 l-9 -7 l0 -70 l43 0 l14 14 l20 -20 l-77 0 l0 -108 q0 -11 1 -25 l-16 -6 q1 31 1 42 l0 97 l-41 0 q-13 0 -24 -3 l-9 9 l74 0 l0 57 ZM71 21 q0 -16 1 -39 l-16 -8 q1 18 1 28 l0 124 q-19 -34 -44 -60 l-3 3 q17 23 33.5 57.5 q16.5 34.5 29.5 83.5 l23 -14 l-8 -6 q-17 -36 -24 -51 l15 -9 l-8 -6 l0 -103 Z" /><glyph glyph-name=".notdef" unicode="&#x4ec1;" d="M73 13 q0 -14 1 -32 l-17 -6 q1 24 1 35 l0 117 q-22 -38 -44 -61 l-2 3 q14 20 32.5 57 q18.5 37 31.5 85 l22 -15 q-9 -3 -17 -22 q-9 -19 -15 -31 l15 -9 l-8 -6 l0 -115 ZM97 160 l100 0 l13 13 l19 -19 l-98 0 q-14 0 -25 -3 l-9 9 ZM85 13 l124 0 l15 15 l21 -21 l-124 0 q-16 0 -27 -3 l-9 9 Z" /><glyph glyph-name=".notdef" unicode="&#x4ec5;" d="M114 172 q8 -41 17.5 -68 q9.5 -27 22.5 -47 q13 20 23 49 q10 29 16 66 l-79 0 ZM208 167 q-12 -54 -22.5 -78.5 q-10.5 -24.5 -23.5 -42.5 q14 -16 33.5 -30 q19.5 -14 45.5 -22 l0 -3 q-17 -2 -21 -12 q-21 12 -36.5 25.5 q-15.5 13.5 -28.5 30.5 q-19 -22 -40.5 -36 q-21.5 -14 -48.5 -24 l-2 4 q26 12 46.5 29 q20.5 17 36.5 38 q-16 24 -25 53 q-9 29 -14 73 l-6 0 l-9 -2 l-8 8 l108 0 l9 10 l16 -14 l-10 -7 ZM49 130 q-20 -29 -38 -49 l-3 2 q19 27 35.5 62 q16.5 35 22.5 62 l21 -13 l-8 -5 q-13 -28 -25 -51 l15 -8 l-6 -6 l0 -111 q0 -10 1 -26 l-16 -11 q1 28 1 48 l0 106 Z" /><glyph glyph-name=".notdef" unicode="&#x4ec6;" d="M149 -26 q1 22 1 36 l0 160 q0 15 -1 39 l26 -12 l-10 -8 l0 -59 q31 -12 49.5 -23.5 q18.5 -11.5 18.5 -25.5 q0 -4 -1.5 -10 q-1.5 -6 -3.5 -6 q-4 0 -9 9 q-9 15 -25 29.5 q-16 14.5 -29 21.5 l0 -112 q0 -18 1 -32 l-17 -7 ZM81 210 l23 -13 l-10 -6 q-15 -35 -23 -52 l20 -9 l-8 -8 l0 -108 q0 -15 1 -33 l-17 -7 q1 25 1 40 l0 117 q-20 -38 -49 -68 l-2 4 q21 28 40 73 q19 45 24 70 Z" /><glyph glyph-name=".notdef" unicode="&#x4ec7;" d="M122 134 q0 41 -1 71 l22 -11 l-7 -7 l0 -53 l36 0 l8 13 l15 -13 l-8 -7 l-1 -106 q-2 -27 23 -25 l9 0 q7 1 8.5 13.5 q1.5 12.5 2.5 35.5 l4 0 q1 -21 2 -31.5 q1 -10.5 10 -11.5 q-3 -14 -22 -18 l-26 0 q-26 0 -25 31 l1 113 l-37 0 q0 -64 -16 -96 q-16 -32 -46 -53 l-1 3 q26 29 38 62.5 q12 33.5 11 83.5 l-25 0 l-10 -3 l-8 9 l43 0 ZM51 117 q-20 -28 -38 -42 l-2 3 q13 15 34 49.5 q21 34.5 32 73.5 l20 -13 q-7 -4 -15 -19 q-8 -16 -20 -36 l9 -6 l-6 -6 l0 -112 q0 -8 1 -28 l-16 -7 q1 29 1 44 l0 99 Z" /><glyph glyph-name=".notdef" unicode="&#x4eca;" d="M102 129 l2 3 q26 -14 33 -21 q7 -7 6 -13 q-1 -6 -3.5 -9.5 q-2.5 -3.5 -3.5 -3.5 q-4 0 -7 9 q-6 12 -27 35 ZM134 -26 l-14 3 q19 28 59 86 l-100 0 q-13 0 -24 -3 l-9 9 l134 0 l9 11 l15 -15 l-10 -7 q-41 -56 -60 -84 ZM119 210 l19 -12 l-8 -6 q23 -37 54.5 -59 q31.5 -22 60.5 -27 l0 -5 q-16 -1 -20 -13 q-30 16 -53 37.5 q-23 21.5 -45 61.5 q-20 -33 -36 -51 q-16 -18 -34 -31.5 q-18 -13.5 -45 -27.5 l-2 4 q20 12 40.5 31 q20.5 19 37.5 43 q17 24 31 55 Z" /><glyph glyph-name=".notdef" unicode="&#x4ecb;" d="M117 212 l23 -14 l-9 -5 q23 -38 51 -58.5 q28 -20.5 59 -25.5 l0 -4 q-20 -4 -20 -14 q-32 16 -53.5 38 q-21.5 22 -40.5 60 q-23 -41 -38 -56.5 q-15 -15.5 -34 -28.5 q-19 -13 -42 -24 l-3 3 q23 13 41.5 28.5 q18.5 15.5 36 40.5 q17.5 25 29.5 60 ZM84 118 l24 -10 l-9 -8 q0 -40 -4.5 -58 q-4.5 -18 -19 -34.5 q-14.5 -16.5 -51.5 -33.5 l-1 4 q26 15 40.5 32.5 q14.5 17.5 18.5 38 q4 20.5 2 69.5 ZM153 -27 q0 35 0 73.5 q0 38.5 -1 73.5 l24 -12 l-9 -7 l0 -84 q0 -16 1 -38 l-15 -6 Z" /><glyph glyph-name=".notdef" unicode="&#x4ecd;" d="M69 10 q0 -13 1 -30 l-16 -6 q1 25 1 46 l0 112 q-21 -36 -39 -55 l-3 3 q24 36 39 73 q15 37 18 56 l22 -13 l-9 -5 q-15 -33 -22 -48 l15 -8 l-7 -6 l0 -119 ZM163 7 q20 -4 29 -4 q9 0 13 7.5 q4 7.5 7.5 28 q3.5 20.5 7.5 65.5 l-26 0 l-8 -8 l-14 13 l9 6 q7 30 13 62 l-54 0 q1 -80 -12 -124 q-13 -44 -54 -77 l-3 3 q30 30 43 71 q13 41 12 127 l-3 0 q-13 0 -24 -3 l-9 9 l103 0 l8 10 l16 -13 l-9 -6 q-8 -34 -14 -64 l25 0 l7 10 l17 -12 l-9 -7 q-8 -90 -16 -103 q-8 -13 -27 -18 q1 12 -29 23 l1 4 Z" /><glyph glyph-name=".notdef" unicode="&#x4ece;" d="M88 188 q-4 -63 -8 -83 q23 -18 32.5 -29 q9.5 -11 9.5 -20 q0 -9 -4 -12.5 q-4 -3.5 -5 -3.5 q-4 0 -9 15 q-6 19 -25 44 q-11 -46 -28 -71 q-17 -25 -35 -42 l-3 3 q22 27 33.5 53 q11.5 26 18.5 63.5 q7 37.5 7 100.5 l25 -11 l-9 -7 ZM170 187 q-2 -37 5.5 -73.5 q7.5 -36.5 26 -70.5 q18.5 -34 44.5 -45 l0 -4 q-19 -2 -21 -10 q-18 18 -29 40.5 q-11 22.5 -18.5 47.5 q-7.5 25 -11.5 66 q-3 -53 -16 -83.5 q-13 -30.5 -34.5 -49.5 q-21.5 -19 -42.5 -30 l-3 3 q19 13 35 30 q16 17 25 37 q9 20 14 42 q5 22 7.5 52 q2.5 30 1.5 68 l26 -12 l-9 -8 Z" /><glyph glyph-name=".notdef" unicode="&#x4ed3;" d="M118 53 q27 -4 34 -3.5 q7 0.5 7 9.5 l0 46 l-72 0 l0 -94 q0 -15 15 -15 l91 0 q6 1 8 8.5 q2 7.5 3 40.5 l5 0 q0 -17 2.5 -29 q2.5 -12 11.5 -16 q-6 -17 -26 -17 l-100 0 q-24 0 -24 20 l0 67 q0 24 -1 49 l16 -8 l69 0 l10 10 l15 -14 l-9 -6 l0 -52 q0 -15 -22 -22 q-2 13 -33 22 l0 4 ZM122 212 l21 -15 l-9 -5 q24 -35 52 -56 q28 -21 60 -25 l0 -3 q-14 -3 -21 -14 q-26 12 -49.5 34 q-23.5 22 -46.5 61 q-28 -40 -45.5 -57 q-17.5 -17 -35.5 -29.5 q-18 -12.5 -38 -22.5 l-1 4 q20 13 40 30.5 q20 17.5 38.5 41 q18.5 23.5 34.5 56.5 Z" /><glyph glyph-name=".notdef" unicode="&#x4ed5;" d="M71 17 q0 -17 1 -34 l-17 -7 q1 23 1 40 l0 104 q-22 -32 -42 -53 l-3 3 q21 29 36 61.5 q15 32.5 27 77.5 l24 -14 l-9 -5 q-15 -33 -25 -52 l14 -7 l-7 -7 l0 -107 ZM151 158 q0 20 -1 48 l27 -12 l-11 -8 l0 -64 l44 0 l14 14 l20 -20 l-78 0 l0 -114 l35 0 l14 14 l20 -20 l-112 0 q-13 0 -24 -3 l-9 9 l61 0 l0 114 l-37 0 q-13 0 -24 -3 l-9 9 l70 0 l0 36 Z" /><glyph glyph-name=".notdef" unicode="&#x4ed6;" d="M218 137 q1 -69 -4 -78.5 q-5 -9.5 -18 -13.5 q2 11 -22 17 l0 4 q9 -1 16 -1 q5 0 8.5 1 q3.5 1 4.5 12 q1 11 2 60 l-41 -10 l0 -99 l-13 -8 l0 103 l-34 -9 l0 -108 q0 -12 11 -12 l88 0 q7 4 8.5 16.5 q1.5 12.5 1.5 29.5 l5 0 q0 -17 2.5 -28.5 q2.5 -11.5 12.5 -13.5 q-7 -15 -33 -15 l-85 0 q-25 -1 -24 19 l0 109 l-14 -4 l-6 -4 l-10 7 l30 7 q0 22 -1 44 l24 -10 l-10 -7 l0 -24 l34 9 q0 45 -1 79 l23 -10 l-9 -7 l0 -58 l38 10 l6 11 l17 -11 l-7 -7 ZM52 -25 q1 30 1 46 l0 107 q-24 -42 -40 -59 l-3 2 q23 38 38 77 q15 39 20 63 l23 -12 q-8 -4 -16 -21.5 q-8 -17.5 -17 -38.5 l17 -9 l-8 -6 l0 -142 l-15 -7 Z" /><glyph glyph-name=".notdef" unicode="&#x4ed7;" d="M160 146 q0 33 -1 64 l25 -11 l-9 -7 l0 -46 l32 0 l14 14 l20 -20 l-66 0 q-1 -65 -14 -100 q14 -15 36.5 -27 q22.5 -12 42.5 -14 l0 -4 q-20 -3 -23 -15 q-34 15 -64 47 q-32 -36 -76 -51 l-2 3 q19 9 39 27 q20 18 29 33 q-23 35 -40 86 l4 1 q20 -44 43 -72 q5 15 7.5 38.5 q2.5 23.5 2.5 47.5 l-48 0 q-13 0 -24 -3 l-9 9 l81 0 ZM66 25 q0 -18 1 -44 l-16 -5 q1 32 1 49 l0 98 q-23 -37 -40 -54 l-3 2 q24 37 39.5 73 q15.5 36 21.5 66 l23 -12 l-9 -6 q-15 -35 -23 -51 l12 -7 l-7 -5 l0 -104 Z" /><glyph glyph-name=".notdef" unicode="&#x4ed8;" d="M56 -26 q1 49 1 65 l0 83 q-22 -36 -44 -57 l-3 2 q24 33 39.5 67 q15.5 34 27.5 76 l22 -13 l-9 -5 q-15 -33 -25 -54 l13 -7 l-7 -6 l0 -102 q0 -28 1 -41 l-16 -8 ZM145 1 q24 -4 32.5 -3.5 q8.5 0.5 8.5 10.5 l0 126 l-62 0 q-13 0 -24 -3 l-9 9 l95 0 q0 42 -1 67 l26 -12 l-10 -7 l0 -48 l15 0 l12 12 l18 -18 l-45 0 l0 -135 q-1 -18 -21 -25 q-6 15 -35 23 l0 4 ZM108 103 l2 2 q18 -13 29 -24.5 q11 -11.5 8.5 -20 q-2.5 -8.5 -5.5 -10.5 q-3 -2 -4 -2 q-5 0 -8 14 q-5 17 -22 41 Z" /><glyph glyph-name=".notdef" unicode="&#x4ed9;" d="M68 20 q0 -20 1 -40 l-16 -6 q1 19 1 43 l0 108 q-21 -32 -41 -52 l-3 2 q23 32 40.5 71 q17.5 39 22.5 64 l22 -12 q-8 -5 -16 -22 q-8 -17 -18 -37 l13 -7 l-6 -6 l0 -106 ZM225 36 q0 -18 1 -39 l-15 -10 l0 18 l-96 0 l-8 -9 l-13 14 l6 5 l0 92 q0 9 -1 40 l23 -11 l-8 -7 l0 -118 l41 0 l0 157 q0 15 -1 40 l23 -11 l-8 -8 l0 -178 l42 0 l0 91 q0 16 -1 43 l22 -11 l-7 -7 l0 -91 Z" /><glyph glyph-name=".notdef" unicode="&#x4ee3;" d="M222 -3 l13 44 l4 0 q-4 -34 -2.5 -44 q1.5 -10 4.5 -18 q2 -5 -3 -5 q-2 0 -11.5 2.5 q-9.5 2.5 -29.5 17.5 q-20 15 -33 40 q-13 25 -20 85 l-41 -2 l-9 -3 l-10 8 l59 3 q-2 25 -3 42 q-1 17 -2 36 l24 -12 l-8 -7 q1 -39 3 -58 l49 3 l13 13 l20 -17 l-81 -5 q6 -59 24 -85.5 q18 -26.5 40 -37.5 ZM179 188 l1 4 q38 -13 41.5 -20 q3.5 -7 3.5 -10 q0 -4 -3 -8.5 q-3 -4.5 -5 -4.5 q-4 0 -8 9 q-8 13 -30 30 ZM72 124 l0 -108 q0 -16 1 -35 l-16 -7 q1 25 1 41 l0 110 q-24 -38 -46 -58 l-3 3 q13 17 24.5 36.5 q11.5 19.5 23 45 q11.5 25.5 20.5 58.5 l22 -14 q-8 -4 -17 -22 q-9 -19 -17 -34 l14 -9 l-7 -7 Z" /><glyph glyph-name=".notdef" unicode="&#x4ee4;" d="M122 211 l22 -12 l-9 -5 q20 -38 48 -62 q28 -24 61 -31 l0 -4 q-17 -1 -21 -12 q-30 16 -51.5 39.5 q-21.5 23.5 -39.5 64.5 q-26 -44 -44 -61.5 q-18 -17.5 -35.5 -29 q-17.5 -11.5 -38.5 -21.5 l-3 3 q20 11 41 29 q21 18 39.5 45 q18.5 27 30.5 57 ZM108 137 q24 -13 32 -20.5 q8 -7.5 8 -13.5 q0 -2 -1.5 -6.5 q-1.5 -4.5 -6.5 -8.5 q-5 -4 -9 9 q-4 12 -25 37 l2 3 ZM133 14 q12 18 41 59 l-90 0 q-13 0 -24 -3 l-9 9 l123 0 l13 13 l19 -20 q-12 -2 -27.5 -16 q-15.5 -14 -40.5 -44 q21 -11 23 -18 q2 -7 2 -8 q0 -4 -2 -8.5 q-2 -4.5 -4 -4.5 q-3 0 -8 6 q-9 11 -30.5 27.5 q-21.5 16.5 -43.5 27.5 l1 4 q36 -12 57 -24 Z" /><glyph glyph-name=".notdef" unicode="&#x4ee5;" d="M59 42 q20 10 70 45 l3 -3 q-39 -34 -54 -47 q-15 -13 -24 -26 l-15 18 q5 6 5 17 l0 99 q0 30 -1 50 l25 -12 l-9 -8 l0 -133 ZM99 181 q39 -27 39 -38.5 q0 -11.5 -4.5 -16.5 q-4.5 -5 -6.5 -5 q-4 0 -7 13 q-5 18 -24 44 l3 3 ZM183 204 l25 -11 l-8 -7 q-1 -57 -3.5 -83.5 q-2.5 -26.5 -10.5 -47.5 q23 -16 35 -26 q12 -10 12 -20.5 q0 -10.5 -3.5 -14.5 q-3.5 -4 -4.5 -4 q-4 0 -9 14 q-7 17 -32 46 q-19 -32 -52.5 -48.5 q-33.5 -16.5 -77.5 -23.5 l-2 4 q28 6 51 16 q23 10 43 27.5 q20 17.5 29.5 47.5 q9.5 30 7.5 131 Z" /><glyph glyph-name=".notdef" unicode="&#x4eea;" d="M135 200 q18 -17 25.5 -26.5 q7.5 -9.5 5.5 -16.5 q-2 -7 -6 -10 l-5 -3 q-4 0 -6 12 q-3 15 -17 42 l3 2 ZM109 152 q10 -29 22 -52 q12 -23 25 -41 q11 20 24 52 q13 32 20 59 l21 -14 q-10 -4 -23 -37 q-13 -34 -33 -70 q14 -18 35.5 -32.5 q21.5 -14.5 43.5 -18.5 l0 -4 q-19 -3 -23 -14 q-17 10 -32 23 q-15 13 -32 34 q-17 -20 -38.5 -35.5 q-21.5 -15.5 -46.5 -25.5 l-2 3 q21 11 41.5 28 q20.5 17 37.5 40 q-14 22 -25.5 49 q-11.5 27 -18.5 55 l4 1 ZM53 -26 q1 28 1 47 l0 104 q-19 -32 -40 -52 l-3 2 q21 30 36.5 64.5 q15.5 34.5 24.5 69.5 l22 -13 q-9 -4 -16 -21 q-8 -17 -18 -38 l16 -8 l-8 -6 l0 -98 q0 -23 1 -43 l-16 -8 Z" /><glyph glyph-name=".notdef" unicode="&#x4eec;" d="M115 200 q16 -10 23.5 -17.5 q7.5 -7.5 6 -14 q-1.5 -6.5 -5 -10.5 q-3.5 -4 -4.5 -4 q-4 0 -6 11 q-4 14 -17 33 l3 2 ZM162 174 l50 0 l9 10 l16 -13 l-9 -7 l0 -158 q1 -20 -23 -28 q0 13 -34 22 l0 4 q25 -3 34 -3 q9 0 9 13 l0 154 l-19 0 q-13 0 -24 -3 l-9 9 ZM111 27 q0 -22 1 -40 l-16 -8 q1 28 1 43 l0 107 q0 14 -1 33 l23 -12 l-8 -8 l0 -115 ZM77 187 q-14 -28 -21 -43 l16 -9 l-8 -6 l0 -104 q0 -24 1 -39 l-16 -8 q1 28 1 45 l0 107 q-19 -31 -38 -52 l-2 3 q14 21 27.5 50 q13.5 29 27.5 76 l22 -15 l-10 -5 Z" /><glyph glyph-name=".notdef" unicode="&#x4ef0;" d="M51 132 q-19 -32 -38 -54 l-3 2 q18 28 33 62.5 q15 34.5 25 66.5 l20 -13 q-10 -8 -19 -26 q-9 -18 -15 -31 l19 -9 l-8 -8 l0 -144 l-15 -5 q1 25 1 45 l0 114 ZM94 134 q0 13 -1 39 l13 -7 q33 16 44 31 l17 -16 q-15 -2 -31 -9 q-16 -7 -29 -12 l0 -111 l39 27 l2 -3 q-40 -38 -46 -50 l-12 15 q5 6 4 14 l0 82 ZM162 134 q0 20 -1 44 l14 -9 l40 0 l8 10 l16 -12 l-8 -7 l0 -113 q1 -17 -20 -24 q0 11 -28 19 l0 4 q20 -3 27.5 -3 q7.5 0 6.5 12 l0 108 l-42 0 l0 -180 l-14 -7 q1 28 1 49 l0 109 Z" /><glyph glyph-name=".notdef" unicode="&#x4ef6;" d="M159 142 q0 38 -1 68 l24 -11 l-9 -7 l0 -50 l31 0 l12 12 l18 -18 l-61 0 l0 -58 l42 0 l12 12 l18 -18 l-72 0 q0 -76 1 -91 l-16 -7 q1 49 1 98 l-44 0 q-13 0 -24 -3 l-9 9 l77 0 l0 58 l-43 0 q-12 -28 -27 -48 l-3 2 q11 23 17.5 46 q6.5 23 10.5 50 l21 -11 l-8 -6 q-4 -11 -9 -27 l41 0 ZM52 -26 q1 31 1 48 l0 106 q-26 -39 -41 -54 l-3 3 q8 11 18.5 28 q10.5 17 23.5 45 q13 28 23 60 l21 -14 l-8 -6 q-19 -34 -25 -45 l13 -9 l-8 -7 l0 -104 q0 -18 1 -42 l-16 -9 Z" /><glyph glyph-name=".notdef" unicode="&#x4ef7;" d="M167 195 l-9 -6 q16 -28 38 -46.5 q22 -18.5 49 -24.5 l0 -3 q-15 -2 -19 -12 q-47 28 -71 81 q-17 -32 -36.5 -52.5 q-19.5 -20.5 -42.5 -35.5 l-2 3 q22 17 42 46.5 q20 29.5 30 62.5 l21 -13 ZM135 102 q0 -38 -4 -58.5 q-4 -20.5 -16 -35.5 q-12 -15 -40 -30 l-2 3 q21 15 30 28 q9 13 13.5 30 q4.5 17 4.5 81 l23 -11 l-9 -7 ZM176 -28 q1 24 1 44 l0 62 q0 23 -1 43 l23 -11 l-9 -8 l0 -81 q0 -19 1 -41 l-15 -8 ZM53 130 q-23 -35 -39 -49 l-3 3 q9 11 19 27 q10 16 20 39.5 q10 23.5 19 57.5 l22 -13 l-9 -6 q-6 -12 -23 -49 l14 -8 l-6 -6 l0 -94 q0 -27 1 -49 l-17 -8 q2 31 2 56 l0 99 Z" /><glyph glyph-name=".notdef" unicode="&#x4efb;" d="M94 165 q40 4 73 12 q33 8 45 16 l16 -19 q-14 0 -60 -7 l0 -75 l42 0 l13 13 l19 -19 l-74 0 l0 -90 l45 0 l13 13 l19 -19 l-131 0 q-13 0 -24 -3 l-9 9 l73 0 l0 90 l-39 0 q-13 0 -24 -3 l-9 9 l72 0 l0 73 q-29 -2 -60 -4 l0 4 ZM68 24 q0 -26 1 -41 l-16 -9 q1 37 1 55 l0 93 q-23 -35 -43 -54 l-2 3 q25 33 42.5 71.5 q17.5 38.5 24.5 67.5 l22 -14 q-7 -2 -16 -20 q-9 -19 -19 -39 l13 -8 l-8 -7 l0 -98 Z" /><glyph glyph-name=".notdef" unicode="&#x4efd;" d="M65 20 q0 -25 1 -40 l-16 -6 q1 23 1 41 l0 104 q-18 -25 -39 -44 l-2 4 q22 25 38.5 58 q16.5 33 25.5 65 l22 -13 l-9 -5 q-18 -34 -28 -53 l14 -7 l-8 -7 l0 -97 ZM102 96 l84 0 l9 9 l13 -13 l-8 -6 q-2 -69 -4.5 -84 q-2.5 -15 -23.5 -24 q-4 13 -31 21 l0 4 q27 -4 33 -3 q6 1 8 6.5 q2 5.5 5 83.5 l-44 0 q-3 -32 -9 -52 q-6 -20 -20 -35 q-14 -15 -45 -29 l-1 4 q26 14 38 31 q12 17 16.5 38.5 q4.5 21.5 5.5 42.5 l-6 0 l-12 -2 l-8 8 ZM166 207 l17 -7 l-8 -6 q6 -28 17.5 -46 q11.5 -18 25.5 -28 q14 -10 27 -14 l0 -3 q-18 -3 -21 -11 q-25 18 -39.5 49 q-14.5 31 -18.5 66 ZM129 194 l21 -13 l-9 -5 q-16 -37 -31.5 -58 q-15.5 -21 -35.5 -37 l-3 3 q22 21 37.5 53.5 q15.5 32.5 20.5 56.5 Z" /><glyph glyph-name=".notdef" unicode="&#x4eff;" d="M70 24 q0 -21 1 -41 l-16 -7 q1 39 1 51 l0 97 q-25 -32 -41 -46 l-3 3 q20 24 37.5 56 q17.5 32 27.5 67 l23 -15 q-9 -3 -17.5 -18.5 q-8.5 -15.5 -16.5 -30.5 l11 -6 l-7 -7 l0 -103 ZM215 97 q-6 -94 -14.5 -105.5 q-8.5 -11.5 -23.5 -15.5 q0 13 -29 24 l1 4 q26 -6 31.5 -5.5 q5.5 0.5 8.5 5.5 q3 5 12 98 l-52 0 q-3 -46 -20.5 -76.5 q-17.5 -30.5 -51.5 -50.5 l-2 4 q24 17 39.5 46.5 q15.5 29.5 18.5 60.5 q3 31 3 62 l-22 0 q-13 0 -24 -3 l-9 9 l130 0 l13 13 l19 -19 l-92 0 q-1 -30 -2 -40 l51 0 l9 9 l15 -14 l-9 -6 ZM143 208 q19 -13 24 -19.5 q5 -6.5 5 -12.5 q0 -2 -1.5 -6 q-1.5 -4 -6.5 -7 q-5 -3 -8 10 q-3 12 -16 32 l3 3 Z" /><glyph glyph-name=".notdef" unicode="&#x4f01;" d="M126 136 l25 -13 l-10 -7 l0 -44 l35 0 l13 13 l19 -19 l-67 0 l0 -69 l64 0 l15 15 l21 -21 l-192 0 q-13 0 -24 -3 l-9 9 l57 0 l0 58 q0 18 -1 40 l25 -12 l-10 -8 l0 -78 l40 0 l0 96 q0 21 -1 43 ZM124 210 l22 -14 l-10 -7 q17 -26 47.5 -50.5 q30.5 -24.5 61.5 -27.5 l0 -4 q-17 -2 -22 -14 q-23 11 -47.5 35.5 q-24.5 24.5 -42.5 56.5 q-29 -43 -56.5 -66.5 q-27.5 -23.5 -60.5 -38.5 l-2 3 q37 21 65.5 54 q28.5 33 44.5 73 Z" /><glyph glyph-name=".notdef" unicode="&#x4f0a;" d="M140 59 q-4 -27 -21.5 -48 q-17.5 -21 -49.5 -36 l-2 3 q23 13 39 34.5 q16 21.5 20 46.5 l-11 0 q-13 0 -24 -3 l-9 9 l45 0 q2 28 2 53 l-24 0 q-13 0 -24 -3 l-9 9 l57 0 l0 52 l-11 0 q-13 0 -24 -3 l-9 9 l108 0 l8 11 l17 -13 l-9 -7 l0 -49 l7 0 l12 12 l18 -18 l-37 0 l0 -42 q0 -8 1 -25 l-15 -8 l0 16 l-55 0 ZM65 18 q0 -11 1 -35 l-16 -7 q1 27 1 43 l0 115 q-20 -32 -39 -51 l-2 3 q17 24 32.5 58.5 q15.5 34.5 23.5 66.5 l22 -12 l-8 -5 q-11 -24 -24 -50 l17 -10 l-8 -7 l0 -109 ZM143 176 l0 -52 l52 0 l0 52 l-52 0 ZM195 65 l0 53 l-52 0 q-1 -26 -2 -53 l54 0 Z" /><glyph glyph-name=".notdef" unicode="&#x4f0d;" d="M64 124 l0 -143 l-14 -6 q1 27 1 40 l0 117 q-24 -38 -39 -54 l-3 2 q10 15 20.5 34.5 q10.5 19.5 22 47 q11.5 27.5 15.5 47.5 l21 -12 q-9 -4 -16 -21 q-8 -18 -17 -36 l16 -9 l-7 -7 ZM119 4 l13 98 l-16 0 q-13 0 -24 -3 l-9 9 l50 0 l8 63 l-25 0 q-13 0 -24 -3 l-9 9 l118 0 l13 13 l19 -19 l-79 0 l-8 -63 l44 0 l8 10 l16 -13 l-9 -6 l-3 -95 l11 0 l13 13 l19 -19 l-144 0 q-13 0 -24 -3 l-9 9 l51 0 ZM145 102 l-13 -98 l56 0 l4 98 l-47 0 Z" /><glyph glyph-name=".notdef" unicode="&#x4f0f;" d="M54 -27 q1 31 1 48 l0 100 q-20 -33 -42 -55 l-3 3 q19 25 35.5 57.5 q16.5 32.5 30.5 82.5 l22 -12 l-9 -6 q-14 -29 -25 -53 l14 -9 l-9 -7 l0 -100 q0 -13 1 -42 l-16 -7 ZM146 129 q0 60 -1 80 l24 -11 l-9 -7 l0 -62 l53 0 l12 12 l18 -18 l-74 0 q8 -58 29.5 -88.5 q21.5 -30.5 44.5 -37.5 l0 -4 q-18 0 -23 -10 q-13 10 -31.5 42.5 q-18.5 32.5 -24.5 97.5 l-4 0 q-3 -57 -23.5 -91 q-20.5 -34 -62.5 -58 l-2 4 q33 21 52.5 57.5 q19.5 36.5 21.5 87.5 l-29 0 q-13 0 -24 -3 l-9 9 l62 0 ZM177 188 q27 -12 33 -18 q6 -6 6 -11 q0 -4 -3 -9.5 q-3 -5.5 -5 -5.5 q-3 0 -7 9 q-7 14 -26 32 l2 3 Z" /><glyph glyph-name=".notdef" unicode="&#x4f10;" d="M224 -1 l10 53 l4 0 q-1 -35 0 -48.5 q1 -13.5 6 -20.5 q4 -7 -11.5 -4 q-15.5 3 -34 15.5 q-18.5 12.5 -34.5 38.5 q-34 -30 -76 -47 l-2 4 q26 14 44.5 28.5 q18.5 14.5 27.5 25.5 q-9 19 -13.5 39.5 q-4.5 20.5 -7.5 39.5 l-39 -5 l-8 -4 l-11 8 l57 7 q-2 16 -4 40 q-2 23 -4 41 l24 -8 l-8 -8 q2 -37 5 -63 l61 7 l9 12 l21 -15 l-90 -10 q3 -20 7.5 -38.5 q4.5 -18.5 10.5 -30.5 q12 16 21.5 33.5 q9.5 17.5 14.5 30.5 l20 -15 l-10 -4 q-20 -33 -40 -58 q10 -17 24.5 -28.5 q14.5 -11.5 25.5 -15.5 ZM167 196 l2 3 q26 -10 34.5 -16 q8.5 -6 8.5 -12 q0 -3 -2.5 -8 q-2.5 -5 -4.5 -5 q-3 0 -7 7 q-7 11 -31 31 ZM52 -26 q1 26 1 42 l0 108 q-20 -30 -43 -55 l-3 3 q24 33 42 73 q18 40 23 65 l22 -14 q-8 -3 -15 -18 q-7 -15 -18 -37 l14 -7 l-8 -6 l0 -109 q0 -13 1 -40 l-16 -5 Z" /><glyph glyph-name=".notdef" unicode="&#x4f11;" d="M161 23 q0 -25 1 -41 l-16 -7 q1 24 1 46 l0 104 q-18 -45 -36.5 -69.5 q-18.5 -24.5 -38.5 -41.5 l-3 2 q18 20 37 52.5 q19 32.5 30 71.5 l-27 0 q-13 0 -24 -3 l-9 9 l71 0 l0 29 q0 17 -1 35 l24 -11 l-9 -8 l0 -45 l43 0 l13 13 l19 -19 l-67 0 q15 -46 35.5 -73.5 q20.5 -27.5 38.5 -32.5 l0 -4 q-17 0 -23 -9 q-23 23 -36 55 q-13 32 -19 64 l-4 0 l0 -117 ZM66 125 l0 -143 l-15 -8 q1 25 1 42 l0 110 q-18 -31 -42 -54 l-2 3 q28 40 44 79 q16 39 20 55 l22 -14 l-11 -5 q-16 -34 -24 -50 l15 -8 l-8 -7 Z" /><glyph glyph-name=".notdef" unicode="&#x4f17;" d="M126 187 q-23 -46 -51 -67.5 q-28 -21.5 -61 -31.5 l-2 4 q33 12 61 41 q28 29 45 78 l22 -13 l-10 -6 q12 -27 44 -52.5 q32 -25.5 68 -28.5 l0 -4 q-20 -4 -22 -15 q-24 10 -49.5 33.5 q-25.5 23.5 -44.5 61.5 ZM158 117 l23 -12 l-8 -8 q4 -26 16 -50 q12 -24 27.5 -37 q15.5 -13 29.5 -17 l0 -4 q-16 -2 -20 -12 q-41 33 -55 104 q-6 -49 -27 -72 q-21 -23 -55 -35 l-2 3 q40 19 55.5 53.5 q15.5 34.5 15.5 86.5 ZM75 62 q35 -17 41.5 -24.5 q6.5 -7.5 6.5 -12.5 q0 -3 -3.5 -9 q-3.5 -6 -5.5 -6 q-2 0 -4 5 q-4 9 -12 19 q-8 10 -24 23 q-8 -29 -23 -48.5 q-15 -19.5 -37 -33.5 l-3 3 q29 25 41.5 60 q12.5 35 14.5 75 l24 -12 l-9 -6 l-7 -33 Z" /><glyph glyph-name=".notdef" unicode="&#x4f18;" d="M51 -24 q1 29 1 48 l0 107 q-23 -33 -40 -50 l-3 3 q17 23 34.5 58.5 q17.5 35.5 26.5 66.5 l21 -13 q-11 -7 -34 -54 l17 -9 l-8 -8 l0 -106 q0 -10 1 -35 l-16 -8 ZM171 195 q38 -13 40.5 -19 q2.5 -6 2.5 -10 q0 -5 -2.5 -10 q-2.5 -5 -4.5 -5 q-4 0 -8 9 q-8 14 -30 32 l2 3 ZM131 133 l0 34 q0 21 -1 40 l24 -11 l-9 -8 l0 -55 l56 0 l13 13 l19 -19 l-60 0 l0 -115 q0 -14 14 -14 l30 0 q7 2 9 16 q2 14 2 30 l5 0 q0 -15 1.5 -28.5 q1.5 -13.5 10.5 -15.5 q-8 -14 -22 -14 l-40 0 q-23 -1 -23 19 l0 122 l-15 0 q-1 -36 -8 -63.5 q-7 -27.5 -23 -49 q-16 -21.5 -44 -40.5 l-3 3 q21 17 35 38.5 q14 21.5 21 49.5 q7 28 8 62 l-22 0 q-13 0 -24 -3 l-9 9 l55 0 Z" /><glyph glyph-name=".notdef" unicode="&#x4f19;" d="M110 139 l4 0 q2 -22 2 -28 q0 -19 -5.5 -26.5 q-5.5 -7.5 -13 -5 q-7.5 2.5 -7.5 5.5 q0 4 5 9 q10 11 15 45 ZM161 191 q-2 -51 9 -96 q24 22 40 54 l19 -17 l-10 -3 q-25 -24 -47 -39 q10 -36 30.5 -61.5 q20.5 -25.5 42.5 -30.5 l0 -4 q-18 -1 -23 -11 q-22 16 -41 55.5 q-19 39.5 -22 96.5 q0 -40 -8 -69 q-8 -29 -24.5 -50.5 q-16.5 -21.5 -48.5 -40.5 l-3 3 q39 28 54.5 68 q15.5 40 16.5 83.5 q1 43.5 0 78.5 l24 -10 l-9 -7 ZM68 30 q0 -21 1 -50 l-17 -6 q1 32 1 58 l0 93 q-22 -33 -39 -49 l-3 3 q19 25 35.5 59.5 q16.5 34.5 23.5 66.5 l21 -13 l-9 -7 q-12 -28 -23 -48 l17 -10 l-8 -6 l0 -91 Z" /><glyph glyph-name=".notdef" unicode="&#x4f1a;" d="M63 113 l91 0 l12 12 l18 -18 l-89 0 q-12 0 -23 -3 l-9 9 ZM62 -4 q31 1 119 4 q-13 17 -36 37 l3 3 q34 -20 47.5 -31 q13.5 -11 13.5 -20 q0 -4 -3.5 -10 q-3.5 -6 -5.5 -6 q-2 0 -4 4 q-4 8 -11 18 q-49 -5 -84 -9.5 q-35 -4.5 -46 -9.5 l-10 20 q15 3 35 29.5 q20 26.5 24 38.5 l-46 0 q-13 0 -24 -3 l-9 9 l173 0 l14 14 l20 -20 l-118 0 l14 -10 l-9 -3 q-34 -41 -57 -55 ZM139 196 l-10 -6 q15 -24 45.5 -46 q30.5 -22 70.5 -28 l0 -4 q-18 -2 -22 -13 q-23 8 -49.5 29.5 q-26.5 21.5 -48.5 56.5 q-20 -32 -48.5 -58.5 q-28.5 -26.5 -64.5 -44.5 l-3 3 q34 19 64 53.5 q30 34.5 45 72.5 l21 -15 Z" /><glyph glyph-name=".notdef" unicode="&#x4f1f;" d="M143 168 q0 24 -1 42 l26 -11 l-10 -7 l0 -24 l49 0 l13 13 l19 -19 l-81 0 l0 -34 l34 0 l12 12 l18 -18 l-64 0 l0 -35 l55 0 l8 10 l16 -13 l-8 -6 l-3 -47 q-1 -12 -7.5 -17.5 q-6.5 -5.5 -18.5 -7.5 q1 12 -23 21 l0 4 q18 -4 26 -4.5 q8 -0.5 9 12.5 l3 42 l-57 0 l0 -66 q0 -15 1 -31 l-17 -7 q1 23 1 32 l0 72 l-38 0 q-13 0 -24 -3 l-9 9 l71 0 l0 35 l-20 0 q-13 0 -24 -3 l-9 9 l53 0 l0 34 l-33 0 q-13 0 -24 -3 l-9 9 l66 0 ZM49 -26 q1 32 1 51 l0 110 q-19 -31 -39 -51 l-2 3 q18 25 33 57.5 q15 32.5 23 65.5 l22 -13 q-7 -2 -15 -19 q-9 -18 -18 -35 l19 -11 l-8 -7 l0 -95 q0 -19 1 -49 l-17 -7 Z" /><glyph glyph-name=".notdef" unicode="&#x4f20;" d="M148 100 q-4 -17 -8 -35 l57 0 l10 11 l19 -18 q-11 0 -25 -14 q-14 -14 -31 -33 q23 -9 28.5 -15.5 q5.5 -6.5 5.5 -11.5 q0 -2 -1.5 -6.5 q-1.5 -4.5 -4.5 -4.5 q-3 0 -7 5 q-9 9 -28 21.5 q-19 12.5 -44 24.5 l1 4 q32 -10 45 -15 l32 46 l-57 0 l-8 -9 l-14 13 l8 6 q4 12 8 31 l-21 0 q-13 0 -24 -3 l-9 9 l55 0 q4 20 8 40 l-19 0 q-13 0 -24 -3 l-9 9 l53 0 q6 29 8 56 l23 -11 l-9 -7 q-4 -18 -8 -38 l45 0 l11 11 l17 -17 l-74 0 q-4 -18 -8 -40 l64 0 l12 12 l18 -18 l-95 0 ZM71 127 l0 -99 q0 -12 1 -47 l-17 -6 q1 35 1 51 l0 99 q-25 -39 -45 -58 l-3 3 q17 21 36 57 q19 36 31 81 l22 -14 q-8 -4 -13 -15 q-6 -12 -18 -37 l14 -8 l-9 -7 Z" /><glyph glyph-name=".notdef" unicode="&#x4f24;" d="M51 -26 q1 32 1 51 l0 106 q-19 -31 -39 -52 l-3 2 q23 34 39 72 q16 38 20 57 l22 -12 q-7 -3 -17.5 -23 q-10.5 -20 -15.5 -33 l15 -9 l-7 -7 l0 -146 l-15 -6 ZM127 211 l21 -13 l-8 -5 q-7 -12 -15 -28 l86 0 l13 13 l19 -19 l-120 0 q-20 -32 -45 -55 l-3 3 q20 23 33 51 q13 28 19 53 ZM144 105 q1 26 1 48 l23 -10 l-8 -6 q-1 -11 -2 -32 l51 0 l8 11 l16 -13 l-8 -6 q-3 -53 -7 -75.5 q-4 -22.5 -12.5 -30 q-8.5 -7.5 -20.5 -10.5 q2 12 -28 25 l1 4 q20 -5 30.5 -6 q10.5 -1 14.5 17 q4 18 8 78 l-53 0 q-3 -58 -24.5 -82.5 q-21.5 -24.5 -56.5 -39.5 l-2 3 q26 14 45.5 38.5 q19.5 24.5 23.5 80.5 l-18 0 q-13 0 -24 -3 l-9 9 l51 0 Z" /><glyph glyph-name=".notdef" unicode="&#x4f26;" d="M66 27 q0 -19 1 -45 l-16 -8 q1 32 1 53 l0 107 q-19 -32 -39 -52 l-3 3 q13 16 28.5 46.5 q15.5 30.5 28.5 78.5 l22 -13 l-9 -6 q-13 -29 -24 -50 l18 -9 l-8 -7 l0 -98 ZM169 195 l-10 -4 q16 -31 39.5 -52 q23.5 -21 45.5 -25 l0 -4 q-18 -1 -21 -11 q-15 9 -33 30 q-18 21 -34 58 q-22 -45 -41.5 -66.5 q-19.5 -21.5 -40.5 -34.5 l-2 3 q25 21 44.5 54 q19.5 33 29.5 67 l23 -15 ZM208 84 l-13 -2 q-34 -19 -64 -32 l0 -39 q-1 -15 16 -14 l51 0 q9 1 11.5 14.5 q2.5 13.5 3.5 32.5 l5 0 q0 -16 1.5 -28 q1.5 -12 11.5 -15 q-6 -14 -22 -15 l-69 0 q-23 0 -23 19 l0 67 q0 18 -1 41 l24 -11 l-9 -7 l0 -39 q36 19 60 46 l17 -18 Z" /><glyph glyph-name=".notdef" unicode="&#x4f2f;" d="M117 78 l0 -69 l89 0 l0 69 l-89 0 ZM220 143 l0 -108 q0 -20 1 -49 l-15 -7 l0 24 l-89 0 l0 -23 l-15 -5 q1 34 1 55 l0 91 q0 19 -1 42 l15 -9 l21 0 q8 29 12 54 l23 -12 l-9 -6 q-12 -20 -20 -36 l61 0 l11 11 l15 -15 l-11 -7 ZM117 148 l0 -64 l89 0 l0 64 l-89 0 ZM50 -27 q1 36 1 50 l0 103 q-22 -31 -38 -47 l-3 3 q19 24 34.5 55.5 q15.5 31.5 26.5 70.5 l22 -13 l-9 -6 q-17 -34 -27 -51 l15 -8 l-7 -7 l0 -97 q0 -16 1 -47 l-16 -6 Z" /><glyph glyph-name=".notdef" unicode="&#x4f34;" d="M93 175 l3 3 q23 -15 28 -21.5 q5 -6.5 5 -10.5 q0 -4 -3.5 -9 q-3.5 -5 -5.5 -5 q-4 0 -6 8 q-4 13 -21 35 ZM200 181 l19 -16 q-9 -2 -20 -13 q-12 -12 -22 -21 l-3 2 q21 32 26 48 ZM145 -25 q1 26 1 40 l0 42 l-41 0 q-13 0 -24 -3 l-9 9 l74 0 l0 47 l-28 0 q-13 0 -24 -3 l-9 9 l61 0 l0 59 q0 11 -1 34 l24 -12 l-9 -8 l0 -73 l38 0 l12 12 l18 -18 l-68 0 l0 -47 l52 0 l13 13 l19 -19 l-84 0 l0 -35 q0 -19 1 -40 l-16 -7 ZM74 133 l-8 -8 l0 -101 q0 -15 1 -42 l-16 -8 q1 33 1 47 l0 103 q-22 -31 -37 -45 l-3 3 q21 28 39.5 66.5 q18.5 38.5 24.5 60.5 l20 -14 q-7 -3 -15 -18 q-8 -15 -20 -38 l13 -6 Z" /><glyph glyph-name=".notdef" unicode="&#x4f3c;" d="M109 37 q28 16 53 31 l2 -4 q-50 -38 -59 -53 l-13 13 q4 3 4 15 l0 104 q0 7 -1 31 l22 -11 l-8 -7 l0 -119 ZM137 172 q26 -24 28.5 -30.5 q2.5 -6.5 2.5 -10.5 q0 -7 -4.5 -12 q-4.5 -5 -6.5 -5 q-4 0 -5 12 q-3 17 -18 44 l3 2 ZM90 -21 q42 12 67.5 36 q25.5 24 33.5 55.5 q8 31.5 9.5 66 q1.5 34.5 0.5 61.5 l25 -11 l-9 -8 q-1 -52 -4 -79.5 q-3 -27.5 -12 -50.5 q17 -11 30.5 -23.5 q13.5 -12.5 12.5 -22 q-1 -9.5 -4.5 -12.5 q-3.5 -3 -5.5 -3 q-3 0 -5 7 q-3 10 -12.5 25.5 q-9.5 15.5 -17.5 23.5 q-16 -28 -43.5 -44 q-27.5 -16 -63.5 -25 l-2 4 ZM49 -25 q1 31 1 42 l0 116 q-17 -29 -38 -51 l-3 2 q20 30 32 58 q12 28 24 67 l22 -12 q-8 -2 -16 -19 q-8 -18 -16 -34 l17 -10 l-8 -7 l0 -145 l-15 -7 Z" /><glyph glyph-name=".notdef" unicode="&#x4f46;" d="M44 -25 q1 32 1 53 l0 93 q-14 -21 -34 -43 l-3 3 q25 36 40 71 q15 35 20 53 l20 -14 q-7 -3 -14 -18 q-8 -16 -18 -36 l10 -7 l-7 -5 l0 -107 q0 -13 1 -36 l-16 -7 ZM116 173 l0 -60 l85 0 l0 60 l-85 0 ZM116 107 l0 -54 l85 0 l0 54 l-85 0 ZM69 -3 l144 0 l13 13 l19 -19 l-143 0 q-13 0 -24 -3 l-9 9 ZM101 23 q1 23 1 42 l0 84 q0 14 -1 39 l15 -9 l83 0 l10 10 l15 -13 l-9 -7 l0 -94 q0 -13 1 -41 l-15 -6 l0 19 l-85 0 l0 -18 l-15 -6 Z" /><glyph glyph-name=".notdef" unicode="&#x4f4d;" d="M50 -24 q1 30 1 148 q-21 -35 -38 -53 l-3 2 q19 30 34.5 65 q15.5 35 23.5 71 l23 -12 l-9 -5 q-16 -36 -23 -52 l13 -9 l-8 -6 q0 -120 1 -141 l-15 -8 ZM132 205 l3 2 q29 -22 29.5 -32 q0.5 -10 -4.5 -14 q-5 -4 -6 -4 q-5 0 -6 11 q-3 15 -16 37 ZM81 149 l121 0 l14 14 l20 -20 l-123 0 q-12 0 -23 -3 l-9 9 ZM104 120 l3 2 q25 -40 29 -53.5 q4 -13.5 4 -20.5 q0 -10 -5.5 -16 q-5.5 -6 -7.5 -6 q-3 0 -3 7 q-1 12 -5 34 q-4 22 -15 53 ZM189 133 l24 -13 q-9 -5 -18 -35 q-9 -30 -28 -86 l45 0 l14 14 l20 -20 l-138 0 q-13 0 -24 -3 l-9 9 l85 0 q12 41 20 79.5 q8 38.5 9 54.5 Z" /><glyph glyph-name=".notdef" unicode="&#x4f4e;" d="M222 5 l11 39 l5 -2 q-4 -26 -3.5 -36 q0.5 -10 3.5 -19 q1 -4 -3 -4 q-5 0 -23.5 9 q-18.5 9 -34 38 q-15.5 29 -19.5 70 l-49 0 l0 -85 l46 24 l2 -3 q-40 -28 -53 -45 l-11 14 q3 5 3 16 l0 106 q0 21 -1 48 l14 -8 q25 4 52 13 q27 9 41 20 l16 -19 q-8 0 -17.5 -2 q-9.5 -2 -32.5 -7 q0 -29 2 -66 l37 0 l12 12 l18 -18 l-66 0 q4 -38 19.5 -62.5 q15.5 -24.5 31.5 -32.5 ZM154 169 q-13 -2 -45 -8 l0 -55 l48 0 q-2 33 -3 63 ZM133 16 q20 -9 26 -14.5 q6 -5.5 6 -11.5 q0 -3 -2.5 -8.5 q-2.5 -5.5 -4.5 -5.5 q-2 0 -5 7 q-5 12 -22 30 l2 3 ZM66 140 l-6 -5 l0 -116 q0 -15 1 -36 l-15 -7 q1 38 1 49 l0 105 q-14 -22 -35 -44 l-3 3 q25 36 40 72 q15 36 18 49 l20 -14 q-8 -4 -15 -17 q-7 -13 -16 -33 l10 -6 Z" /><glyph glyph-name=".notdef" unicode="&#x4f4f;" d="M132 206 q24 -13 30.5 -19.5 q6.5 -6.5 6.5 -11.5 q0 -4 -4.5 -10.5 q-4.5 -6.5 -6.5 -6.5 q-3 0 -6 9 q-4 14 -23 36 l3 3 ZM85 150 l119 0 l14 14 l20 -20 l-75 0 l0 -66 l31 0 l13 13 l19 -19 l-63 0 l0 -77 l44 0 l14 14 l20 -20 l-133 0 q-13 0 -24 -3 l-9 9 l74 0 l0 77 l-25 0 q-13 0 -24 -3 l-9 9 l58 0 l0 66 l-31 0 q-13 0 -24 -3 l-9 9 ZM51 -24 q1 45 1 59 l0 88 q-16 -24 -41 -47 l-2 3 q28 36 46 73.5 q18 37.5 22 54.5 l22 -14 l-9 -6 q-18 -31 -29 -50 l12 -8 l-7 -7 l0 -97 q0 -12 1 -43 l-16 -6 Z" /><glyph glyph-name=".notdef" unicode="&#x4f50;" d="M71 151 l56 0 q7 32 9 56 l24 -11 l-10 -6 q-4 -22 -8 -39 l65 0 l13 13 l19 -19 l-98 0 q-10 -36 -21 -61 l76 0 l13 13 l19 -19 l-61 0 l0 -79 l41 0 l14 14 l20 -20 l-136 0 q-13 0 -24 -3 l-9 9 l80 0 l0 79 l-35 0 q-22 -41 -50 -65 l-3 2 q22 27 36.5 58.5 q14.5 31.5 24.5 71.5 l-22 0 q-13 0 -24 -3 l-9 9 ZM48 -25 q1 42 1 56 l0 102 q-17 -36 -37 -61 l-3 2 q21 37 34 78 q13 41 15 55 l22 -11 l-10 -6 q-10 -27 -19 -50 l19 -9 l-8 -7 l0 -100 q0 -15 1 -42 l-15 -7 Z" /><glyph glyph-name=".notdef" unicode="&#x4f51;" d="M66 22 q0 -21 1 -39 l-15 -7 q1 31 1 49 l0 103 q-19 -32 -40 -56 l-3 2 q27 42 40 79 q13 37 16 53 l21 -12 q-8 -6 -14 -21 q-7 -15 -15 -33 l15 -9 l-7 -6 l0 -103 ZM116 -22 q1 37 1 48 l0 50 q-18 -29 -47 -52 l-2 3 q26 29 42 60 q16 31 23 53 l-27 0 q-13 0 -24 -3 l-9 9 l62 0 q9 30 11 58 l24 -12 l-9 -6 q-3 -14 -11 -40 l59 0 l14 14 l20 -20 l-95 0 q-10 -27 -22 -50 l6 -6 l65 0 l8 11 l17 -13 l-9 -7 l0 -40 q0 -12 1 -48 l-15 -7 l0 15 l-68 0 l0 -11 l-15 -6 ZM131 78 l0 -77 l68 0 l0 77 l-68 0 Z" /><glyph glyph-name=".notdef" unicode="&#x4f53;" d="M51 -24 q1 32 1 50 l0 103 q-16 -26 -39 -49 l-3 3 q23 29 39.5 69.5 q16.5 40.5 19.5 56.5 l21 -14 l-8 -4 q-16 -33 -25 -52 l16 -9 l-8 -7 l0 -139 l-14 -8 ZM164 23 q0 -19 1 -39 l-16 -7 q1 32 1 43 l0 13 l-16 0 q-13 0 -24 -3 l-9 9 l49 0 l0 96 q-15 -37 -35 -64 q-20 -27 -43 -45 l-3 3 q19 18 38.5 51 q19.5 33 29.5 63 l-22 0 q-13 0 -24 -3 l-9 9 l68 0 l0 30 q0 10 -1 29 l24 -11 l-9 -7 l0 -41 l45 0 l13 13 l19 -19 l-68 0 q14 -42 34.5 -67.5 q20.5 -25.5 37.5 -31.5 l0 -4 q-16 0 -21 -9 q-14 11 -30.5 43 q-16.5 32 -25.5 69 l-4 0 l0 -104 l20 0 l12 12 l18 -18 l-50 0 l0 -10 Z" /><glyph glyph-name=".notdef" unicode="&#x4f55;" d="M158 1 q22 -4 31 -3.5 q9 0.5 9 10.5 l0 163 l-78 0 q-13 0 -24 -3 l-9 9 l129 0 l12 12 l18 -18 l-35 0 l0 -170 q2 -17 -20 -26 q-2 12 -34 22 l1 4 ZM96 36 q1 25 1 50.5 q0 25.5 -1 50.5 l14 -8 l42 0 l7 9 l16 -12 l-8 -6 l0 -39 q0 -15 1 -30 l-15 -7 l0 15 l-43 0 l0 -17 l-14 -6 ZM110 123 l0 -58 l43 0 l0 58 l-43 0 ZM50 -25 q1 49 1 69 l0 80 q-12 -20 -35 -42 l-2 3 q27 37 40 71.5 q13 34.5 17 51.5 l21 -14 l-9 -6 q-13 -26 -22 -46 l11 -7 l-8 -6 l0 -105 q0 -22 1 -41 l-15 -8 Z" /><glyph glyph-name=".notdef" unicode="&#x4f59;" d="M80 1 q23 -4 31 -4 q8 0 8 11 l0 64 l-50 0 q-13 0 -24 -3 l-9 9 l83 0 l0 34 l-20 0 q-13 0 -24 -3 l-9 9 l93 0 l12 12 l18 -18 l-56 0 l0 -34 l52 0 l13 13 l19 -19 l-84 0 l0 -71 q1 -20 -22 -26 q1 11 -32 22 l1 4 ZM80 57 l18 -16 l-11 -4 q-37 -37 -71 -54 l-2 3 q22 17 38.5 35 q16.5 18 27.5 36 ZM149 51 l2 3 q32 -15 50 -26.5 q18 -11.5 19.5 -21 q1.5 -9.5 -1.5 -14.5 q-3 -5 -5 -5 q-2 0 -5 5 q-6 9 -20.5 24.5 q-14.5 15.5 -39.5 34.5 ZM121 211 l21 -13 l-9 -6 q17 -24 46.5 -46.5 q29.5 -22.5 65.5 -29.5 l0 -4 q-19 -4 -20 -14 q-22 10 -48.5 33.5 q-26.5 23.5 -47.5 56.5 q-28 -42 -59.5 -66 q-31.5 -24 -56.5 -35 l-2 3 q40 23 70 59 q30 36 40 62 Z" /><glyph glyph-name=".notdef" unicode="&#x4f5b;" d="M47 -26 q1 33 1 52 l0 108 q-16 -29 -34 -51 l-3 3 q24 40 36.5 73.5 q12.5 33.5 15.5 48.5 l21 -13 l-8 -5 q-10 -19 -23 -46 l14 -8 l-7 -6 l0 -105 q0 -18 1 -43 l-14 -8 ZM140 156 l0 -37 l24 0 l0 37 l-24 0 ZM177 156 l0 -37 l27 0 l0 37 l-27 0 ZM140 113 q0 -12 -1 -35 l25 0 l0 35 l-24 0 ZM101 113 q-1 -8 -4 -35 l29 0 q1 23 1 35 l-26 0 ZM182 23 q12 -2 19.5 -3 q7.5 -1 10.5 6 q3 7 5 46 l-40 0 l0 -53 q0 -16 1 -35 l-15 -7 q1 23 1 40 l0 55 l-26 0 q-1 -31 -19 -56.5 q-18 -25.5 -46 -39.5 l-3 3 q26 16 39.5 40.5 q13.5 24.5 15.5 52.5 l-28 0 l-8 -9 l-13 12 l8 6 q4 33 4 47 l14 -9 l25 0 l0 37 l-14 0 q-13 0 -24 -3 l-9 9 l47 0 q0 34 -1 47 l22 -11 l-8 -8 l0 -28 l24 0 q0 33 -1 46 l21 -10 l-7 -7 l0 -29 l26 0 l9 9 l13 -13 l-8 -6 q0 -33 1 -44 l-14 -7 l0 12 l-27 0 l0 -35 l39 0 l9 9 l13 -13 l-8 -5 q-2 -42 -6.5 -53 q-4.5 -11 -18.5 -15 q0 9 -24 18 l1 4 Z" /><glyph glyph-name=".notdef" unicode="&#x4f5c;" d="M153 38 l0 -33 q0 -9 1 -24 l-16 -6 q1 30 1 49 l0 129 l-14 0 q-21 -36 -43 -58 l-3 2 q23 33 36.5 65 q13.5 32 17.5 49 l20 -13 l-9 -5 q-10 -21 -17 -34 l80 0 l13 13 l19 -19 l-86 0 l0 -54 l44 0 l13 13 l19 -19 l-76 0 l0 -49 l51 0 l13 13 l19 -19 l-83 0 ZM66 18 q0 -20 1 -35 l-16 -8 q1 32 1 55 l0 95 q-18 -28 -38 -48 l-3 2 q17 23 30 49.5 q13 26.5 20 46.5 q7 20 11 35 l20 -12 l-8 -6 q-16 -35 -25 -54 l14 -9 l-7 -6 l0 -105 Z" /><glyph glyph-name=".notdef" unicode="&#x4f60;" d="M120 104 l21 -13 l-9 -5 q-20 -48 -52 -80 l-3 2 q16 22 26.5 45.5 q10.5 23.5 16.5 50.5 ZM157 103 q0 16 -1 33 l23 -9 l-8 -7 l0 -119 q1 -17 -22 -24 q0 11 -31 22 l1 4 q19 -4 28.5 -4 q9.5 0 9.5 12 l0 92 ZM191 97 q21 -19 35 -35 q14 -16 14.5 -27 q0.5 -11 -3 -15.5 q-3.5 -4.5 -5.5 -4.5 q-3 0 -5 9 q-4 13 -15.5 34.5 q-11.5 21.5 -23.5 36.5 l3 2 ZM69 128 l0 -105 q0 -22 1 -37 l-16 -10 q1 46 1 61 l0 91 q-21 -31 -41 -50 l-3 2 q31 44 45 76.5 q14 32.5 20 54.5 l23 -15 l-9 -4 q-14 -26 -28 -51 l14 -8 l-7 -5 ZM134 208 l24 -15 l-10 -5 q-9 -17 -18 -34 l83 0 l10 12 l20 -20 q-16 0 -39 -29 l-3 2 l14 29 l-87 0 q-19 -30 -39 -49 l-3 2 q19 25 32 57.5 q13 32.5 16 49.5 Z" /><glyph glyph-name=".notdef" unicode="&#x4f63;" d="M63 43 q0 -15 1 -59 l-15 -6 q1 37 1 49 l0 105 q-22 -39 -36 -53 l-3 2 q19 30 34 73 q15 43 17 55 l21 -11 q-8 -5 -13 -17 q-5 -12 -14 -33 l15 -7 l-8 -7 l0 -91 ZM112 177 l0 -52 l43 0 l0 52 l-43 0 ZM168 177 l0 -52 l44 0 l0 52 l-44 0 ZM112 119 l0 -47 l43 0 l0 47 l-43 0 ZM168 119 l0 -47 l44 0 l0 47 l-44 0 ZM168 30 q0 -11 1 -45 l-15 -8 q1 30 1 44 l0 45 l-43 0 q0 -21 -11 -46.5 q-11 -25.5 -35 -45.5 l-3 2 q17 18 26.5 45 q9.5 27 9.5 56 l0 75 q0 13 -1 40 l14 -9 l98 0 l8 11 l16 -13 l-9 -7 l0 -172 q2 -18 -21 -25 q0 12 -28 19 l0 4 q16 -2 26 -2.5 q10 -0.5 10 11.5 l0 57 l-44 0 l0 -36 Z" /><glyph glyph-name=".notdef" unicode="&#x4f69;" d="M135 -24 q1 36 1 47 l0 85 l-19 0 l0 -87 l-12 -5 q1 22 1 29 l0 50 q0 9 -1 26 l13 -7 l18 0 l0 33 l-3 0 q-13 0 -24 -3 l-9 9 l63 0 l9 9 l15 -15 l-40 0 l0 -33 l19 0 l7 9 l14 -11 l-8 -6 l0 -72 q1 -11 -14 -15 q1 6 -15 11 l0 4 q11 -2 14.5 -1 q3.5 1 3.5 7 l0 68 l-21 0 l0 -83 q0 -18 1 -42 l-13 -7 ZM228 7 q6 21 12 38 l3 -2 q-3 -16 -4 -30.5 q-1 -14.5 3 -24.5 q2 -5 -2 -5 q-2 0 -11 5 q-9 5 -19.5 21 q-10.5 16 -14 39 q-3.5 23 -3.5 132 l-97 0 l0 -92 q1 -65 -37 -109 l-3 2 q27 42 28 106 l0 62 q0 30 -1 47 l14 -10 l95 0 l8 9 l14 -12 l-9 -6 q-1 -114 5.5 -136 q6.5 -22 18.5 -34 ZM40 -24 q1 39 1 51 l0 101 q-11 -23 -30 -46 l-2 2 q14 25 25.5 55.5 q11.5 30.5 22.5 69.5 l20 -12 l-8 -5 q-13 -30 -20 -45 l12 -7 l-8 -6 l0 -152 l-13 -6 Z" /><glyph glyph-name=".notdef" unicode="&#x4f6c;" d="M191 157 l-41 0 l0 -43 l14 0 q14 20 27 43 ZM137 163 l0 20 q0 12 -1 24 l23 -10 l-9 -7 l0 -27 l17 0 l11 11 l14 -14 q7 14 12 33 l22 -15 l-10 -4 q-17 -33 -38 -60 l28 0 l13 13 l19 -19 l-63 0 q-14 -17 -30 -34 l7 -4 l-10 -6 l0 -26 q44 23 64 47 l16 -18 l-12 -2 q-33 -18 -68 -32 l0 -22 q0 -12 17 -11 l48 0 q9 0 12 9 q3 9 4 36 l4 0 q0 -15 1.5 -26.5 q1.5 -11.5 11.5 -15.5 q-7 -14 -22 -14 l-65 0 q-24 -2 -24 17 l0 53 q-30 -24 -57 -36 l-2 3 q30 18 59 47 l0 9 l6 -3 q13 14 25 29 l-53 0 q-13 0 -24 -3 l-9 9 l63 0 l0 43 l-13 0 q-13 0 -24 -3 l-9 9 l46 0 ZM69 207 l22 -14 l-9 -4 q-6 -12 -22 -45 l13 -7 l-8 -6 l0 -100 q0 -13 1 -47 l-15 -7 q1 39 1 51 l0 101 q-12 -20 -37 -45 l-2 3 q19 25 32 51.5 q13 26.5 24 68.5 Z" /><glyph glyph-name=".notdef" unicode="&#x4f73;" d="M153 157 q0 35 -1 51 l24 -11 l-9 -7 l0 -33 l31 0 l13 13 l19 -19 l-63 0 l0 -44 l45 0 l13 13 l19 -19 l-134 0 q-13 0 -24 -3 l-9 9 l76 0 l0 44 l-27 0 q-13 0 -24 -3 l-9 9 l60 0 ZM153 54 q0 28 -1 44 l24 -11 l-9 -7 l0 -26 l34 0 l11 11 l17 -17 l-62 0 l0 -54 l47 0 l13 13 l19 -19 l-137 0 q-13 0 -24 -3 l-9 9 l77 0 l0 54 l-25 0 q-13 0 -24 -3 l-9 9 l58 0 ZM68 33 q0 -12 1 -51 l-16 -9 q1 43 1 57 l0 96 q-20 -29 -40 -48 l-3 3 q22 26 38 59.5 q16 33.5 23 64.5 l22 -12 l-10 -6 q-12 -28 -24 -50 l15 -7 l-7 -6 l0 -91 Z" /><glyph glyph-name=".notdef" unicode="&#x4f7f;" d="M115 126 l0 -42 l38 0 q1 29 1 42 l-39 0 ZM167 126 q0 -14 -1 -42 l40 0 l0 42 l-39 0 ZM219 124 l0 -27 q0 -13 1 -25 l-14 -5 l0 11 l-40 0 q-1 -31 -11 -54 q16 -13 40 -21 q24 -8 48 -9 l0 -4 q-15 -2 -19 -13 q-43 10 -75 37 q-12 -13 -32 -23 q-20 -10 -42 -17 l-2 4 q23 9 41 21 q18 12 26 24 q-12 14 -27 43 l3 2 q17 -24 29 -35 q7 19 8 45 l-38 0 l0 -5 l-14 -6 q1 16 1 35.5 q0 19.5 -1 37.5 l14 -8 l39 0 l0 29 l-35 0 q-13 0 -24 -3 l-9 9 l68 0 l0 14 q0 10 -1 28 l21 -9 l-7 -7 l0 -26 l45 0 l12 12 l18 -18 l-75 0 l0 -29 l37 0 l7 9 l15 -12 l-7 -5 ZM67 127 l0 -145 l-14 -7 q1 22 1 39 l0 114 q-18 -29 -40 -52 l-3 2 q17 23 33.5 58 q16.5 35 27.5 74 l21 -13 l-8 -5 q-16 -35 -25 -51 l15 -8 l-8 -6 Z" /><glyph glyph-name=".notdef" unicode="&#x4f86;" d="M137 -20 l-17 -7 q1 35 1 51 l0 47 q-27 -36 -55.5 -55 q-28.5 -19 -50.5 -27 l-2 3 q36 19 63.5 47 q27.5 28 44.5 59 l0 55 l-62 0 q-13 0 -24 -3 l-9 9 l95 0 l0 23 q0 11 -1 27 l25 -12 l-9 -7 l0 -31 l61 0 l14 14 l20 -20 l-95 0 l0 -54 q5 -16 34.5 -46.5 q29.5 -30.5 72.5 -42.5 l0 -4 q-16 -1 -21 -12 q-33 18 -57 48 q-24 30 -29 45 l0 -58 q0 -15 1 -49 ZM73 115 q15 -8 23 -14.5 q8 -6.5 8 -12.5 q0 -3 -2.5 -9 q-2.5 -6 -4.5 -6 q-2 0 -5 8 q-6 13 -21 29 q-5 -10 -15 -21.5 q-10 -11.5 -29 -24.5 l-2 4 q19 18 29 37 q10 19 13 43 l22 -8 l-8 -6 q-4 -9 -8 -19 ZM186 114 q24 -10 31 -16 q7 -6 7 -13 q0 -3 -2 -7.5 q-2 -4.5 -4 -4.5 q-3 0 -7 8 q-7 13 -26 28 q-9 -21 -31 -38 l-3 3 q9 11 14 21 q5 10 9 23.5 q4 13.5 6 30.5 l21 -9 l-8 -7 l-7 -19 Z" /><glyph glyph-name=".notdef" unicode="&#x4f8b;" d="M156 120 q-11 -46 -24 -70 q-13 -24 -30 -40 q-17 -16 -37 -26 l-2 3 q24 17 38 36 q14 19 23.5 42 q9.5 23 17.5 58 l-34 0 q-6 -14 -12 -25 q15 -10 19 -16 q4 -6 4 -9 q0 -5 -3.5 -9.5 q-3.5 -4.5 -4.5 -4.5 q-3 0 -5 10 q-3 13 -12 25 q-9 -16 -24 -32 l-3 3 q17 23 27.5 55.5 q10.5 32.5 12.5 49.5 l-14 0 l-11 -2 l-9 8 l71 0 l11 11 l17 -17 l-49 0 q-3 -11 -13 -41 l31 0 l8 10 l17 -13 l-10 -6 ZM189 80 q0 -10 1 -41 l-15 -7 q1 33 1 44 l0 56 q0 17 -1 31 l22 -10 l-8 -8 l0 -65 ZM214 158 q0 17 -1 47 l22 -11 l-8 -6 l0 -189 q1 -16 -20 -23 q-1 13 -31 19 l1 5 q25 -4 31 -2.5 q6 1.5 6 11.5 l0 149 ZM44 -24 q1 33 1 47 l0 103 q-20 -31 -32 -44 l-3 2 q22 37 33 68 q11 31 16 56 l22 -12 l-8 -5 q-16 -38 -21 -50 l14 -6 l-8 -7 l0 -107 q0 -17 1 -38 l-15 -7 Z" /><glyph glyph-name=".notdef" unicode="&#x4f8d;" d="M141 209 l24 -10 l-9 -7 l0 -24 l37 0 l12 12 l18 -18 l-67 0 l0 -41 l54 0 l13 13 l19 -19 l-137 0 q-13 0 -24 -3 l-9 9 l70 0 l0 41 l-21 0 q-13 0 -24 -3 l-9 9 l54 0 l0 19 q0 10 -1 22 ZM103 59 l2 3 q22 -15 26 -21 q4 -6 4 -10 q0 -5 -3.5 -10 q-3.5 -5 -5.5 -5 q-3 0 -5 9 q-4 14 -18 34 ZM177 79 l0 10 q0 10 -1 24 l24 -11 l-9 -6 l0 -17 l22 0 l12 12 l18 -18 l-52 0 l0 -78 q1 -15 -21 -20 q0 11 -28 18 l0 4 q20 -2 27.5 -2 q7.5 0 7.5 13 l0 65 l-65 0 q-13 0 -24 -3 l-9 9 l98 0 ZM68 -18 l-16 -7 q1 43 1 58 l0 91 q-25 -37 -38 -50 l-3 2 q22 32 38.5 69.5 q16.5 37.5 22.5 63.5 l21 -14 q-6 -1 -15.5 -20 q-9.5 -19 -17.5 -37 l13 -7 l-7 -7 l0 -103 q0 -15 1 -39 Z" /><glyph glyph-name=".notdef" unicode="&#x4f9b;" d="M135 139 l0 -70 l43 0 l0 70 l-43 0 ZM122 145 l0 29 q0 15 -1 34 l22 -11 l-8 -7 l0 -45 l43 0 l0 36 q0 12 -1 26 l22 -11 l-8 -6 l0 -45 l17 0 l12 12 l18 -18 l-47 0 l0 -70 l24 0 l13 13 l19 -19 l-144 0 q-13 0 -24 -3 l-9 9 l52 0 l0 70 l-5 0 q-13 0 -24 -3 l-9 9 l38 0 ZM127 52 l19 -16 l-10 -4 q-34 -41 -65 -59 l-2 3 q18 15 35.5 38.5 q17.5 23.5 22.5 37.5 ZM173 45 q43 -25 51.5 -33.5 q8.5 -8.5 8.5 -16 q0 -7.5 -2.5 -11.5 q-2.5 -4 -3.5 -4 q-3 0 -6 6 q-6 10 -19.5 25.5 q-13.5 15.5 -30.5 30.5 l2 3 ZM49 -27 q1 33 1 49 l0 102 q-21 -28 -37 -44 l-3 3 q16 20 32 50 q16 30 31 76 l21 -15 l-9 -4 q-16 -31 -26 -50 l12 -6 l-8 -6 l0 -114 q0 -10 1 -34 l-15 -7 Z" /><glyph glyph-name=".notdef" unicode="&#x4f9d;" d="M167 150 q-6 -1 -11 -7 q6 -43 16 -65 q30 29 38 45 l17 -17 q-6 0 -25.5 -13.5 q-19.5 -13.5 -27.5 -20.5 q9 -21 25.5 -40.5 q16.5 -19.5 41.5 -30.5 l0 -4 q-16 1 -22 -11 q-38 33 -52 75 q-14 42 -15 76 q-17 -25 -31 -43 l12 -5 l-7 -7 l0 -75 q27 17 41 28 l2 -4 q-43 -37 -48 -51 l-13 15 q5 4 5 13 l0 75 q-20 -21 -44 -37 l-2 3 q34 31 54 63.5 q20 32.5 24 44.5 l-35 0 q-13 0 -24 -3 l-9 9 l74 0 q-1 17 -17 40 l3 2 q16 -10 22.5 -17 q6.5 -7 6.5 -11 q0 -7 -8 -14 l48 0 l13 13 l19 -19 l-82 0 l11 -7 ZM50 -27 q1 41 1 54 l0 106 q-19 -34 -36 -54 l-3 2 q20 34 34 69.5 q14 35.5 18 56.5 l22 -11 q-8 -5 -14 -17.5 q-6 -12.5 -14 -30.5 l13 -6 l-7 -6 l0 -111 q0 -22 1 -46 l-15 -6 Z" /><glyph glyph-name=".notdef" unicode="&#x4fa3;" d="M66 26 q0 -18 1 -41 l-15 -10 q1 40 1 53 l0 103 q-19 -31 -38 -51 l-3 2 q23 35 37.5 71.5 q14.5 36.5 18.5 56.5 l22 -14 l-10 -6 q-14 -31 -19 -42 l15 -8 l-10 -7 l0 -107 ZM212 143 q0 -20 1 -32 l-14 -5 l0 14 l-69 0 l0 -11 l-14 -5 q1 24 1 46.5 q0 22.5 -1 45.5 l14 -9 l68 0 l7 10 l15 -12 l-8 -7 l0 -35 ZM100 -21 q1 18 1 27 l0 56 q0 10 -1 28 l15 -10 l96 0 l7 11 l17 -13 l-8 -7 l0 -41 q0 -19 1 -41 l-15 -6 l0 23 l-98 0 l0 -20 l-15 -7 ZM130 181 l0 -55 l69 0 l0 55 l-69 0 ZM115 74 l0 -62 l98 0 l0 62 l-98 0 Z" /><glyph glyph-name=".notdef" unicode="&#x4fa6;" d="M211 79 q0 -17 1 -38 l-14 -8 l0 92 l-87 0 l0 -88 l-14 -8 q1 24 1 35 l0 44 q0 9 -1 32 l14 -9 l35 0 l0 35 q0 17 -1 42 l23 -10 l-9 -7 l0 -22 l50 0 l12 12 l18 -18 l-80 0 l0 -32 l37 0 l8 10 l16 -13 l-9 -6 l0 -43 ZM146 112 l23 -11 l-8 -7 q0 -41 -8.5 -61.5 q-8.5 -20.5 -28 -34.5 q-19.5 -14 -50.5 -24 l-2 4 q33 13 51 33 q18 20 21.5 46 q3.5 26 1.5 55 ZM163 35 q28 -11 45 -20 q17 -9 18.5 -17.5 q1.5 -8.5 -1 -13.5 q-2.5 -5 -4.5 -5 q-3 0 -6 5 q-7 10 -20 22 q-13 12 -34 26 l2 3 ZM63 19 q0 -16 1 -37 l-15 -7 q1 40 1 52 l0 100 q-20 -31 -39 -48 l-2 3 q25 34 41.5 72.5 q16.5 38.5 19.5 54.5 l21 -14 l-9 -6 q-16 -32 -25 -50 l14 -8 l-8 -7 l0 -105 Z" /><glyph glyph-name=".notdef" unicode="&#x4fa7;" d="M41 130 q-16 -29 -30 -45 l-3 3 q23 39 35.5 73.5 q12.5 34.5 14.5 46.5 l20 -11 l-8 -6 q-11 -24 -23 -51 l13 -7 l-6 -6 l0 -107 q0 -16 1 -40 l-15 -6 q1 31 1 51 l0 105 ZM155 172 l0 -79 q0 -9 1 -39 l-13 -6 l0 128 l-49 0 l0 -127 l-13 -7 q1 28 1 37 l0 75 q0 9 -1 36 l15 -8 l46 0 l9 9 l13 -13 l-9 -6 ZM111 159 l20 -9 l-6 -7 q-1 -39 -2 -65.5 q-1 -26.5 -7 -44.5 q-6 -18 -18 -30.5 q-12 -12.5 -36 -25.5 l-2 3 q28 20 39 40.5 q11 20.5 12 61 q1 40.5 0 77.5 ZM125 39 q29 -21 33.5 -27.5 q4.5 -6.5 4.5 -11.5 q0 -4 -3 -9 q-3 -5 -4 -5 q-2 0 -5 7 q-5 11 -11.5 21 q-6.5 10 -16.5 22 l2 3 ZM191 157 l0 -86 q0 -11 1 -29 l-15 -7 q1 23 1 35 l0 70 q0 11 -1 34 l21 -10 l-7 -7 ZM178 0 q19 -3 29 -3 q10 0 9 10 l0 168 q0 13 -1 30 l23 -12 l-9 -7 l0 -187 q1 -17 -20 -24 q1 10 -31 20 l0 5 Z" /><glyph glyph-name=".notdef" unicode="&#x4faf;" d="M98 188 l76 0 l9 10 l15 -14 l-9 -6 l-3 -33 l24 0 l12 12 l18 -18 l-134 0 q-13 0 -24 -3 l-9 9 l99 0 l4 37 l-57 0 l-12 -3 l-9 9 ZM222 -21 q-23 10 -41 29 q-18 19 -27 46 q-9 -36 -31 -54 q-22 -18 -51 -25 l-2 3 q28 10 46 29.5 q18 19.5 25 46.5 l-39 0 q-13 0 -24 -3 l-9 9 l73 0 q3 19 4 41 l-39 0 q-15 -20 -27 -32 l-3 2 q11 16 19.5 35 q8.5 19 11.5 32 l19 -12 l-8 -4 l-9 -15 l83 0 l12 12 l18 -18 l-63 0 q-2 -21 -5 -41 l53 0 l13 13 l19 -19 l-80 0 q6 -18 27.5 -36.5 q21.5 -18.5 53.5 -22.5 l0 -4 q-17 -3 -19 -12 ZM67 126 l-8 -7 l0 -96 q0 -13 1 -43 l-15 -7 q1 24 1 44 l0 102 q-19 -29 -33 -43 l-3 3 q25 36 38.5 71 q13.5 35 18.5 56 l20 -14 l-9 -5 q-16 -37 -24 -53 l13 -8 Z" /><glyph glyph-name=".notdef" unicode="&#x4fb5;" d="M94 190 l101 0 l8 10 l17 -12 l-9 -7 l0 -32 q0 -11 1 -25 l-14 -6 l0 8 l-71 0 q-13 0 -24 -3 l-9 9 l104 0 l0 23 l-64 0 q-13 0 -24 -3 l-9 9 l97 0 l0 23 l-71 0 q-13 0 -24 -3 l-9 9 ZM206 77 l12 24 l-125 0 q2 -17 -1.5 -22.5 q-3.5 -5.5 -12 -5 q-8.5 0.5 -5.5 5.5 q3 5 7 12.5 q4 7.5 7 24.5 l4 0 l1 -9 l124 0 l9 10 l17 -19 q-13 1 -34 -23 l-3 2 ZM121 73 q11 -28 32 -47 q17 20 27 47 l-59 0 ZM96 79 l85 0 l8 9 l14 -15 l-9 -4 q-13 -30 -32 -51 q14 -10 36 -15.5 q22 -5.5 41 -4.5 l0 -4 q-15 -4 -19 -14 q-39 10 -66 30 q-33 -24 -83 -34 l-2 4 q46 12 77 38 q-8 8 -16.5 24 q-8.5 16 -13.5 31 q-5 0 -11 -3 l-9 9 ZM47 -24 q1 21 1 35 l0 117 q-18 -29 -34 -46 l-2 3 q23 37 37 73 q14 36 17 52 l20 -14 q-5 -3 -14.5 -21.5 q-9.5 -18.5 -16.5 -33.5 l15 -8 l-9 -8 l0 -108 q0 -17 1 -35 l-15 -6 Z" /><glyph glyph-name=".notdef" unicode="&#x4fbf;" d="M165 108 l0 -33 l42 0 l0 33 l-42 0 ZM220 142 q0 -62 1 -77 l-14 -6 l0 10 l-42 0 q-1 -32 -13 -55 q22 -14 46.5 -18.5 q24.5 -4.5 45.5 -2.5 l0 -4 q-12 -3 -16 -14 q-22 2 -44 9.5 q-22 7.5 -39 20.5 q-12 -12 -32 -20.5 q-20 -8.5 -46 -10.5 l0 4 q27 5 44 15 q17 10 25 20 q-12 11 -29 40 l3 3 q17 -24 31 -35 q10 20 11 48 l-41 0 l0 -8 l-14 -4 q1 18 1 51 q0 33 -1 51 l15 -7 l40 0 l0 27 l-35 0 q-14 0 -25 -3 l-9 9 l129 0 l12 13 l18 -19 l-77 0 l0 -27 l41 0 l9 9 l15 -13 l-10 -6 ZM111 146 l0 -32 l41 0 l0 32 l-41 0 ZM111 108 l0 -33 l41 0 l0 33 l-41 0 ZM165 146 l0 -32 l42 0 l0 32 l-42 0 ZM47 -26 q1 30 1 48 l0 101 q-15 -23 -34 -46 l-3 3 q26 43 40 79 q14 36 16 47 l22 -15 q-9 -3 -17 -19 q-8 -17 -17 -35 l13 -8 l-7 -5 l0 -108 q0 -17 1 -35 l-15 -7 Z" /><glyph glyph-name=".notdef" unicode="&#x4fc2;" d="M166 125 q-15 -1 -35.5 -3.5 q-20.5 -2.5 -30.5 -6.5 l-8 16 q14 1 32.5 15.5 q18.5 14.5 26.5 27.5 q-30 -2 -60 -3 l0 5 q16 1 57 6.5 q41 5.5 68 16.5 l15 -20 q-16 1 -37 -1 q-22 -2 -38 -3 l17 -14 q-15 -2 -26 -10 q-12 -8 -33 -20 q14 0 57 0 q13 13 24 28 l18 -18 l-13 -3 q-28 -22 -49.5 -36 q-21.5 -14 -31.5 -20 q23 0 93 1 q-4 10 -17 32 l4 2 q29 -30 31.5 -37 q2.5 -7 2.5 -9 q0 -6 -5.5 -10.5 q-5.5 -4.5 -6.5 -4.5 q-2 0 -3 5 q-2 8 -5 17 q-31 -1 -44 -3 l0 -77 q1 -17 -22 -24 q1 11 -27 20 l0 5 q22 -4 29 -3.5 q7 0.5 7 10.5 l0 68 q-27 -2 -36.5 -4 q-9.5 -2 -15.5 -5 l-9 17 q13 1 33.5 14 q20.5 13 37.5 29 ZM188 52 q42 -26 46 -32.5 q4 -6.5 4 -12.5 q0 -5 -2.5 -10 q-2.5 -5 -3.5 -5 q-4 0 -9 11 q-8 16 -38 46 l3 3 ZM75 -12 q17 18 30 37.5 q13 19.5 17 29.5 l19 -15 q-13 -5 -25 -19 q-13 -15 -39 -36 l-2 3 ZM64 26 q0 -15 1 -43 l-15 -8 q0 20 1 37 l0 111 q-21 -29 -36 -45 l-3 3 q19 26 35 61 q16 35 24 66 l23 -13 l-11 -7 q-14 -30 -23 -48 l12 -7 l-8 -6 l0 -101 Z" /><glyph glyph-name=".notdef" unicode="&#x4fc3;" d="M119 181 l0 -59 l79 0 l0 59 l-79 0 ZM105 103 q1 21 1 34 l0 32 q0 9 -1 27 l16 -9 l76 0 l9 9 l14 -13 l-9 -6 l0 -31 q0 -16 1 -30 l-14 -8 l0 8 l-33 0 l0 -44 l39 0 l12 12 l18 -18 l-69 0 l0 -62 q16 -6 39 -7 q23 -1 41 3 l0 -4 q-16 -6 -18 -16 q-51 3 -75 16.5 q-24 13.5 -42 41.5 q-6 -20 -15.5 -35 q-9.5 -15 -26.5 -30 l-3 3 q18 19 27.5 47.5 q9.5 28.5 10.5 66.5 l21 -10 l-7 -6 q-2 -15 -5 -30 q5 -8 16 -18.5 q11 -10.5 24 -17.5 l0 108 l-33 0 l0 -7 l-14 -6 ZM47 -27 q1 36 1 77 l0 69 q-19 -29 -34 -44 l-3 3 q26 38 40.5 78.5 q14.5 40.5 16.5 52.5 l22 -14 q-9 -4 -16 -20 q-7 -16 -17 -38 l11 -6 l-7 -7 l0 -101 q0 -12 1 -42 l-15 -8 Z" /><glyph glyph-name=".notdef" unicode="&#x4fd7;" d="M125 63 l0 -58 l66 0 l0 58 l-66 0 ZM128 202 l20 -14 q-10 -2 -26 -22 q-17 -20 -37 -34 l-2 3 q12 12 25 30.5 q13 18.5 20 36.5 ZM171 193 l2 3 q44 -22 48.5 -28.5 q4.5 -6.5 4.5 -11.5 q0 -4 -3 -9 q-3 -5 -5 -5 q-2 0 -5 5 q-5 9 -13 18.5 q-8 9.5 -29 27.5 ZM152 159 l20 -13 l-9 -6 q20 -27 39.5 -41 q19.5 -14 42.5 -20 l0 -4 q-13 0 -20 -10 q-20 12 -36 30 q-16 18 -30 41 q-22 -37 -45 -59 l11 -8 l64 0 l7 9 l16 -12 l-8 -6 l0 -52 q0 -9 1 -24 l-14 -6 l0 21 l-66 0 l0 -16 l-14 -6 q1 15 1 27 l0 71 q-19 -16 -41 -28 l-2 3 q23 16 45.5 44 q22.5 28 37.5 65 ZM59 134 l0 -153 l-14 -6 q1 22 1 36 l0 111 q-11 -20 -33 -42 l-3 2 q24 34 38 70.5 q14 36.5 18 57.5 l20 -12 q-8 -6 -15 -23 q-8 -17 -14 -29 l11 -6 l-9 -6 Z" /><glyph glyph-name=".notdef" unicode="&#x4fdd;" d="M212 180 q0 -50 1 -65 l-14 -5 l0 10 l-34 0 l0 -36 l52 0 l12 12 l18 -18 l-70 0 q7 -19 24.5 -40.5 q17.5 -21.5 44.5 -30.5 l0 -3 q-13 -1 -20 -10 q-24 20 -36 42 q-12 22 -18 42 l-7 0 q0 -78 1 -96 l-15 -7 q1 25 1 95 q-16 -30 -35.5 -51 q-19.5 -21 -44.5 -35 l-2 3 q24 17 44 46 q20 29 26 45 l-47 0 l-13 -2 l-8 8 l80 0 l0 36 l-32 0 l0 -9 l-15 -5 q1 20 1 44 q0 24 -1 48 l16 -8 l76 0 l10 10 l15 -13 l-10 -7 ZM120 184 l0 -58 l79 0 l0 58 l-79 0 ZM63 34 q0 -36 1 -52 l-15 -7 q1 39 1 61 l0 88 q-21 -27 -37 -41 l-2 3 q26 31 41.5 70 q15.5 39 18.5 55 l21 -12 l-8 -6 q-17 -35 -25 -53 l10 -6 l-6 -6 l0 -94 Z" /><glyph glyph-name=".notdef" unicode="&#x4fe1;" d="M137 205 l3 3 q20 -12 25 -18.5 q5 -6.5 5 -9.5 q0 -6 -8 -14 l46 0 l12 12 l18 -18 l-124 0 q-13 0 -24 -3 l-9 9 l73 0 q0 19 -17 39 ZM120 52 l0 -46 l82 0 l0 46 l-82 0 ZM99 130 l96 0 l12 12 l18 -18 l-96 0 q-10 0 -21 -3 l-9 9 ZM97 93 l99 0 l12 12 l18 -18 l-96 0 q-13 0 -24 -3 l-9 9 ZM106 67 l14 -9 l80 0 l9 10 l14 -12 l-8 -6 l0 -48 q0 -10 1 -15 l-14 -6 l0 19 l-82 0 l0 -14 l-14 -6 q1 16 1 40 q0 24 -1 47 ZM62 126 l0 -147 l-14 -5 q1 20 1 34 l0 113 q-19 -28 -37 -45 l-2 3 q26 36 42 75.5 q16 39.5 19 54.5 l20 -12 l-8 -5 q-16 -35 -25 -53 l12 -7 l-8 -6 Z" /><glyph glyph-name=".notdef" unicode="&#x4fee;" d="M79 156 l20 -10 l-7 -7 l0 -117 l-13 -6 q1 19 1 30 l0 87 q0 6 -1 23 ZM148 165 q11 -19 27 -32 q20 18 31 32 l-58 0 ZM147 211 l20 -11 l-9 -5 q-6 -12 -13 -24 l62 0 l8 9 l15 -15 l-9 -4 q-16 -18 -37 -36 q12 -10 30 -16 q18 -6 32 -5 l0 -3 q-15 -4 -17 -13 q-33 10 -54 30 q-33 -23 -75 -36 l-2 3 q44 19 69 41 q-15 18 -25 39 q-18 -26 -36 -42 l-3 2 q17 21 27.5 43 q10.5 22 16.5 43 ZM182 102 l15 -16 l-13 -2 q-38 -27 -76 -39 l-1 3 q22 10 42.5 25 q20.5 15 32.5 29 ZM204 74 l16 -17 l-10 -1 q-22 -15 -45.5 -26.5 q-23.5 -11.5 -58.5 -21.5 l-1 4 q27 10 54 26 q27 16 45 36 ZM228 45 l16 -18 l-11 -1 q-40 -24 -75.5 -35 q-35.5 -11 -70.5 -16 l-1 4 q46 9 85 28 q39 19 57 38 ZM56 146 l11 -7 l-7 -5 l0 -153 l-13 -7 q1 23 1 30 l0 126 q-14 -24 -35 -47 l-3 3 q20 30 32.5 59.5 q12.5 29.5 21.5 64.5 l20 -12 l-9 -6 q-13 -33 -19 -46 Z" /><glyph glyph-name=".notdef" unicode="&#x4ff1;" d="M119 180 l0 -25 l73 0 l0 25 l-73 0 ZM119 149 l0 -29 l73 0 l0 29 l-73 0 ZM119 114 l0 -27 l73 0 l0 27 l-73 0 ZM119 81 l0 -29 l73 0 l0 29 l-73 0 ZM106 52 l0 100 q0 21 -1 44 l14 -10 l72 0 l9 9 l14 -13 l-9 -6 l0 -124 l8 0 l12 12 l18 -18 l-140 0 q-13 0 -24 -3 l-9 9 l36 0 ZM144 20 l-11 -3 q-32 -28 -63 -42 l-2 3 q22 15 36 29.5 q14 14.5 23 28.5 l17 -16 ZM174 29 l2 4 q25 -11 39.5 -19.5 q14.5 -8.5 16.5 -14 q2 -5.5 2 -8.5 q0 -3 -1.5 -7.5 q-1.5 -4.5 -3.5 -4.5 q-2 0 -5 5 q-6 9 -18 20 q-12 11 -32 25 ZM46 -24 q1 28 1 48 l0 101 q-13 -20 -33 -44 l-2 3 q20 30 33.5 64.5 q13.5 34.5 18.5 59.5 l21 -12 l-8 -6 q-16 -36 -23 -53 l13 -7 l-7 -6 l0 -101 q0 -14 1 -39 l-15 -8 Z" /><glyph glyph-name=".notdef" unicode="&#x4ffa;" d="M154 69 l0 -31 l31 0 l0 31 l-31 0 ZM110 104 l0 -29 l31 0 l0 29 l-31 0 ZM141 110 l0 13 q0 9 -1 20 l21 -10 l-7 -6 l0 -17 l31 0 l5 5 q-19 18 -30 48 l-21 0 q-12 -28 -30 -53 l32 0 ZM96 18 q1 23 1 77 q-13 -14 -32 -26 l-2 3 q21 18 36.5 41.5 q15.5 23.5 25.5 49.5 l-26 0 l-12 -3 l-9 9 l49 0 q10 27 11 40 l22 -11 l-9 -6 l-10 -23 l64 0 l11 11 l17 -17 l-68 0 q10 -22 32 -40 q22 -18 48 -21 l0 -3 q-15 -3 -18 -12 q-13 6 -25 17 l-4 -3 q0 -57 1 -72 l-14 -6 l0 9 l-31 0 l0 -25 q0 -11 11 -11 l44 0 q9 1 10.5 11.5 q1.5 10.5 2.5 32.5 l4 0 q1 -15 2.5 -26 q1.5 -11 10.5 -16 q-6 -12 -20 -13 l-60 0 q-18 0 -18 17 l0 30 l-31 0 l0 -8 l-14 -6 ZM154 104 l0 -29 l31 0 l0 29 l-31 0 ZM110 69 l0 -31 l31 0 l0 31 l-31 0 ZM59 123 l0 -100 q0 -19 1 -42 l-15 -6 q1 58 1 148 q-14 -19 -33 -38 l-3 3 q24 31 40 69 q16 38 18 53 l21 -12 l-8 -6 q-16 -33 -25 -52 l12 -11 l-9 -6 Z" /><glyph glyph-name=".notdef" unicode="&#x500b;" d="M92 159 q0 11 -1 33 l16 -9 l106 0 l8 10 l14 -13 l-8 -6 l0 -150 q0 -18 1 -38 l-14 -7 l0 22 l-109 0 l0 -17 l-14 -6 q1 30 1 42 l0 139 ZM113 135 l38 0 l0 10 q0 10 -1 26 l21 -10 l-8 -5 l0 -21 l18 0 l9 9 l15 -15 l-42 0 l0 -39 l11 0 l8 9 l14 -11 l-8 -6 l0 -25 q0 -20 1 -28 l-13 -7 l0 16 l-36 0 l0 -12 l-13 -6 q1 24 1 43.5 q0 19.5 -1 33.5 l14 -7 l10 0 l0 39 l-5 0 q-13 0 -24 -3 l-9 9 ZM140 84 l0 -40 l36 0 l0 40 l-36 0 ZM105 177 l0 -170 l109 0 l0 170 l-109 0 ZM58 15 q0 -16 1 -32 l-15 -8 q1 46 1 57 l0 89 q-17 -26 -32 -41 l-2 3 q18 27 32.5 61.5 q14.5 34.5 22.5 63.5 l23 -13 q-11 -7 -18 -22 q-7 -15 -15 -33 l10 -8 l-8 -4 l0 -113 Z" /><glyph glyph-name=".notdef" unicode="&#x500d;" d="M144 204 l2 3 q19 -12 22 -17 q3 -5 3 -8 q0 -7 -9 -13 l41 0 l12 12 l18 -18 l-109 0 q-13 0 -24 -3 l-9 9 l67 0 q-2 19 -14 35 ZM115 150 l2 3 q26 -21 28 -30 q2 -9 -2.5 -13.5 q-4.5 -4.5 -5.5 -4.5 q-4 0 -6 10 q-3 14 -16 35 ZM190 160 l20 -14 l-9 -4 q-17 -25 -29 -42 l44 0 l12 12 l18 -18 l-139 0 q-13 0 -24 -3 l-9 9 l93 0 q19 42 23 60 ZM122 63 l0 -59 l75 0 l0 59 l-75 0 ZM108 -23 q1 26 1 51 q0 25 -1 50 l14 -9 l75 0 l9 9 l14 -13 l-10 -7 q0 -55 1 -72 l-14 -6 l0 18 l-75 0 l0 -14 l-14 -7 ZM49 -25 q1 31 1 62 l0 86 q-16 -24 -38 -44 l-2 3 q18 22 34 52.5 q16 30.5 29 74.5 l21 -12 q-7 -5 -16 -22 q-9 -18 -19 -37 l11 -7 l-7 -7 l0 -114 q0 -13 1 -28 l-15 -7 Z" /><glyph glyph-name=".notdef" unicode="&#x5011;" d="M102 143 l0 -31 l33 0 l0 31 l-33 0 ZM148 176 q0 -54 1 -74 l-14 -7 l0 11 l-33 0 l0 -122 l-15 -9 q1 39 1 115 q0 76 -1 103 l15 -9 l31 0 l7 10 l15 -13 l-7 -5 ZM102 178 l0 -29 l33 0 l0 29 l-33 0 ZM179 143 l0 -31 l37 0 l0 31 l-37 0 ZM165 95 q1 24 1 48.5 q0 24.5 -1 48.5 l16 -8 l33 0 l9 10 l14 -13 l-8 -6 l0 -177 q1 -16 -20 -22 q0 11 -29 19 l0 5 q19 -3 27.5 -3 q8.5 0 8.5 11 l0 98 l-37 0 l0 -5 l-14 -6 ZM179 178 l0 -29 l37 0 l0 29 l-37 0 ZM58 128 l0 -109 q0 -20 1 -36 l-15 -8 q1 31 1 45 l0 99 q-16 -26 -30 -43 l-3 2 q13 22 25 51.5 q12 29.5 24 78.5 l22 -12 l-10 -7 q-12 -32 -18 -49 l11 -8 l-8 -4 Z" /><glyph glyph-name=".notdef" unicode="&#x5012;" d="M93 118 q14 0 57 2 q-6 13 -15 26 l3 2 q14 -11 22 -20 q8 -9 8 -15 q0 -4 -3.5 -9 q-3.5 -5 -5.5 -5 q-2 0 -4 5.5 q-2 5.5 -4 11.5 q-53 -7 -64 -15 l-8 16 q9 2 19.5 24 q10.5 22 13.5 35 l-12 0 l-12 -3 l-9 9 l65 0 l11 11 l17 -17 l-56 0 l14 -9 q-8 -3 -17 -18 q-9 -16 -20 -31 ZM115 62 q0 22 -1 42 l22 -12 l-8 -7 l0 -23 l14 0 l10 10 l16 -16 l-40 0 l0 -41 l43 10 l1 -4 q-59 -18 -70 -23 q-11 -5 -19 -10 l-10 18 q10 0 42 7 l0 43 l-18 0 l-13 -3 l-9 9 l40 0 ZM192 143 l0 -61 q0 -18 1 -43 l-15 -5 q1 32 1 63.5 q0 31.5 -1 62.5 l21 -10 l-7 -7 ZM217 157 q0 20 -1 47 l22 -11 l-8 -6 l0 -190 q1 -16 -18 -22 q-1 12 -29 20 l0 4 q24 -4 29 -3 q5 1 5 7 l0 154 ZM55 131 l0 -113 q0 -19 1 -36 l-15 -6 q1 37 1 152 q-14 -21 -28 -35 l-3 3 q14 20 26 47 q12 27 23 68 l19 -12 q-6 -5 -13 -20.5 q-7 -15.5 -15 -34.5 l11 -7 l-7 -6 Z" /><glyph glyph-name=".notdef" unicode="&#x5019;" d="M98 144 l0 -86 q0 -14 1 -36 l-14 -8 q1 26 1 41 l0 75 q0 12 -1 33 l21 -11 l-8 -8 ZM58 129 l0 -88 q0 -30 1 -60 l-15 -6 q1 33 1 75 l0 70 q-15 -23 -32 -40 l-2 3 q19 27 31.5 58.5 q12.5 31.5 20.5 67.5 l22 -13 l-9 -6 q-10 -24 -21 -49 l10 -6 l-7 -6 ZM182 146 l5 38 l-36 0 q-13 0 -24 -3 l-9 9 l68 0 l9 10 l15 -14 l-10 -6 l-5 -34 l21 0 l10 10 l16 -16 l-102 0 q-13 0 -24 -3 l-9 9 l75 0 ZM134 139 l18 -10 l-7 -5 q-3 -6 -8 -17 l60 0 l10 10 l16 -16 l-48 0 q-1 -16 -2 -35 l39 0 l11 11 l17 -17 l-60 0 q8 -27 26 -44.5 q18 -17.5 39 -22.5 l0 -4 q-15 0 -19 -10 q-23 16 -35.5 39 q-12.5 23 -15.5 42 l-3 0 q-6 -32 -25.5 -52.5 q-19.5 -20.5 -55.5 -33.5 l-2 4 q26 10 44.5 31 q18.5 21 24.5 51 l-18 0 q-13 0 -24 -3 l-9 9 l52 0 q2 17 2 35 l-27 0 q-7 -14 -18 -26 l-3 2 q7 13 12.5 29 q5.5 16 8.5 33 Z" /><glyph glyph-name=".notdef" unicode="&#x501f;" d="M138 157 l0 -46 l40 0 l0 46 l-40 0 ZM117 72 l0 -33 l79 0 l0 33 l-79 0 ZM117 33 l0 -34 l79 0 l0 34 l-79 0 ZM125 163 q0 27 -1 47 l22 -10 l-8 -6 l0 -31 l40 0 q0 35 -1 46 l23 -10 l-9 -6 l0 -30 l22 0 l10 10 l16 -16 l-48 0 l0 -46 l26 0 l12 12 l18 -18 l-140 0 q-13 0 -24 -3 l-9 9 l51 0 l0 46 l-16 0 l-13 -3 l-9 9 l38 0 ZM102 -25 q1 28 1 56 q0 28 -1 55 l15 -8 l78 0 l9 10 l15 -13 l-10 -7 l0 -57 q0 -13 1 -28 l-14 -7 l0 17 l-79 0 l0 -11 l-15 -7 ZM68 123 l-6 -6 l0 -100 q0 -22 1 -38 l-15 -6 q1 41 1 61 l0 86 q-19 -25 -37 -40 l-2 3 q29 36 44.5 74 q15.5 38 16.5 50 l21 -13 l-9 -5 q-15 -35 -28 -60 l13 -6 Z" /><glyph glyph-name=".notdef" unicode="&#x5021;" d="M126 178 l0 -27 l75 0 l0 27 l-75 0 ZM126 145 l0 -31 l75 0 l0 31 l-75 0 ZM112 74 l0 -33 l101 0 l0 33 l-101 0 ZM112 35 l0 -34 l101 0 l0 34 l-101 0 ZM112 91 q1 26 1 51.5 q0 25.5 -1 50.5 l15 -9 l73 0 l9 9 l14 -13 l-9 -6 q0 -59 1 -74 l-14 -6 l0 14 l-75 0 l0 -11 l-14 -6 ZM226 71 l0 -55 q0 -12 1 -31 l-14 -5 l0 15 l-101 0 l0 -11 l-14 -6 q1 27 1 55 q0 28 -1 55 l14 -8 l99 0 l10 10 l14 -13 l-9 -6 ZM66 124 l0 -89 q0 -17 1 -54 l-15 -6 q1 36 1 53 l0 93 q-18 -24 -39 -43 l-2 3 q26 33 40.5 63 q14.5 30 24.5 63 l19 -13 q-6 -4 -14 -21 q-9 -17 -20 -36 l11 -7 l-7 -6 Z" /><glyph glyph-name=".notdef" unicode="&#x502b;" d="M144 209 l20 -14 l-9 -5 q19 -30 43 -47 q24 -17 47 -21 l0 -3 q-17 -4 -18 -12 q-24 13 -42.5 33 q-18.5 20 -32.5 47 q-16 -26 -34.5 -46.5 q-18.5 -20.5 -48.5 -39.5 l-2 3 q29 23 50 54 q21 31 27 51 ZM112 127 l58 0 l10 10 l16 -16 l-51 0 q-13 0 -24 -3 l-9 9 ZM180 92 l0 -38 l25 0 l0 38 l-25 0 ZM90 -26 q1 33 1 66 q0 33 -1 66 l15 -8 l98 0 l9 9 l15 -13 l-9 -6 l0 -93 q0 -14 -17 -20 q0 10 -24 18 l0 4 q14 -2 21 -2.5 q7 -0.5 7 9.5 l0 44 l-25 0 l0 -45 l-13 -7 l0 52 l-26 0 l0 -48 l-13 -6 l0 54 l-24 0 l0 -67 l-14 -7 ZM104 92 l0 -38 l24 0 l0 38 l-24 0 ZM141 92 l0 -38 l26 0 l0 38 l-26 0 ZM58 17 q0 -18 1 -34 l-15 -8 q1 31 1 48 l0 98 q-11 -17 -31 -40 l-3 3 q21 30 34 62 q13 32 21 62 l22 -13 l-11 -7 q-13 -29 -22 -48 l11 -8 l-8 -4 l0 -111 Z" /><glyph glyph-name=".notdef" unicode="&#x503a;" d="M88 180 l62 0 q0 11 -1 29 l23 -10 l-9 -6 l0 -13 l39 0 l12 12 l18 -18 l-69 0 l0 -22 l28 0 l11 11 l17 -17 l-56 0 l0 -22 l49 0 l12 12 l18 -18 l-136 0 q-13 0 -24 -3 l-9 9 l77 0 l0 22 l-17 0 q-13 0 -24 -3 l-9 9 l50 0 l0 22 l-29 0 q-13 0 -24 -3 l-9 9 ZM212 49 q0 -5 1 -21 l-14 -7 l0 72 l-82 0 l0 -68 l-14 -7 q1 14 1 45 q0 31 -1 44 l14 -8 l81 0 l9 9 l14 -12 l-9 -6 l0 -41 ZM77 -22 q28 8 44 19 q16 11 22.5 32 q6.5 21 5.5 55 l22 -10 l-8 -6 q0 -45 -19.5 -64.5 q-19.5 -19.5 -65.5 -29.5 l-1 4 ZM164 18 l1 3 q43 -11 54.5 -18 q11.5 -7 10.5 -16 q-1 -9 -5 -9 q-3 0 -10 7 q-13 14 -51 33 ZM68 209 l20 -12 q-8 -5 -14.5 -18 q-6.5 -13 -16.5 -34 l14 -8 l-9 -5 l0 -150 l-14 -6 q1 37 1 73 l0 78 q-15 -23 -36 -44 l-2 3 q20 28 33.5 58 q13.5 30 23.5 65 Z" /><glyph glyph-name=".notdef" unicode="&#x503c;" d="M61 26 q0 -35 1 -47 l-15 -5 q1 36 1 48 l0 99 q-18 -29 -35 -47 l-3 2 q19 29 34 65 q15 36 23 67 l21 -13 l-10 -6 q-16 -37 -21 -50 l12 -7 l-8 -6 l0 -100 ZM115 129 l0 -30 l77 0 l0 30 l-77 0 ZM115 93 l0 -30 l77 0 l0 30 l-77 0 ZM115 57 l0 -30 l77 0 l0 30 l-77 0 ZM115 21 l0 -30 l77 0 l0 30 l-77 0 ZM142 170 q1 23 0 39 l23 -11 l-8 -6 l-1 -22 l45 0 l13 13 l19 -19 l-77 0 l-1 -29 l35 0 l9 10 l15 -13 l-9 -6 l0 -135 l9 0 l13 13 l19 -19 l-148 0 q-13 0 -24 -3 l-9 9 l37 0 l0 111 q0 12 -1 41 l14 -8 l26 0 l1 29 l-30 0 q-13 0 -24 -3 l-9 9 l63 0 Z" /><glyph glyph-name=".notdef" unicode="&#x503e;" d="M76 32 q3 4 4 11 l0 116 q0 7 -1 17 l23 -11 l-9 -6 l0 -47 l11 0 l9 9 l15 -15 l-35 0 l0 -64 l31 20 l2 -4 q-31 -27 -38 -41 l-12 15 ZM93 -22 q32 10 50 24.5 q18 14.5 24 38.5 q6 24 4 84 l21 -9 l-7 -7 q1 -51 -5 -74 q-6 -23 -26 -38.5 q-20 -15.5 -60 -22.5 l-1 4 ZM184 29 q43 -18 50 -26 q7 -8 5 -16.5 q-2 -8.5 -5 -8.5 q-3 0 -8 8 q-10 14 -44 40 l2 3 ZM226 56 q0 -5 1 -20 l-14 -7 l0 111 l-65 0 l0 -106 l-14 -7 q1 18 1 33 l0 60 q0 19 -1 34 l14 -8 l17 0 q4 16 7 33 l-22 0 q-13 0 -24 -3 l-9 9 l99 0 l12 12 l18 -18 l-57 0 q-7 -8 -18 -33 l41 0 l8 9 l15 -12 l-9 -6 l0 -81 ZM64 140 l-9 -7 l0 -152 l-14 -7 q1 15 1 20 l0 131 q-15 -25 -30 -41 l-2 3 q15 25 26.5 52.5 q11.5 27.5 20.5 69.5 l22 -11 l-9 -5 q-14 -35 -19 -47 l13 -6 Z" /><glyph glyph-name=".notdef" unicode="&#x5047;" d="M86 -25 q1 47 1 64 l0 107 q0 14 -1 54 l14 -9 l38 0 l9 9 l14 -12 l-9 -6 l0 -35 q0 -10 1 -18 l-14 -7 l0 10 l-39 0 l0 -37 l23 0 l9 9 l15 -15 l-47 0 l0 -40 l28 0 l9 9 l15 -15 l-52 0 l0 -61 l-14 -7 ZM100 185 l0 -47 l39 0 l0 47 l-39 0 ZM165 91 q9 -37 23 -58 q15 28 24 58 l-47 0 ZM225 87 q-14 -40 -30 -64 q20 -24 51 -32 l0 -3 q-13 -1 -18 -10 q-23 13 -40 36 q-27 -26 -73 -39 l-2 4 q41 14 68 44 q-14 29 -21 68 l-4 -2 l-8 8 l63 0 l9 9 l14 -13 l-9 -6 ZM226 181 l0 -32 q0 -11 1 -22 l-14 -6 l0 11 l-27 0 l-15 -2 l-8 8 l50 0 l0 47 l-23 0 l-16 -3 l-9 9 l47 0 l9 9 l14 -13 l-9 -6 ZM55 141 l11 -5 l-7 -6 l0 -96 q0 -27 1 -54 l-15 -7 q1 47 1 62 l0 87 q-16 -27 -34 -46 l-2 3 q23 36 35.5 72 q12.5 36 16.5 56 l20 -12 l-9 -6 q-6 -16 -18 -48 Z" /><glyph glyph-name=".notdef" unicode="&#x5049;" d="M126 174 l2 35 l23 -10 l-9 -6 l-1 -19 l47 0 l7 9 l15 -12 l-8 -6 l0 -28 l12 0 l12 12 l18 -18 l-137 0 q-13 0 -24 -3 l-9 9 l51 0 l1 31 l-3 0 q-13 0 -24 -3 l-9 9 l36 0 ZM189 137 l0 31 l-49 0 l-1 -31 l50 0 ZM146 -26 q1 30 1 39 l-44 0 l-5 -7 l-14 11 l6 5 q4 12 8 25 q-5 0 -13 -3 l-9 9 l71 0 l0 23 l-34 0 l0 -3 l-14 -6 q1 14 1 28 q0 14 -1 28 l15 -8 l77 0 l8 9 l14 -12 l-8 -5 q0 -24 1 -32 l-14 -6 l0 7 l-32 0 l0 -23 l36 0 l12 12 l18 -18 l-66 0 l0 -28 l45 0 l13 13 l19 -19 l-77 0 q0 -21 1 -33 l-15 -6 ZM192 82 l0 27 l-79 0 l0 -27 l79 0 ZM147 19 l0 28 l-49 0 l16 -7 q-6 -8 -10 -21 l43 0 ZM58 47 q0 -48 1 -64 l-15 -8 q1 49 1 70 l0 76 q-6 -7 -32 -39 l-3 3 q15 22 31 56.5 q16 34.5 25 66.5 l22 -13 l-10 -6 q-14 -30 -23 -49 l11 -8 l-8 -4 l0 -81 Z" /><glyph glyph-name=".notdef" unicode="&#x504f;" d="M115 166 l0 -30 l94 0 l0 30 l-94 0 ZM132 94 l0 -41 l20 0 l0 41 l-20 0 ZM165 94 l0 -41 l22 0 l0 41 l-22 0 ZM200 94 l0 -41 l20 0 l0 41 l-20 0 ZM142 207 l2 3 q20 -11 24.5 -16 q4.5 -5 4.5 -8 q0 -4 -4 -9 q-4 -5 -5 -5 q-3 0 -5 8 q-4 12 -17 27 ZM68 -9 q11 17 19 40 q8 23 12 51.5 q4 28.5 2 98.5 l14 -9 l92 0 l7 9 l15 -13 l-7 -5 l0 -22 q0 -8 1 -17 l-14 -5 l0 11 l-94 0 q0 -54 -13 -87 q-13 -33 -31 -54 l-3 2 ZM118 -18 q1 24 1 32 l0 63 q0 11 -1 32 l14 -9 l86 0 l8 9 l16 -13 l-9 -6 l0 -90 q1 -14 -19 -21 q-1 10 -25 18 l0 4 q17 -2 24.5 -2 q7.5 0 6.5 9 l0 39 l-20 0 l0 -36 l-13 -5 l0 41 l-22 0 l0 -45 l-13 -4 l0 49 l-20 0 l0 -59 l-14 -6 ZM48 -26 q1 45 1 60 l0 89 q-19 -29 -36 -46 l-3 2 q24 34 39.5 72 q15.5 38 20.5 57 l20 -13 q-8 -3 -14 -15.5 q-6 -12.5 -18 -37.5 l12 -7 l-8 -8 l0 -87 q0 -15 1 -59 l-15 -7 Z" /><glyph glyph-name=".notdef" unicode="&#x505a;" d="M90 81 l0 -59 l43 0 l0 59 l-43 0 ZM174 139 l-4 -13 q3 -29 8.5 -48 q5.5 -19 11.5 -33 q6 12 11 36 q5 24 8 58 l-35 0 ZM177 208 l19 -11 q-6 -3 -9 -12.5 q-3 -9.5 -12 -39.5 l41 0 l10 10 l16 -16 l-20 0 q-3 -31 -8.5 -58.5 q-5.5 -27.5 -16.5 -49.5 q8 -12 20.5 -23 q12.5 -11 25.5 -14 l0 -3 q-12 -1 -17 -10 q-9 7 -18.5 18 q-9.5 11 -17.5 24 q-16 -19 -38 -31.5 q-22 -12.5 -32 -15.5 l-2 3 q18 9 36 23.5 q18 14.5 30 31.5 q-8 21 -12 40.5 q-4 19.5 -5 44.5 q-8 -18 -15 -28 l-3 1 q10 23 17 54 q7 31 11 62 ZM77 -11 q1 20 1 53.5 q0 33.5 -1 52.5 l13 -8 l16 0 l0 51 l-5 0 q-13 0 -24 -3 l-9 9 l38 0 l0 19 q0 9 -1 40 l21 -10 l-8 -7 l0 -42 l15 0 l11 11 l17 -17 l-43 0 l0 -51 l14 0 l8 8 l13 -12 l-8 -6 l0 -49 q0 -15 1 -21 l-13 -7 l0 16 l-43 0 l0 -21 l-13 -6 ZM55 27 q0 -36 1 -48 l-15 -5 q1 40 1 52 l0 92 q-15 -27 -29 -42 l-3 2 q23 37 36 77.5 q13 40.5 15 53.5 l19 -13 q-6 -2 -12 -17 q-6 -15 -15 -39 l9 -7 l-7 -6 l0 -100 Z" /><glyph glyph-name=".notdef" unicode="&#x505c;" d="M122 145 l0 -23 l66 0 l0 23 l-66 0 ZM134 206 l2 3 q20 -9 24 -14 q4 -5 4 -8 q0 -6 -6 -12 l49 0 l12 12 l18 -18 l-125 0 q-13 0 -24 -3 l-9 9 l72 0 q-1 14 -17 31 ZM108 105 q1 8 1 25.5 q0 17.5 -1 28.5 l14 -8 l65 0 l7 9 l14 -12 l-7 -5 l0 -12 q0 -8 1 -19 l-14 -6 l0 10 l-66 0 l0 -7 l-14 -4 ZM210 70 l9 18 l-130 0 q1 -5 1 -9 q0 -5 -1.5 -10 q-1.5 -5 -10.5 -5 q-9 0 -9 3 q0 3 4 8 q8 10 11 28 l4 0 l1 -9 l129 0 l8 9 l16 -16 q-16 -1 -29 -19 l-3 2 ZM118 -1 q23 -4 29.5 -3 q6.5 1 5.5 11 l0 48 l-27 0 q-13 0 -24 -3 l-9 9 l97 0 l12 12 l18 -18 l-54 0 l0 -54 q1 -20 -22 -26 q1 11 -26 20 l0 4 ZM57 132 l0 -150 l-14 -7 q1 25 1 38 l0 111 q-14 -23 -30 -40 l-3 2 q22 35 34.5 72 q12.5 37 14.5 50 l21 -11 l-8 -5 q-13 -31 -20 -48 l12 -6 l-8 -6 Z" /><glyph glyph-name=".notdef" unicode="&#x5065;" d="M58 121 l0 -79 q0 -34 1 -58 l-15 -7 q1 33 1 62 l0 80 q-15 -22 -33 -39 l-2 3 q24 31 38.5 69 q14.5 38 17.5 56 l20 -12 l-8 -5 q-15 -37 -25 -58 l11 -6 l-6 -6 ZM244 -4 q-14 -3 -16 -14 q-59 -1 -83 6 q-24 7 -41 25 q-17 -22 -40 -37 l-2 3 q26 24 35 42 q-11 17 -23 56 l4 1 q13 -31 24 -45 q5 15 8 33 q3 18 5 36 l-18 0 l-6 -10 l-13 14 q7 4 13 19 q6 15 15 41 l-13 0 l-9 -2 l-8 8 l29 0 l9 9 l13 -13 l-9 -7 l-20 -53 l17 0 l7 9 l13 -12 l-8 -6 q-2 -18 -6.5 -40 q-4.5 -22 -11.5 -37 q18 -18 41.5 -22 q23.5 -4 40.5 -4 q23 0 53 4 l0 -4 ZM171 7 q1 29 1 37 l-27 0 l-12 -2 l-8 8 l47 0 l0 25 l-15 0 l-14 -2 l-8 8 l37 0 l0 25 l-11 0 l-12 -2 l-8 8 l31 0 l0 25 l-24 0 l-14 -2 l-8 8 l46 0 l0 23 l-12 0 l-14 -2 l-8 8 l34 0 q0 9 -1 33 l20 -10 l-7 -7 l0 -16 l21 0 l9 9 l13 -13 l-8 -5 l0 -20 l3 0 l9 9 l15 -15 l-27 0 q0 -14 1 -33 l-13 -6 l0 8 l-23 0 l0 -25 l20 0 l10 10 l16 -16 l-46 0 l0 -25 l30 0 l10 10 l16 -16 l-56 0 q0 -19 1 -31 l-14 -6 ZM184 137 l0 -25 l23 0 l0 25 l-23 0 ZM184 166 l0 -23 l23 0 l0 23 l-23 0 Z" /><glyph glyph-name=".notdef" unicode="&#x5075;" d="M111 69 l0 -32 l90 0 l0 32 l-90 0 ZM111 102 l0 -27 l90 0 l0 27 l-90 0 ZM111 137 l0 -29 l90 0 l0 29 l-90 0 ZM146 143 l0 41 q0 10 -1 27 l24 -11 l-10 -7 l0 -17 l44 0 l12 12 l18 -18 l-74 0 l0 -27 l41 0 l7 9 l16 -12 l-9 -6 l0 -73 q0 -11 1 -34 l-14 -6 l0 10 l-90 0 l0 -6 l-14 -6 q1 27 1 65 q0 38 -1 67 l15 -8 l34 0 ZM138 10 q-32 -26 -58 -36 l-2 3 q20 14 33.5 27.5 q13.5 13.5 20.5 24.5 l15 -17 l-9 -2 ZM171 24 q35 -14 44 -20.5 q9 -6.5 9 -14.5 q0 -3 -1.5 -8 q-1.5 -5 -3.5 -5 q-4 0 -10 9 q-10 15 -41 36 l3 3 ZM62 126 l0 -110 q0 -17 1 -33 l-15 -8 q1 41 1 55 l0 92 q-23 -28 -39 -40 l-2 3 q25 29 41.5 59 q16.5 30 27.5 61 l22 -14 l-11 -7 q-17 -30 -27 -45 l10 -6 l-9 -7 Z" /><glyph glyph-name=".notdef" unicode="&#x5076;" d="M115 190 l0 -31 l37 0 l0 31 l-37 0 ZM165 190 l0 -31 l37 0 l0 31 l-37 0 ZM115 153 l0 -31 l37 0 l0 31 l-37 0 ZM165 153 l0 -31 l37 0 l0 31 l-37 0 ZM101 104 q1 16 1 49.5 q0 33.5 -1 50.5 l14 -8 l85 0 l8 9 l15 -12 l-8 -6 l0 -46 q0 -11 1 -29 l-14 -5 l0 9 l-37 0 l0 -29 l50 0 l8 9 l15 -12 l-8 -6 l0 -80 q0 -15 -20 -22 q1 10 -29 19 l0 4 q20 -2 28 -2 q8 0 8 11 l0 73 l-52 0 l0 -38 q6 1 25 3 q-5 10 -12 19 l3 2 q27 -21 28.5 -30 q1.5 -9 -3 -13 q-4.5 -4 -5.5 -4 q-3 0 -4 5 q-2 7 -5 16 q-18 -4 -42.5 -11 q-24.5 -7 -28.5 -12 l-10 19 q13 1 41 4 l0 40 l-52 0 l0 -101 l-14 -6 q1 33 1 63 q0 30 -1 59 l14 -9 l52 0 l0 29 l-37 0 l0 -7 l-14 -5 ZM61 15 q0 -19 1 -34 l-15 -8 q1 39 1 52 l0 100 q-17 -24 -35 -41 l-2 2 q22 30 37.5 67.5 q15.5 37.5 20.5 57.5 l21 -13 l-9 -5 q-14 -32 -25 -54 l14 -9 l-9 -8 l0 -107 Z" /><glyph glyph-name=".notdef" unicode="&#x5077;" d="M102 103 l0 -27 l35 0 l0 27 l-35 0 ZM102 70 l0 -27 l35 0 l0 27 l-35 0 ZM141 209 l19 -11 l-9 -6 q19 -26 40 -38.5 q21 -12.5 52 -17.5 l0 -4 q-15 -3 -19 -11 q-29 11 -47 29 q-18 18 -28 38 q-20 -34 -40 -52 l55 0 l10 10 l16 -16 l-59 0 l-15 -3 l-8 8 q-21 -17 -41 -27 l-2 3 q22 14 42 38.5 q20 24.5 34 59.5 ZM89 90 q0 12 -1 27 l14 -8 l34 0 l7 9 l14 -11 l-7 -6 l0 -105 q0 -16 -17 -20 q0 10 -20 16 l0 3 q12 -2 18.5 -2 q6.5 0 5.5 7 l0 37 l-35 0 l0 -53 l-14 -7 q1 20 1 31 l0 82 ZM181 47 q0 -14 1 -32 l-14 -4 q1 16 1 25 l0 45 q0 6 -1 22 l19 -8 l-6 -7 l0 -41 ZM202 94 q0 11 -1 24 l22 -11 l-8 -6 l0 -102 q1 -18 -20 -24 q1 11 -25 19 l0 4 q17 -2 24.5 -2 q7.5 0 7.5 7 l0 91 ZM58 128 l0 -147 l-14 -5 q1 22 1 31 l0 113 q-17 -25 -31 -40 l-3 2 q14 21 28 52 q14 31 25 74 l22 -13 l-9 -5 q-13 -28 -22 -50 l11 -6 l-8 -6 Z" /></font>
</defs>
</svg>
